advent_pro_fmm_bld_krn_class.ufo
<glyph name="numbersign" format="1">
  <advance width="636"/>
  <unicode hex="0023"/>
  <outline>
    <contour>
      <point x="468" y="269" type="line"/>
      <point x="488" y="356" type="line"/>
      <point x="592" y="356" type="line"/>
      <point x="592" y="469" type="line"/>
      <point x="517" y="469" type="line"/>
      <point x="571" y="698" type="line"/>
      <point x="456" y="698" type="line"/>
      <point x="402" y="469" type="line"/>
      <point x="284" y="469" type="line"/>
      <point x="337" y="698" type="line"/>
      <point x="233" y="698" type="line"/>
      <point x="180" y="469" type="line"/>
      <point x="43" y="469" type="line"/>
      <point x="43" y="356" type="line"/>
      <point x="153" y="356" type="line"/>
      <point x="132" y="269" type="line"/>
      <point x="43" y="269" type="line"/>
      <point x="43" y="166" type="line"/>
      <point x="108" y="166" type="line"/>
      <point x="68" y="0" type="line"/>
      <point x="174" y="0" type="line"/>
      <point x="212" y="166" type="line"/>
      <point x="330" y="166" type="line"/>
      <point x="292" y="0" type="line"/>
      <point x="405" y="0" type="line"/>
      <point x="444" y="166" type="line"/>
      <point x="592" y="166" type="line"/>
      <point x="592" y="269" type="line"/>
    </contour>
    <contour>
      <point x="355" y="269" type="line"/>
      <point x="236" y="269" type="line"/>
      <point x="257" y="356" type="line"/>
      <point x="376" y="356" type="line"/>
    </contour>
  </outline>
</glyph>
<glyph name="dollar" format="1">
  <advance width="564"/>
  <unicode hex="0024"/>
  <outline>
    <contour>
      <point x="240" y="-114" type="line"/>
      <point x="350" y="-114" type="line"/>
      <point x="350" y="816" type="line"/>
      <point x="240" y="816" type="line"/>
    </contour>
    <contour>
      <point x="428" y="574" type="curve"/>
      <point x="461" y="671" type="line"/>
      <point x="415" y="695"/>
      <point x="357" y="708"/>
      <point x="301" y="708" type="curve" smooth="yes"/>
      <point x="243" y="708"/>
      <point x="186" y="697"/>
      <point x="141" y="667" type="curve" smooth="yes"/>
      <point x="93" y="635"/>
      <point x="73" y="586"/>
      <point x="73" y="537" type="curve" smooth="yes"/>
      <point x="73" y="428"/>
      <point x="161" y="387"/>
      <point x="246" y="346" type="curve"/>
      <point x="269" y="337"/>
      <point x="292" y="326"/>
      <point x="313" y="313" type="curve"/>
      <point x="363" y="286"/>
      <point x="403" y="252"/>
      <point x="403" y="198" type="curve" smooth="yes"/>
      <point x="403" y="167"/>
      <point x="389" y="137"/>
      <point x="366" y="121" type="curve" smooth="yes"/>
      <point x="341" y="102"/>
      <point x="306" y="96"/>
      <point x="277" y="96" type="curve" smooth="yes"/>
      <point x="257" y="96"/>
      <point x="221" y="99"/>
      <point x="183" y="122" type="curve" smooth="yes"/>
      <point x="162" y="135"/>
      <point x="142" y="155"/>
      <point x="125" y="183" type="curve"/>
      <point x="40" y="127" type="line"/>
      <point x="70" y="81"/>
      <point x="94" y="55"/>
      <point x="128" y="31" type="curve" smooth="yes"/>
      <point x="174" y="-2"/>
      <point x="228" y="-12"/>
      <point x="274" y="-12" type="curve" smooth="yes"/>
      <point x="333" y="-12"/>
      <point x="393" y="-1"/>
      <point x="439" y="29" type="curve" smooth="yes"/>
      <point x="501" y="69"/>
      <point x="526" y="136"/>
      <point x="526" y="199" type="curve" smooth="yes"/>
      <point x="526" y="297"/>
      <point x="459" y="360"/>
      <point x="384" y="404" type="curve" smooth="yes"/>
      <point x="355" y="422"/>
      <point x="324" y="437"/>
      <point x="296" y="449" type="curve" smooth="yes"/>
      <point x="238" y="475"/>
      <point x="196" y="496"/>
      <point x="195" y="537" type="curve" smooth="yes"/>
      <point x="195" y="559"/>
      <point x="205" y="575"/>
      <point x="221" y="586" type="curve" smooth="yes"/>
      <point x="237" y="598"/>
      <point x="265" y="606"/>
      <point x="299" y="606" type="curve" smooth="yes"/>
      <point x="335" y="606"/>
      <point x="380" y="597"/>
    </contour>
  </outline>
</glyph>
<glyph name="percent" format="1">
  <advance width="749"/>
  <unicode hex="0025"/>
  <outline>
    <contour>
      <point x="41" y="0" type="line"/>
      <point x="165" y="0" type="line"/>
      <point x="705" y="698" type="line"/>
      <point x="578" y="698" type="line"/>
    </contour>
    <contour>
      <point x="198" y="713" type="curve" smooth="yes"/>
      <point x="117" y="713"/>
      <point x="52" y="648"/>
      <point x="52" y="568" type="curve" smooth="yes"/>
      <point x="52" y="487"/>
      <point x="117" y="422"/>
      <point x="198" y="422" type="curve" smooth="yes"/>
      <point x="277" y="422"/>
      <point x="343" y="487"/>
      <point x="343" y="568" type="curve" smooth="yes"/>
      <point x="343" y="648"/>
      <point x="277" y="713"/>
    </contour>
    <contour>
      <point x="198" y="620" type="curve" smooth="yes"/>
      <point x="225" y="620"/>
      <point x="250" y="596"/>
      <point x="250" y="568" type="curve" smooth="yes"/>
      <point x="250" y="539"/>
      <point x="225" y="515"/>
      <point x="198" y="515" type="curve" smooth="yes"/>
      <point x="168" y="515"/>
      <point x="145" y="539"/>
      <point x="145" y="568" type="curve" smooth="yes"/>
      <point x="145" y="596"/>
      <point x="168" y="620"/>
    </contour>
    <contour>
      <point x="558" y="277" type="curve" smooth="yes"/>
      <point x="477" y="277"/>
      <point x="412" y="212"/>
      <point x="412" y="131" type="curve" smooth="yes"/>
      <point x="412" y="51"/>
      <point x="477" y="-14"/>
      <point x="558" y="-14" type="curve" smooth="yes"/>
      <point x="638" y="-14"/>
      <point x="703" y="51"/>
      <point x="703" y="131" type="curve" smooth="yes"/>
      <point x="703" y="212"/>
      <point x="638" y="277"/>
    </contour>
    <contour>
      <point x="558" y="184" type="curve" smooth="yes"/>
      <point x="586" y="184"/>
      <point x="609" y="159"/>
      <point x="609" y="131" type="curve" smooth="yes"/>
      <point x="609" y="103"/>
      <point x="586" y="79"/>
      <point x="558" y="79" type="curve" smooth="yes"/>
      <point x="529" y="79"/>
      <point x="506" y="103"/>
      <point x="506" y="131" type="curve" smooth="yes"/>
      <point x="506" y="159"/>
      <point x="529" y="184"/>
    </contour>
  </outline>
</glyph>
<glyph name="ampersand" format="1">
  <advance width="546"/>
  <unicode hex="0026"/>
  <outline>
    <contour>
      <point x="393" y="588" type="curve"/>
      <point x="414" y="700" type="line"/>
      <point x="414" y="700"/>
      <point x="326" y="700"/>
      <point x="246" y="700" type="curve" smooth="yes"/>
      <point x="156" y="700"/>
      <point x="103" y="640"/>
      <point x="103" y="554" type="curve" smooth="yes"/>
      <point x="103" y="486"/>
      <point x="142" y="433"/>
      <point x="192" y="403" type="curve"/>
      <point x="190" y="403"/>
      <point x="173" y="403"/>
      <point x="165" y="403" type="curve" smooth="yes"/>
      <point x="91" y="403"/>
      <point x="41" y="358"/>
      <point x="41" y="256" type="curve"/>
      <point x="41" y="256"/>
      <point x="41" y="161"/>
      <point x="41" y="161" type="curve"/>
      <point x="41" y="34"/>
      <point x="124" y="-2"/>
      <point x="202" y="-2" type="curve" smooth="yes"/>
      <point x="244" y="-2"/>
      <point x="289" y="16"/>
      <point x="324" y="48" type="curve"/>
      <point x="349" y="12"/>
      <point x="392" y="-7"/>
      <point x="453" y="-8" type="curve"/>
      <point x="486" y="80" type="line"/>
      <point x="440" y="80"/>
      <point x="414" y="91"/>
      <point x="414" y="136" type="curve" smooth="yes"/>
      <point x="414" y="306" type="line"/>
      <point x="485" y="306" type="line"/>
      <point x="508" y="403" type="line"/>
      <point x="409" y="403" type="line"/>
      <point x="409" y="506" type="line"/>
      <point x="299" y="506" type="line"/>
      <point x="299" y="403" type="line"/>
      <point x="298" y="403"/>
      <point x="297" y="403"/>
      <point x="297" y="403" type="curve"/>
      <point x="250" y="437"/>
      <point x="212" y="493"/>
      <point x="212" y="549" type="curve" smooth="yes"/>
      <point x="212" y="576"/>
      <point x="230" y="588"/>
      <point x="256" y="588" type="curve" smooth="yes"/>
      <point x="279" y="588"/>
      <point x="393" y="588"/>
    </contour>
    <contour>
      <point x="299" y="310" type="curve"/>
      <point x="299" y="167" type="line"/>
      <point x="291" y="125"/>
      <point x="259" y="98"/>
      <point x="219" y="98" type="curve" smooth="yes"/>
      <point x="176" y="98"/>
      <point x="150" y="127"/>
      <point x="150" y="164" type="curve" smooth="yes"/>
      <point x="150" y="169"/>
      <point x="150" y="255"/>
      <point x="150" y="258" type="curve" smooth="yes"/>
      <point x="150" y="296"/>
      <point x="179" y="310"/>
      <point x="211" y="310" type="curve" smooth="yes"/>
      <point x="228" y="310"/>
      <point x="270" y="310"/>
    </contour>
  </outline>
</glyph>
<glyph name="quotesingle" format="1">
  <advance width="158"/>
  <unicode hex="0027"/>
  <outline>
    <contour>
      <point x="31" y="694" type="curve"/>
      <point x="45" y="587" type="line"/>
      <point x="107" y="587" type="line"/>
      <point x="121" y="694" type="line"/>
      <point x="121" y="751"/>
      <point x="31" y="751"/>
    </contour>
  </outline>
</glyph>
<glyph name="asterisk" format="1">
  <advance width="397"/>
  <unicode hex="002A"/>
  <outline>
    <contour>
      <point x="73" y="653" type="line"/>
      <point x="34" y="550" type="line"/>
      <point x="151" y="540" type="line"/>
      <point x="60" y="466" type="line"/>
      <point x="158" y="396" type="line"/>
      <point x="196" y="514" type="line"/>
      <point x="234" y="396" type="line"/>
      <point x="336" y="464" type="line"/>
      <point x="240" y="539" type="line"/>
      <point x="361" y="549" type="line"/>
      <point x="316" y="654" type="line"/>
      <point x="223" y="586" type="line"/>
      <point x="257" y="698" type="line"/>
      <point x="137" y="698" type="line"/>
      <point x="170" y="586" type="line"/>
    </contour>
  </outline>
</glyph>
<glyph name="period" format="1">
  <advance width="193"/>
  <unicode hex="002E"/>
  <outline>
    <contour>
      <point x="97" y="103" type="curve" smooth="yes"/>
      <point x="64" y="103"/>
      <point x="38" y="76"/>
      <point x="38" y="43" type="curve" smooth="yes"/>
      <point x="38" y="10"/>
      <point x="64" y="-17"/>
      <point x="97" y="-17" type="curve" smooth="yes"/>
      <point x="130" y="-17"/>
      <point x="158" y="10"/>
      <point x="158" y="43" type="curve" smooth="yes"/>
      <point x="158" y="76"/>
      <point x="130" y="103"/>
    </contour>
  </outline>
</glyph>
<glyph name="two" format="1">
  <advance width="459"/>
  <unicode hex="0032"/>
  <outline>
    <contour>
      <point x="58" y="588" type="curve"/>
      <point x="149" y="541" type="line"/>
      <point x="163" y="580"/>
      <point x="197" y="601"/>
      <point x="234" y="601" type="curve"/>
      <point x="270" y="599"/>
      <point x="304" y="576"/>
      <point x="304" y="529" type="curve" smooth="yes"/>
      <point x="304" y="501"/>
      <point x="297" y="479"/>
      <point x="261" y="422" type="curve"/>
      <point x="185" y="317"/>
      <point x="114" y="209"/>
      <point x="42" y="101" type="curve"/>
      <point x="42" y="0" type="line"/>
      <point x="415" y="0" type="line"/>
      <point x="415" y="100" type="line"/>
      <point x="169" y="100" type="line"/>
      <point x="258" y="235"/>
      <point x="305" y="304"/>
      <point x="349" y="372" type="curve" smooth="yes"/>
      <point x="386" y="428"/>
      <point x="412" y="476"/>
      <point x="412" y="538" type="curve" smooth="yes"/>
      <point x="412" y="650"/>
      <point x="325" y="708"/>
      <point x="235" y="708" type="curve" smooth="yes"/>
      <point x="155" y="708"/>
      <point x="86" y="662"/>
    </contour>
  </outline>
</glyph>
<glyph name="four" format="1">
  <advance width="562"/>
  <unicode hex="0034"/>
  <outline>
    <contour>
      <point x="346" y="0" type="line"/>
      <point x="456" y="0" type="line"/>
      <point x="456" y="306" type="line"/>
      <point x="506" y="306" type="line"/>
      <point x="525" y="413" type="line"/>
      <point x="456" y="413" type="line"/>
      <point x="456" y="698" type="line"/>
      <point x="346" y="698" type="line"/>
      <point x="346" y="413" type="line"/>
      <point x="210" y="413" type="line"/>
      <point x="337" y="698" type="line"/>
      <point x="225" y="698" type="line"/>
      <point x="32" y="306" type="line"/>
      <point x="346" y="306" type="line"/>
    </contour>
  </outline>
</glyph>
<glyph name="five" format="1">
  <advance width="462"/>
  <unicode hex="0035"/>
  <outline>
    <contour>
      <point x="185" y="413" type="curve"/>
      <point x="204" y="588" type="line"/>
      <point x="368" y="588" type="line"/>
      <point x="368" y="698" type="line"/>
      <point x="102" y="698" type="line"/>
      <point x="59" y="310" type="line"/>
      <point x="169" y="310" type="line" smooth="yes"/>
      <point x="255" y="306"/>
      <point x="313" y="277"/>
      <point x="313" y="201" type="curve" smooth="yes"/>
      <point x="313" y="142"/>
      <point x="268" y="97"/>
      <point x="210" y="97" type="curve" smooth="yes"/>
      <point x="149" y="97"/>
      <point x="80" y="137"/>
      <point x="80" y="137" type="curve"/>
      <point x="40" y="42" type="line"/>
      <point x="40" y="42"/>
      <point x="125" y="-12"/>
      <point x="212" y="-12" type="curve" smooth="yes"/>
      <point x="353" y="-12"/>
      <point x="424" y="107"/>
      <point x="424" y="199" type="curve" smooth="yes"/>
      <point x="424" y="313"/>
      <point x="354" y="406"/>
      <point x="205" y="411" type="curve" smooth="yes"/>
      <point x="199" y="411"/>
      <point x="192" y="413"/>
    </contour>
  </outline>
</glyph>
<glyph name="seven" format="1">
  <advance width="491"/>
  <unicode hex="0037"/>
  <outline>
    <contour>
      <point x="160" y="0" type="line"/>
      <point x="453" y="588" type="line"/>
      <point x="453" y="698" type="line"/>
      <point x="60" y="698" type="line"/>
      <point x="60" y="588" type="line"/>
      <point x="329" y="588" type="line"/>
      <point x="39" y="0" type="line"/>
    </contour>
  </outline>
</glyph>
<glyph name="semicolon" format="1">
  <advance width="202"/>
  <unicode hex="003B"/>
  <outline>
    <contour>
      <point x="68" y="28" type="curve"/>
      <point x="93" y="11" type="line"/>
      <point x="93" y="11"/>
      <point x="160" y="52"/>
      <point x="160" y="143" type="curve" smooth="yes"/>
      <point x="160" y="176"/>
      <point x="133" y="202"/>
      <point x="101" y="202" type="curve" smooth="yes"/>
      <point x="68" y="202"/>
      <point x="42" y="176"/>
      <point x="42" y="143" type="curve" smooth="yes"/>
      <point x="42" y="116"/>
      <point x="60" y="92"/>
      <point x="87" y="85" type="curve"/>
      <point x="84" y="66"/>
      <point x="78" y="45"/>
    </contour>
    <contour>
      <point x="162" y="385" type="curve" smooth="yes"/>
      <point x="162" y="417"/>
      <point x="134" y="444"/>
      <point x="101" y="444" type="curve" smooth="yes"/>
      <point x="68" y="444"/>
      <point x="43" y="417"/>
      <point x="43" y="385" type="curve" smooth="yes"/>
      <point x="43" y="352"/>
      <point x="68" y="324"/>
      <point x="101" y="324" type="curve" smooth="yes"/>
      <point x="134" y="324"/>
      <point x="162" y="352"/>
    </contour>
  </outline>
</glyph>
<glyph name="less" format="1">
  <advance width="427"/>
  <unicode hex="003C"/>
  <outline>
    <contour>
      <point x="34" y="358" type="line"/>
      <point x="312" y="80" type="line"/>
      <point x="383" y="146" type="line"/>
      <point x="174" y="358" type="line"/>
      <point x="386" y="565" type="line"/>
      <point x="312" y="636" type="line"/>
    </contour>
  </outline>
</glyph>
<glyph name="equal" format="1">
  <advance width="400"/>
  <unicode hex="003D"/>
  <outline>
    <contour>
      <point x="40" y="356" type="line"/>
      <point x="360" y="356" type="line"/>
      <point x="360" y="461" type="line"/>
      <point x="40" y="461" type="line"/>
    </contour>
    <contour>
      <point x="40" y="204" type="line"/>
      <point x="360" y="204" type="line"/>
      <point x="360" y="309" type="line"/>
      <point x="40" y="309" type="line"/>
    </contour>
  </outline>
</glyph>
<glyph name="greater" format="1">
  <advance width="430"/>
  <unicode hex="003E"/>
  <outline>
    <contour>
      <point x="42" y="565" type="line"/>
      <point x="253" y="358" type="line"/>
      <point x="44" y="146" type="line"/>
      <point x="115" y="80" type="line"/>
      <point x="394" y="358" type="line"/>
      <point x="115" y="636" type="line"/>
    </contour>
  </outline>
</glyph>
<glyph name="at" format="1">
  <advance width="833"/>
  <unicode hex="0040"/>
  <outline>
    <contour>
      <point x="797" y="415" type="curve"/>
      <point x="766" y="484" type="line"/>
      <point x="672" y="466"/>
      <point x="652" y="415"/>
      <point x="652" y="348" type="curve" smooth="yes"/>
      <point x="652" y="332"/>
      <point x="652" y="179"/>
      <point x="652" y="162" type="curve" smooth="yes"/>
      <point x="652" y="57"/>
      <point x="571" y="5"/>
      <point x="407" y="5" type="curve" smooth="yes"/>
      <point x="218" y="5"/>
      <point x="145" y="70"/>
      <point x="145" y="226" type="curve" smooth="yes"/>
      <point x="145" y="261"/>
      <point x="145" y="295"/>
      <point x="145" y="330" type="curve" smooth="yes"/>
      <point x="145" y="443"/>
      <point x="176" y="504"/>
      <point x="323" y="504" type="curve" smooth="yes"/>
      <point x="408" y="504"/>
      <point x="458" y="496"/>
      <point x="458" y="443" type="curve"/>
      <point x="458" y="443"/>
      <point x="357" y="443"/>
      <point x="347" y="443" type="curve" smooth="yes"/>
      <point x="269" y="443"/>
      <point x="211" y="400"/>
      <point x="208" y="285" type="curve"/>
      <point x="208" y="234" type="line" smooth="yes"/>
      <point x="208" y="141"/>
      <point x="246" y="61"/>
      <point x="369" y="61" type="curve" smooth="yes"/>
      <point x="448" y="61"/>
      <point x="567" y="70"/>
      <point x="567" y="70" type="curve"/>
      <point x="567" y="163"/>
      <point x="567" y="253"/>
      <point x="567" y="345" type="curve"/>
      <point x="598" y="345" type="line"/>
      <point x="625" y="443" type="line"/>
      <point x="564" y="443" type="line"/>
      <point x="564" y="576"/>
      <point x="460" y="604"/>
      <point x="319" y="604" type="curve" smooth="yes"/>
      <point x="143" y="604"/>
      <point x="42" y="522"/>
      <point x="42" y="323" type="curve" smooth="yes"/>
      <point x="42" y="280"/>
      <point x="42" y="234"/>
      <point x="42" y="184" type="curve" smooth="yes"/>
      <point x="42" y="-2"/>
      <point x="191" y="-94"/>
      <point x="403" y="-94" type="curve" smooth="yes"/>
      <point x="661" y="-94"/>
      <point x="753" y="38"/>
      <point x="753" y="178" type="curve" smooth="yes"/>
      <point x="753" y="335" type="line" smooth="yes"/>
      <point x="753" y="372"/>
      <point x="756" y="395"/>
    </contour>
    <contour>
      <point x="375" y="345" type="curve" smooth="yes"/>
      <point x="377" y="345"/>
      <point x="432" y="345"/>
      <point x="461" y="345" type="curve"/>
      <point x="461" y="156" type="line"/>
      <point x="434" y="153"/>
      <point x="411" y="153"/>
      <point x="388" y="153" type="curve" smooth="yes"/>
      <point x="342" y="153"/>
      <point x="318" y="167"/>
      <point x="318" y="233" type="curve" smooth="yes"/>
      <point x="318" y="282" type="line" smooth="yes"/>
      <point x="318" y="332"/>
      <point x="353" y="345"/>
    </contour>
  </outline>
</glyph>
<glyph name="I" format="1">
  <advance width="255"/>
  <unicode hex="0049"/>
  <outline>
    <contour>
      <point x="33" y="593" type="line"/>
      <point x="96" y="591" type="line"/>
      <point x="96" y="0" type="line"/>
      <point x="206" y="0" type="line"/>
      <point x="206" y="698" type="line"/>
      <point x="33" y="698" type="line"/>
    </contour>
  </outline>
</glyph>
<glyph name="P" format="1">
  <advance width="524"/>
  <unicode hex="0050"/>
  <outline>
    <contour>
      <point x="266" y="698" type="curve" smooth="yes"/>
      <point x="49" y="698" type="line"/>
      <point x="49" y="0" type="line"/>
      <point x="159" y="0" type="line"/>
      <point x="159" y="195" type="line"/>
      <point x="159" y="195"/>
      <point x="261" y="195"/>
      <point x="266" y="195" type="curve" smooth="yes"/>
      <point x="373" y="195"/>
      <point x="484" y="235"/>
      <point x="484" y="451" type="curve" smooth="yes"/>
      <point x="484" y="648"/>
      <point x="371" y="698"/>
    </contour>
    <contour>
      <point x="159" y="300" type="curve"/>
      <point x="159" y="588" type="line"/>
      <point x="225" y="588" type="line" smooth="yes"/>
      <point x="327" y="588"/>
      <point x="373" y="576"/>
      <point x="373" y="451" type="curve" smooth="yes"/>
      <point x="373" y="317"/>
      <point x="328" y="300"/>
      <point x="225" y="300" type="curve" smooth="yes"/>
      <point x="220" y="300"/>
      <point x="159" y="300"/>
    </contour>
  </outline>
</glyph>
<glyph name="Q" format="1">
  <advance width="509"/>
  <unicode hex="0051"/>
  <outline>
    <contour>
      <point x="312" y="50" type="curve" smooth="yes"/>
      <point x="312" y="94"/>
      <point x="311" y="133"/>
      <point x="312" y="173" type="curve"/>
      <point x="199" y="173" type="line"/>
      <point x="197" y="123"/>
      <point x="199" y="77"/>
      <point x="199" y="31" type="curve" smooth="yes"/>
      <point x="199" y="-50"/>
      <point x="236" y="-117"/>
      <point x="399" y="-117" type="curve"/>
      <point x="413" y="-22" type="line"/>
      <point x="318" y="-22"/>
      <point x="312" y="5"/>
    </contour>
    <contour>
      <point x="45" y="506" type="curve" smooth="yes"/>
      <point x="45" y="185" type="line" smooth="yes"/>
      <point x="45" y="56"/>
      <point x="137" y="-11"/>
      <point x="256" y="-11" type="curve" smooth="yes"/>
      <point x="381" y="-11"/>
      <point x="465" y="63"/>
      <point x="465" y="185" type="curve" smooth="yes"/>
      <point x="465" y="505" type="line" smooth="yes"/>
      <point x="465" y="636"/>
      <point x="389" y="715"/>
      <point x="257" y="715" type="curve" smooth="yes"/>
      <point x="125" y="715"/>
      <point x="45" y="642"/>
    </contour>
    <contour>
      <point x="155" y="204" type="curve" smooth="yes"/>
      <point x="155" y="470" type="line" smooth="yes"/>
      <point x="155" y="557"/>
      <point x="185" y="598"/>
      <point x="255" y="598" type="curve" smooth="yes"/>
      <point x="332" y="598"/>
      <point x="355" y="554"/>
      <point x="355" y="469" type="curve" smooth="yes"/>
      <point x="355" y="206" type="line" smooth="yes"/>
      <point x="355" y="143"/>
      <point x="318" y="101"/>
      <point x="255" y="101" type="curve" smooth="yes"/>
      <point x="188" y="101"/>
      <point x="155" y="140"/>
    </contour>
  </outline>
</glyph>
<glyph name="bracketleft" format="1">
  <advance width="252"/>
  <unicode hex="005B"/>
  <outline>
    <contour>
      <point x="160" y="701" type="line"/>
      <point x="211" y="711" type="line"/>
      <point x="211" y="816" type="line"/>
      <point x="50" y="816" type="line"/>
      <point x="50" y="-114" type="line"/>
      <point x="211" y="-114" type="line"/>
      <point x="211" y="-9" type="line"/>
      <point x="160" y="1" type="line"/>
    </contour>
  </outline>
</glyph>
<glyph name="underscore" format="1">
  <advance width="384"/>
  <unicode hex="005F"/>
  <outline>
    <contour>
      <point x="34" y="-77" type="line"/>
      <point x="353" y="-77" type="line"/>
      <point x="353" y="0" type="line"/>
      <point x="34" y="0" type="line"/>
    </contour>
  </outline>
</glyph>
<glyph name="d" format="1">
  <advance width="475"/>
  <unicode hex="0064"/>
  <outline>
    <contour>
      <point x="426" y="0" type="curve"/>
      <point x="426" y="698" type="line"/>
      <point x="316" y="698" type="line"/>
      <point x="316" y="482" type="line"/>
      <point x="273" y="501"/>
      <point x="236" y="508"/>
      <point x="190" y="508" type="curve" smooth="yes"/>
      <point x="116" y="508"/>
      <point x="41" y="461"/>
      <point x="41" y="359" type="curve"/>
      <point x="41" y="359"/>
      <point x="41" y="156"/>
      <point x="41" y="155" type="curve" smooth="yes"/>
      <point x="47" y="25"/>
      <point x="136" y="-11"/>
      <point x="249" y="-11" type="curve" smooth="yes"/>
      <point x="314" y="-11"/>
      <point x="372" y="-8"/>
    </contour>
    <contour>
      <point x="316" y="370" type="curve"/>
      <point x="316" y="370"/>
      <point x="316" y="94"/>
      <point x="316" y="94" type="curve"/>
      <point x="316" y="94"/>
      <point x="272" y="91"/>
      <point x="256" y="91" type="curve" smooth="yes"/>
      <point x="166" y="91"/>
      <point x="152" y="123"/>
      <point x="152" y="174" type="curve" smooth="yes"/>
      <point x="152" y="193"/>
      <point x="152" y="324"/>
      <point x="152" y="345" type="curve" smooth="yes"/>
      <point x="152" y="382"/>
      <point x="191" y="394"/>
      <point x="222" y="394" type="curve" smooth="yes"/>
      <point x="268" y="394"/>
      <point x="304" y="377"/>
    </contour>
  </outline>
</glyph>
<glyph name="e" format="1">
  <advance width="442"/>
  <unicode hex="0065"/>
  <outline>
    <contour>
      <point x="153" y="148" type="curve" smooth="yes"/>
      <point x="153" y="173" type="line"/>
      <point x="402" y="186" type="line"/>
      <point x="402" y="342" type="line" smooth="yes"/>
      <point x="402" y="402"/>
      <point x="380" y="449"/>
      <point x="341" y="477" type="curve" smooth="yes"/>
      <point x="312" y="498"/>
      <point x="273" y="509"/>
      <point x="226" y="509" type="curve" smooth="yes"/>
      <point x="175" y="509"/>
      <point x="133" y="496"/>
      <point x="102" y="472" type="curve" smooth="yes"/>
      <point x="64" y="442"/>
      <point x="42" y="397"/>
      <point x="42" y="339" type="curve" smooth="yes"/>
      <point x="42" y="134" type="line" smooth="yes"/>
      <point x="42" y="80"/>
      <point x="62" y="43"/>
      <point x="92" y="20" type="curve" smooth="yes"/>
      <point x="123" y="-3"/>
      <point x="163" y="-13"/>
      <point x="207" y="-13" type="curve" smooth="yes"/>
      <point x="267" y="-13"/>
      <point x="330" y="5"/>
      <point x="377" y="35" type="curve"/>
      <point x="337" y="130" type="line"/>
      <point x="294" y="108"/>
      <point x="246" y="90"/>
      <point x="210" y="90" type="curve" smooth="yes"/>
      <point x="191" y="90"/>
      <point x="178" y="95"/>
      <point x="168" y="106" type="curve" smooth="yes"/>
      <point x="158" y="116"/>
      <point x="153" y="129"/>
    </contour>
    <contour>
      <point x="291" y="312" type="curve" smooth="yes"/>
      <point x="291" y="305"/>
      <point x="291" y="289"/>
      <point x="291" y="283" type="curve"/>
      <point x="153" y="274" type="line"/>
      <point x="153" y="284"/>
      <point x="153" y="304"/>
      <point x="153" y="313" type="curve" smooth="yes"/>
      <point x="153" y="345"/>
      <point x="155" y="367"/>
      <point x="172" y="385" type="curve"/>
      <point x="183" y="395"/>
      <point x="201" y="403"/>
      <point x="225" y="404" type="curve" smooth="yes"/>
      <point x="246" y="404"/>
      <point x="260" y="397"/>
      <point x="270" y="388" type="curve" smooth="yes"/>
      <point x="289" y="371"/>
      <point x="291" y="348"/>
    </contour>
  </outline>
</glyph>
<glyph name="g" format="1">
  <advance width="455"/>
  <unicode hex="0067"/>
  <outline>
    <contour>
      <point x="411" y="-64" type="curve" smooth="yes"/>
      <point x="411" y="499" type="line"/>
      <point x="301" y="499" type="line"/>
      <point x="301" y="477" type="line"/>
      <point x="270" y="498"/>
      <point x="236" y="509"/>
      <point x="199" y="509" type="curve" smooth="yes"/>
      <point x="96" y="509"/>
      <point x="41" y="446"/>
      <point x="41" y="345" type="curve" smooth="yes"/>
      <point x="41" y="176" type="line" smooth="yes"/>
      <point x="41" y="53"/>
      <point x="100" y="-12"/>
      <point x="211" y="-12" type="curve" smooth="yes"/>
      <point x="244" y="-12"/>
      <point x="278" y="-3"/>
      <point x="301" y="12" type="curve"/>
      <point x="301" y="-53" type="line" smooth="yes"/>
      <point x="301" y="-106"/>
      <point x="261" y="-124"/>
      <point x="228" y="-124" type="curve"/>
      <point x="255" y="-210" type="line"/>
      <point x="350" y="-210"/>
      <point x="411" y="-169"/>
    </contour>
    <contour>
      <point x="301" y="386" type="curve"/>
      <point x="301" y="139" type="line" smooth="yes"/>
      <point x="301" y="116"/>
      <point x="275" y="92"/>
      <point x="220" y="88" type="curve"/>
      <point x="173" y="88"/>
      <point x="151" y="120"/>
      <point x="151" y="159" type="curve" smooth="yes"/>
      <point x="151" y="337" type="line" smooth="yes"/>
      <point x="151" y="393"/>
      <point x="186" y="410"/>
      <point x="225" y="410" type="curve" smooth="yes"/>
      <point x="259" y="410"/>
      <point x="301" y="386"/>
    </contour>
  </outline>
</glyph>
<glyph name="p" format="1">
  <advance width="455"/>
  <unicode hex="0070"/>
  <outline>
    <contour>
      <point x="415" y="176" type="curve" smooth="yes"/>
      <point x="415" y="345" type="line" smooth="yes"/>
      <point x="415" y="446"/>
      <point x="359" y="509"/>
      <point x="258" y="509" type="curve" smooth="yes"/>
      <point x="219" y="509"/>
      <point x="169" y="490"/>
      <point x="156" y="477" type="curve"/>
      <point x="156" y="499" type="line"/>
      <point x="46" y="499" type="line"/>
      <point x="46" y="-199" type="line"/>
      <point x="156" y="-213" type="line"/>
      <point x="156" y="12" type="line"/>
      <point x="179" y="-3"/>
      <point x="213" y="-12"/>
      <point x="246" y="-12" type="curve" smooth="yes"/>
      <point x="357" y="-12"/>
      <point x="415" y="53"/>
    </contour>
    <contour>
      <point x="305" y="337" type="curve" smooth="yes"/>
      <point x="305" y="159" type="line" smooth="yes"/>
      <point x="305" y="116"/>
      <point x="282" y="88"/>
      <point x="241" y="88" type="curve" smooth="yes"/>
      <point x="208" y="88"/>
      <point x="156" y="103"/>
      <point x="156" y="139" type="curve" smooth="yes"/>
      <point x="156" y="386" type="line"/>
      <point x="156" y="386"/>
      <point x="198" y="410"/>
      <point x="232" y="410" type="curve" smooth="yes"/>
      <point x="270" y="410"/>
      <point x="305" y="393"/>
    </contour>
  </outline>
</glyph>
<glyph name="q" format="1">
  <advance width="455"/>
  <unicode hex="0071"/>
  <outline>
    <contour>
      <point x="301" y="13" type="curve"/>
      <point x="301" y="-198" type="line"/>
      <point x="411" y="-212" type="line"/>
      <point x="411" y="499" type="line"/>
      <point x="301" y="499" type="line"/>
      <point x="301" y="477" type="line"/>
      <point x="271" y="498"/>
      <point x="237" y="510"/>
      <point x="201" y="510" type="curve" smooth="yes"/>
      <point x="97" y="510"/>
      <point x="41" y="448"/>
      <point x="41" y="345" type="curve" smooth="yes"/>
      <point x="41" y="176" type="line" smooth="yes"/>
      <point x="41" y="54"/>
      <point x="100" y="-11"/>
      <point x="211" y="-11" type="curve" smooth="yes"/>
      <point x="243" y="-11"/>
      <point x="277" y="-2"/>
    </contour>
    <contour>
      <point x="301" y="387" type="curve"/>
      <point x="301" y="140" type="line" smooth="yes"/>
      <point x="301" y="117"/>
      <point x="275" y="92"/>
      <point x="220" y="89" type="curve"/>
      <point x="171" y="89"/>
      <point x="151" y="122"/>
      <point x="151" y="161" type="curve" smooth="yes"/>
      <point x="151" y="338" type="line" smooth="yes"/>
      <point x="151" y="394"/>
      <point x="188" y="411"/>
      <point x="224" y="411" type="curve" smooth="yes"/>
      <point x="259" y="411"/>
      <point x="301" y="387"/>
    </contour>
  </outline>
</glyph>
<glyph name="u" format="1">
  <advance width="457"/>
  <unicode hex="0075"/>
  <outline>
    <contour>
      <point x="303" y="26" type="curve"/>
      <point x="303" y="0" type="line"/>
      <point x="413" y="0" type="line"/>
      <point x="413" y="501" type="line"/>
      <point x="303" y="501" type="line"/>
      <point x="303" y="175" type="line" smooth="yes"/>
      <point x="303" y="129"/>
      <point x="268" y="94"/>
      <point x="223" y="94" type="curve" smooth="yes"/>
      <point x="183" y="94"/>
      <point x="155" y="124"/>
      <point x="155" y="159" type="curve" smooth="yes"/>
      <point x="155" y="501" type="line"/>
      <point x="44" y="501" type="line"/>
      <point x="44" y="157" type="line" smooth="yes"/>
      <point x="44" y="29"/>
      <point x="126" y="-7"/>
      <point x="204" y="-7" type="curve" smooth="yes"/>
      <point x="246" y="-7"/>
      <point x="290" y="12"/>
    </contour>
  </outline>
</glyph>
<glyph name="w" format="1">
  <advance width="747"/>
  <unicode hex="0077"/>
  <outline>
    <contour>
      <point x="429" y="499" type="line"/>
      <point x="325" y="499" type="line"/>
      <point x="245" y="194" type="line"/>
      <point x="153" y="499" type="line"/>
      <point x="33" y="499" type="line"/>
      <point x="194" y="0" type="line"/>
      <point x="302" y="0" type="line"/>
      <point x="374" y="267" type="line"/>
      <point x="446" y="0" type="line"/>
      <point x="551" y="0" type="line"/>
      <point x="713" y="499" type="line"/>
      <point x="595" y="499" type="line"/>
      <point x="513" y="194" type="line"/>
    </contour>
  </outline>
</glyph>
<glyph name="braceleft" format="1">
  <advance width="311"/>
  <unicode hex="007B"/>
  <outline>
    <contour>
      <point x="223" y="516" type="curve" smooth="yes"/>
      <point x="223" y="629" type="line" smooth="yes"/>
      <point x="223" y="704"/>
      <point x="248" y="725"/>
      <point x="273" y="739" type="curve"/>
      <point x="223" y="821" type="line"/>
      <point x="218" y="820"/>
      <point x="114" y="790"/>
      <point x="114" y="629" type="curve" smooth="yes"/>
      <point x="114" y="516" type="line" smooth="yes"/>
      <point x="114" y="459"/>
      <point x="107" y="409"/>
      <point x="44" y="360" type="curve" smooth="yes"/>
      <point x="34" y="352" type="line"/>
      <point x="44" y="345" type="line"/>
      <point x="107" y="296"/>
      <point x="114" y="245"/>
      <point x="114" y="189" type="curve" smooth="yes"/>
      <point x="114" y="76" type="line" smooth="yes"/>
      <point x="114" y="-84"/>
      <point x="217" y="-116"/>
      <point x="223" y="-117" type="curve"/>
      <point x="273" y="-34" type="line"/>
      <point x="248" y="-20"/>
      <point x="223" y="1"/>
      <point x="223" y="76" type="curve" smooth="yes"/>
      <point x="223" y="189" type="line" smooth="yes"/>
      <point x="223" y="246"/>
      <point x="218" y="301"/>
      <point x="157" y="352" type="curve"/>
      <point x="218" y="404"/>
      <point x="223" y="459"/>
    </contour>
  </outline>
</glyph>
<glyph name="braceright" format="1">
  <advance width="314"/>
  <unicode hex="007D"/>
  <outline>
    <contour>
      <point x="89" y="821" type="curve"/>
      <point x="38" y="739" type="line"/>
      <point x="64" y="725"/>
      <point x="89" y="704"/>
      <point x="89" y="629" type="curve" smooth="yes"/>
      <point x="89" y="516" type="line" smooth="yes"/>
      <point x="89" y="459"/>
      <point x="93" y="404"/>
      <point x="155" y="352" type="curve"/>
      <point x="93" y="301"/>
      <point x="89" y="246"/>
      <point x="89" y="189" type="curve" smooth="yes"/>
      <point x="89" y="76" type="line" smooth="yes"/>
      <point x="89" y="1"/>
      <point x="64" y="-20"/>
      <point x="38" y="-34" type="curve"/>
      <point x="89" y="-117" type="line"/>
      <point x="94" y="-116"/>
      <point x="199" y="-84"/>
      <point x="199" y="76" type="curve" smooth="yes"/>
      <point x="199" y="189" type="line" smooth="yes"/>
      <point x="199" y="245"/>
      <point x="205" y="296"/>
      <point x="268" y="345" type="curve"/>
      <point x="278" y="352" type="line"/>
      <point x="267" y="360" type="line" smooth="yes"/>
      <point x="205" y="409"/>
      <point x="199" y="459"/>
      <point x="199" y="516" type="curve" smooth="yes"/>
      <point x="199" y="629" type="line" smooth="yes"/>
      <point x="199" y="790"/>
      <point x="93" y="820"/>
    </contour>
  </outline>
</glyph>
<glyph name="asciitilde" format="1">
  <advance width="386"/>
  <unicode hex="007E"/>
  <outline>
    <contour>
      <point x="350" y="299" type="curve"/>
      <point x="317" y="355" type="line"/>
      <point x="293" y="337"/>
      <point x="272" y="331"/>
      <point x="254" y="331" type="curve" smooth="yes"/>
      <point x="212" y="331"/>
      <point x="175" y="360"/>
      <point x="129" y="360" type="curve" smooth="yes"/>
      <point x="92" y="360"/>
      <point x="61" y="341"/>
      <point x="34" y="319" type="curve"/>
      <point x="67" y="263" type="line"/>
      <point x="91" y="279"/>
      <point x="113" y="286"/>
      <point x="133" y="286" type="curve" smooth="yes"/>
      <point x="174" y="285"/>
      <point x="210" y="257"/>
      <point x="253" y="256" type="curve" smooth="yes"/>
      <point x="293" y="256"/>
      <point x="324" y="276"/>
    </contour>
  </outline>
</glyph>
<glyph name="currency" format="1">
  <advance width="513"/>
  <unicode hex="00A4"/>
  <outline>
    <contour>
      <point x="386" y="349" type="curve"/>
      <point x="473" y="435" type="line"/>
      <point x="409" y="498" type="line"/>
      <point x="323" y="411" type="line"/>
      <point x="303" y="422"/>
      <point x="281" y="428"/>
      <point x="257" y="428" type="curve" smooth="yes"/>
      <point x="233" y="428"/>
      <point x="211" y="422"/>
      <point x="191" y="411" type="curve"/>
      <point x="105" y="498" type="line"/>
      <point x="42" y="435" type="line"/>
      <point x="128" y="348" type="line"/>
      <point x="118" y="329"/>
      <point x="112" y="306"/>
      <point x="112" y="283" type="curve" smooth="yes"/>
      <point x="112" y="258"/>
      <point x="118" y="237"/>
      <point x="128" y="217" type="curve"/>
      <point x="42" y="131" type="line"/>
      <point x="105" y="68" type="line"/>
      <point x="191" y="154" type="line"/>
      <point x="211" y="144"/>
      <point x="233" y="137"/>
      <point x="257" y="137" type="curve" smooth="yes"/>
      <point x="280" y="137"/>
      <point x="303" y="143"/>
      <point x="322" y="153" type="curve"/>
      <point x="409" y="68" type="line"/>
      <point x="473" y="131" type="line"/>
      <point x="386" y="217" type="line"/>
      <point x="397" y="237"/>
      <point x="403" y="258"/>
      <point x="403" y="283" type="curve" smooth="yes"/>
      <point x="403" y="307"/>
      <point x="397" y="329"/>
    </contour>
    <contour>
      <point x="257" y="231" type="curve" smooth="yes"/>
      <point x="229" y="231"/>
      <point x="206" y="254"/>
      <point x="206" y="283" type="curve" smooth="yes"/>
      <point x="206" y="312"/>
      <point x="229" y="334"/>
      <point x="257" y="334" type="curve" smooth="yes"/>
      <point x="287" y="334"/>
      <point x="309" y="312"/>
      <point x="309" y="283" type="curve" smooth="yes"/>
      <point x="309" y="254"/>
      <point x="287" y="231"/>
    </contour>
  </outline>
</glyph>
<glyph name="yen" format="1">
  <advance width="532"/>
  <unicode hex="00A5"/>
  <outline>
    <contour>
      <point x="103" y="198" type="line"/>
      <point x="208" y="198" type="line"/>
      <point x="208" y="150" type="line"/>
      <point x="103" y="150" type="line"/>
      <point x="103" y="45" type="line"/>
      <point x="208" y="45" type="line"/>
      <point x="208" y="0" type="line"/>
      <point x="319" y="0" type="line"/>
      <point x="319" y="45" type="line"/>
      <point x="423" y="45" type="line"/>
      <point x="423" y="150" type="line"/>
      <point x="319" y="150" type="line"/>
      <point x="319" y="198" type="line"/>
      <point x="423" y="198" type="line"/>
      <point x="423" y="301" type="line"/>
      <point x="319" y="301" type="line"/>
      <point x="319" y="315" type="line"/>
      <point x="499" y="698" type="line"/>
      <point x="383" y="698" type="line"/>
      <point x="263" y="433" type="line"/>
      <point x="144" y="698" type="line"/>
      <point x="27" y="698" type="line"/>
      <point x="208" y="315" type="line"/>
      <point x="208" y="301" type="line"/>
      <point x="103" y="301" type="line"/>
    </contour>
  </outline>
</glyph>
<glyph name="copyright" format="1">
  <advance width="799"/>
  <unicode hex="00A9"/>
  <outline>
    <contour>
      <point x="759" y="185" type="curve" smooth="yes"/>
      <point x="759" y="326" type="line" smooth="yes"/>
      <point x="759" y="510"/>
      <point x="609" y="602"/>
      <point x="400" y="603" type="curve" smooth="yes"/>
      <point x="190" y="602"/>
      <point x="41" y="510"/>
      <point x="41" y="326" type="curve" smooth="yes"/>
      <point x="41" y="185" type="line" smooth="yes"/>
      <point x="41" y="0"/>
      <point x="190" y="-91"/>
      <point x="400" y="-94" type="curve" smooth="yes"/>
      <point x="609" y="-91"/>
      <point x="759" y="0"/>
    </contour>
    <contour>
      <point x="657" y="289" type="curve" smooth="yes"/>
      <point x="657" y="222" type="line" smooth="yes"/>
      <point x="657" y="44"/>
      <point x="583" y="9"/>
      <point x="400" y="7" type="curve" smooth="yes"/>
      <point x="217" y="9"/>
      <point x="143" y="44"/>
      <point x="143" y="222" type="curve" smooth="yes"/>
      <point x="143" y="289" type="line" smooth="yes"/>
      <point x="143" y="466"/>
      <point x="217" y="501"/>
      <point x="400" y="503" type="curve" smooth="yes"/>
      <point x="583" y="501"/>
      <point x="657" y="466"/>
    </contour>
    <contour>
      <point x="527" y="331" type="curve"/>
      <point x="555" y="421" type="line"/>
      <point x="515" y="441"/>
      <point x="465" y="454"/>
      <point x="416" y="455" type="curve" smooth="yes"/>
      <point x="366" y="455"/>
      <point x="317" y="442"/>
      <point x="280" y="410" type="curve" smooth="yes"/>
      <point x="243" y="378"/>
      <point x="219" y="327"/>
      <point x="219" y="249" type="curve" smooth="yes"/>
      <point x="219" y="180"/>
      <point x="241" y="132"/>
      <point x="278" y="100" type="curve" smooth="yes"/>
      <point x="313" y="70"/>
      <point x="361" y="56"/>
      <point x="416" y="56" type="curve" smooth="yes"/>
      <point x="468" y="56"/>
      <point x="524" y="69"/>
      <point x="580" y="91" type="curve"/>
      <point x="563" y="195" type="line"/>
      <point x="563" y="195"/>
      <point x="480" y="163"/>
      <point x="417" y="163" type="curve" smooth="yes"/>
      <point x="393" y="163"/>
      <point x="370" y="167"/>
      <point x="353" y="182" type="curve" smooth="yes"/>
      <point x="338" y="196"/>
      <point x="329" y="224"/>
      <point x="329" y="255" type="curve" smooth="yes"/>
      <point x="329" y="284"/>
      <point x="338" y="311"/>
      <point x="354" y="327" type="curve"/>
      <point x="371" y="342"/>
      <point x="396" y="350"/>
      <point x="431" y="350" type="curve" smooth="yes"/>
      <point x="479" y="350"/>
      <point x="527" y="331"/>
    </contour>
  </outline>
</glyph>
<glyph name="sfthyphen" format="1">
  <advance width="439"/>
  <unicode hex="00AD"/>
  <outline>
    <contour>
      <point x="35" y="306" type="line"/>
      <point x="354" y="306" type="line"/>
      <point x="354" y="413" type="line"/>
      <point x="35" y="413" type="line"/>
    </contour>
  </outline>
</glyph>
<glyph name="registered" format="1">
  <advance width="799"/>
  <unicode hex="00AE"/>
  <outline>
    <contour>
      <point x="759" y="185" type="curve" smooth="yes"/>
      <point x="759" y="326" type="line" smooth="yes"/>
      <point x="759" y="510"/>
      <point x="609" y="602"/>
      <point x="399" y="603" type="curve" smooth="yes"/>
      <point x="189" y="602"/>
      <point x="41" y="510"/>
      <point x="41" y="326" type="curve" smooth="yes"/>
      <point x="41" y="185" type="line" smooth="yes"/>
      <point x="41" y="0"/>
      <point x="189" y="-91"/>
      <point x="399" y="-94" type="curve" smooth="yes"/>
      <point x="609" y="-91"/>
      <point x="759" y="0"/>
    </contour>
    <contour>
      <point x="657" y="288" type="curve" smooth="yes"/>
      <point x="657" y="222" type="line" smooth="yes"/>
      <point x="657" y="44"/>
      <point x="582" y="9"/>
      <point x="399" y="7" type="curve" smooth="yes"/>
      <point x="217" y="9"/>
      <point x="143" y="44"/>
      <point x="143" y="222" type="curve" smooth="yes"/>
      <point x="143" y="288" type="line" smooth="yes"/>
      <point x="143" y="466"/>
      <point x="217" y="501"/>
      <point x="399" y="503" type="curve" smooth="yes"/>
      <point x="582" y="501"/>
      <point x="657" y="466"/>
    </contour>
    <contour>
      <point x="436" y="443" type="curve" smooth="yes"/>
      <point x="240" y="443" type="line"/>
      <point x="240" y="61" type="line"/>
      <point x="350" y="61" type="line"/>
      <point x="350" y="128" type="line"/>
      <point x="424" y="128" type="line"/>
      <point x="455" y="61" type="line"/>
      <point x="581" y="61" type="line"/>
      <point x="528" y="150" type="line"/>
      <point x="563" y="173"/>
      <point x="579" y="216"/>
      <point x="579" y="283" type="curve" smooth="yes"/>
      <point x="579" y="397"/>
      <point x="541" y="443"/>
    </contour>
    <contour>
      <point x="428" y="233" type="curve" smooth="yes"/>
      <point x="350" y="233" type="line"/>
      <point x="350" y="333" type="line"/>
      <point x="427" y="333" type="line" smooth="yes"/>
      <point x="449" y="333"/>
      <point x="470" y="330"/>
      <point x="470" y="283" type="curve" smooth="yes"/>
      <point x="470" y="237"/>
      <point x="450" y="233"/>
    </contour>
  </outline>
</glyph>
<glyph name="plusminus" format="1">
  <advance width="403"/>
  <unicode hex="00B1"/>
  <outline>
    <contour>
      <point x="43" y="349" type="line"/>
      <point x="147" y="349" type="line"/>
      <point x="147" y="246" type="line"/>
      <point x="42" y="246" type="line"/>
      <point x="42" y="146" type="line"/>
      <point x="362" y="146" type="line"/>
      <point x="362" y="246" type="line"/>
      <point x="258" y="246" type="line"/>
      <point x="258" y="349" type="line"/>
      <point x="363" y="349" type="line"/>
      <point x="363" y="454" type="line"/>
      <point x="258" y="454" type="line"/>
      <point x="258" y="564" type="line"/>
      <point x="147" y="564" type="line"/>
      <point x="147" y="454" type="line"/>
      <point x="43" y="454" type="line"/>
    </contour>
  </outline>
</glyph>
<glyph name="paragraph" format="1">
  <advance width="691"/>
  <unicode hex="00B6"/>
  <outline>
    <contour>
      <point x="256" y="195" type="curve" smooth="yes"/>
      <point x="363" y="195" type="line"/>
      <point x="363" y="1" type="line"/>
      <point x="473" y="1" type="line"/>
      <point x="473" y="594" type="line"/>
      <point x="532" y="592" type="line"/>
      <point x="532" y="1" type="line"/>
      <point x="642" y="1" type="line"/>
      <point x="642" y="700" type="line"/>
      <point x="256" y="700" type="line" smooth="yes"/>
      <point x="152" y="700"/>
      <point x="40" y="648"/>
      <point x="40" y="452" type="curve" smooth="yes"/>
      <point x="40" y="237"/>
      <point x="150" y="195"/>
    </contour>
    <contour>
      <point x="297" y="590" type="curve" smooth="yes"/>
      <point x="363" y="590" type="line"/>
      <point x="363" y="300" type="line"/>
      <point x="297" y="300" type="line" smooth="yes"/>
      <point x="195" y="300"/>
      <point x="150" y="318"/>
      <point x="150" y="452" type="curve" smooth="yes"/>
      <point x="150" y="577"/>
      <point x="196" y="590"/>
    </contour>
  </outline>
</glyph>
<glyph name="questiondown" format="1">
  <advance width="444"/>
  <unicode hex="00BF"/>
  <outline>
    <contour>
      <point x="407" y="161" type="curve"/>
      <point x="296" y="161" type="line"/>
      <point x="294" y="116"/>
      <point x="264" y="89"/>
      <point x="222" y="89" type="curve"/>
      <point x="187" y="91"/>
      <point x="150" y="117"/>
      <point x="150" y="167" type="curve" smooth="yes"/>
      <point x="150" y="211"/>
      <point x="185" y="246"/>
      <point x="219" y="290" type="curve" smooth="yes"/>
      <point x="256" y="338"/>
      <point x="296" y="394"/>
      <point x="296" y="480" type="curve" smooth="yes"/>
      <point x="296" y="573" type="line"/>
      <point x="187" y="573" type="line"/>
      <point x="187" y="499"/>
      <point x="187" y="492"/>
      <point x="187" y="483" type="curve"/>
      <point x="184" y="411"/>
      <point x="169" y="386"/>
      <point x="117" y="328" type="curve" smooth="yes"/>
      <point x="74" y="279"/>
      <point x="39" y="237"/>
      <point x="39" y="170" type="curve" smooth="yes"/>
      <point x="39" y="55"/>
      <point x="131" y="-10"/>
      <point x="223" y="-15" type="curve"/>
      <point x="340" y="-15"/>
      <point x="406" y="58"/>
    </contour>
    <contour>
      <point x="241" y="708" type="curve" smooth="yes"/>
      <point x="208" y="708"/>
      <point x="182" y="682"/>
      <point x="182" y="649" type="curve" smooth="yes"/>
      <point x="182" y="616"/>
      <point x="208" y="588"/>
      <point x="241" y="588" type="curve" smooth="yes"/>
      <point x="274" y="588"/>
      <point x="300" y="616"/>
      <point x="300" y="649" type="curve" smooth="yes"/>
      <point x="300" y="682"/>
      <point x="274" y="708"/>
    </contour>
  </outline>
</glyph>
<glyph name="Acircumflex" format="1">
  <advance width="585"/>
  <unicode hex="00C2"/>
  <outline>
    <contour>
      <point x="553" y="0" type="line"/>
      <point x="381" y="698" type="line"/>
      <point x="226" y="698" type="line"/>
      <point x="57" y="0" type="line"/>
      <point x="181" y="0" type="line"/>
      <point x="221" y="183" type="line"/>
      <point x="382" y="183" type="line"/>
      <point x="422" y="0" type="line"/>
    </contour>
    <contour>
      <point x="248" y="300" type="line"/>
      <point x="302" y="515" type="line"/>
      <point x="357" y="300" type="line"/>
    </contour>
    <contour>
      <point x="296" y="643" type="line"/>
      <point x="168" y="770" type="line"/>
      <point x="36" y="642" type="line"/>
      <point x="88" y="591" type="line"/>
      <point x="168" y="673" type="line"/>
      <point x="243" y="592" type="line"/>
    </contour>
  </outline>
</glyph>
<glyph name="Atilde" format="1">
  <advance width="586"/>
  <unicode hex="00C3"/>
  <outline>
    <contour>
      <point x="554" y="0" type="line"/>
      <point x="382" y="698" type="line"/>
      <point x="227" y="698" type="line"/>
      <point x="58" y="0" type="line"/>
      <point x="182" y="0" type="line"/>
      <point x="222" y="183" type="line"/>
      <point x="383" y="183" type="line"/>
      <point x="423" y="0" type="line"/>
    </contour>
    <contour>
      <point x="249" y="300" type="line"/>
      <point x="303" y="515" type="line"/>
      <point x="358" y="300" type="line"/>
    </contour>
    <contour>
      <point x="230" y="708" type="line"/>
      <point x="230" y="700" type="line" smooth="yes"/>
      <point x="230" y="688"/>
      <point x="230" y="672"/>
      <point x="216" y="672" type="curve" smooth="yes"/>
      <point x="208" y="672"/>
      <point x="195" y="680"/>
      <point x="188" y="684" type="curve" smooth="yes"/>
      <point x="174" y="692"/>
      <point x="169" y="696"/>
      <point x="157" y="702" type="curve" smooth="yes"/>
      <point x="136" y="712"/>
      <point x="113" y="715"/>
      <point x="90" y="708" type="curve" smooth="yes"/>
      <point x="50" y="696"/>
      <point x="36" y="658"/>
      <point x="36" y="619" type="curve" smooth="yes"/>
      <point x="36" y="611" type="line"/>
      <point x="103" y="611" type="line"/>
      <point x="103" y="619" type="line" smooth="yes"/>
      <point x="103" y="632"/>
      <point x="102" y="645"/>
      <point x="118" y="645" type="curve" smooth="yes"/>
      <point x="125" y="645"/>
      <point x="135" y="641"/>
      <point x="144" y="635" type="curve" smooth="yes"/>
      <point x="150" y="631"/>
      <point x="171" y="618"/>
      <point x="177" y="615" type="curve"/>
      <point x="189" y="610"/>
      <point x="202" y="605"/>
      <point x="215" y="605" type="curve" smooth="yes"/>
      <point x="270" y="605"/>
      <point x="297" y="649"/>
      <point x="297" y="700" type="curve" smooth="yes"/>
      <point x="297" y="708" type="line"/>
    </contour>
  </outline>
</glyph>
<glyph name="Adieresis" format="1">
  <advance width="591"/>
  <unicode hex="00C4"/>
  <outline>
    <contour>
      <point x="559" y="0" type="line"/>
      <point x="387" y="698" type="line"/>
      <point x="232" y="698" type="line"/>
      <point x="63" y="0" type="line"/>
      <point x="187" y="0" type="line"/>
      <point x="227" y="183" type="line"/>
      <point x="388" y="183" type="line"/>
      <point x="428" y="0" type="line"/>
    </contour>
    <contour>
      <point x="254" y="300" type="line"/>
      <point x="308" y="515" type="line"/>
      <point x="363" y="300" type="line"/>
    </contour>
    <contour>
      <point x="93" y="767" type="curve" smooth="yes"/>
      <point x="60" y="767"/>
      <point x="33" y="740"/>
      <point x="33" y="708" type="curve" smooth="yes"/>
      <point x="33" y="675"/>
      <point x="60" y="648"/>
      <point x="93" y="648" type="curve" smooth="yes"/>
      <point x="126" y="648"/>
      <point x="152" y="675"/>
      <point x="152" y="708" type="curve" smooth="yes"/>
      <point x="152" y="740"/>
      <point x="126" y="767"/>
    </contour>
    <contour>
      <point x="251" y="767" type="curve" smooth="yes"/>
      <point x="218" y="767"/>
      <point x="191" y="740"/>
      <point x="191" y="708" type="curve" smooth="yes"/>
      <point x="191" y="675"/>
      <point x="218" y="648"/>
      <point x="251" y="648" type="curve" smooth="yes"/>
      <point x="284" y="648"/>
      <point x="311" y="675"/>
      <point x="311" y="708" type="curve" smooth="yes"/>
      <point x="311" y="740"/>
      <point x="284" y="767"/>
    </contour>
  </outline>
</glyph>
<glyph name="Ccedilla" format="1">
  <advance width="445"/>
  <unicode hex="00C7"/>
  <outline>
    <contour>
      <point x="352" y="582" type="curve"/>
      <point x="382" y="675" type="line"/>
      <point x="335" y="698"/>
      <point x="286" y="710"/>
      <point x="238" y="710" type="curve" smooth="yes"/>
      <point x="127" y="710"/>
      <point x="46" y="640"/>
      <point x="46" y="509" type="curve" smooth="yes"/>
      <point x="46" y="183" type="line" smooth="yes"/>
      <point x="46" y="113"/>
      <point x="69" y="64"/>
      <point x="105" y="32" type="curve" smooth="yes"/>
      <point x="140" y="2"/>
      <point x="189" y="-12"/>
      <point x="243" y="-12" type="curve" smooth="yes"/>
      <point x="294" y="-11"/>
      <point x="349" y="1"/>
      <point x="406" y="23" type="curve"/>
      <point x="390" y="127" type="line"/>
      <point x="378" y="127"/>
      <point x="310" y="100"/>
      <point x="249" y="100" type="curve" smooth="yes"/>
      <point x="189" y="100"/>
      <point x="156" y="123"/>
      <point x="156" y="185" type="curve" smooth="yes"/>
      <point x="156" y="512" type="line" smooth="yes"/>
      <point x="156" y="575"/>
      <point x="192" y="599"/>
      <point x="258" y="599" type="curve" smooth="yes"/>
      <point x="288" y="599"/>
      <point x="325" y="592"/>
    </contour>
    <contour>
      <point x="182" y="0" type="line"/>
      <point x="116" y="0" type="line"/>
      <point x="70" y="-75" type="line"/>
      <point x="88" y="-114" type="line"/>
      <point x="129" y="-111"/>
      <point x="158" y="-107"/>
      <point x="178" y="-107" type="curve" smooth="yes"/>
      <point x="203" y="-107"/>
      <point x="213" y="-120"/>
      <point x="213" y="-138" type="curve" smooth="yes"/>
      <point x="213" y="-155"/>
      <point x="202" y="-168"/>
      <point x="174" y="-168" type="curve" smooth="yes"/>
      <point x="131" y="-168"/>
      <point x="75" y="-158"/>
      <point x="74" y="-158" type="curve"/>
      <point x="69" y="-187"/>
      <point x="66" y="-196"/>
      <point x="61" y="-223" type="curve"/>
      <point x="63" y="-224"/>
      <point x="115" y="-235"/>
      <point x="163" y="-235" type="curve" smooth="yes"/>
      <point x="245" y="-235"/>
      <point x="280" y="-193"/>
      <point x="280" y="-133" type="curve" smooth="yes"/>
      <point x="280" y="-86"/>
      <point x="246" y="-40"/>
      <point x="185" y="-40" type="curve" smooth="yes"/>
      <point x="181" y="-40"/>
      <point x="176" y="-41"/>
      <point x="158" y="-42" type="curve"/>
    </contour>
  </outline>
</glyph>
<glyph name="Egrave" format="1">
  <advance width="432"/>
  <unicode hex="00C8"/>
  <outline>
    <contour>
      <point x="52" y="0" type="line"/>
      <point x="384" y="0" type="line"/>
      <point x="384" y="100" type="line"/>
      <point x="162" y="100" type="line"/>
      <point x="162" y="308" type="line"/>
      <point x="268" y="308" type="line"/>
      <point x="299" y="413" type="line"/>
      <point x="162" y="413" type="line"/>
      <point x="162" y="588" type="line"/>
      <point x="386" y="588" type="line"/>
      <point x="386" y="698" type="line"/>
      <point x="52" y="698" type="line"/>
    </contour>
    <contour>
      <point x="142" y="704" type="line"/>
      <point x="131" y="730"/>
      <point x="103" y="749"/>
      <point x="76" y="734" type="curve" smooth="yes"/>
      <point x="47" y="718"/>
      <point x="52" y="682"/>
      <point x="70" y="663" type="curve"/>
      <point x="128" y="587" type="line"/>
      <point x="172" y="587" type="line"/>
    </contour>
  </outline>
</glyph>
<glyph name="Eacute" format="1">
  <advance width="429"/>
  <unicode hex="00C9"/>
  <outline>
    <contour>
      <point x="49" y="0" type="line"/>
      <point x="381" y="0" type="line"/>
      <point x="381" y="100" type="line"/>
      <point x="159" y="100" type="line"/>
      <point x="159" y="308" type="line"/>
      <point x="265" y="308" type="line"/>
      <point x="296" y="413" type="line"/>
      <point x="159" y="413" type="line"/>
      <point x="159" y="588" type="line"/>
      <point x="383" y="588" type="line"/>
      <point x="383" y="698" type="line"/>
      <point x="49" y="698" type="line"/>
    </contour>
    <contour>
      <point x="215" y="671" type="line" smooth="yes"/>
      <point x="233" y="693"/>
      <point x="233" y="727"/>
      <point x="208" y="741" type="curve" smooth="yes"/>
      <point x="182" y="757"/>
      <point x="150" y="738"/>
      <point x="143" y="712" type="curve" smooth="yes"/>
      <point x="113" y="596" type="line"/>
      <point x="157" y="596" type="line"/>
    </contour>
  </outline>
</glyph>
<glyph name="Edieresis" format="1">
  <advance width="461"/>
  <unicode hex="00CB"/>
  <outline>
    <contour>
      <point x="81" y="0" type="line"/>
      <point x="413" y="0" type="line"/>
      <point x="413" y="100" type="line"/>
      <point x="191" y="100" type="line"/>
      <point x="191" y="308" type="line"/>
      <point x="297" y="308" type="line"/>
      <point x="328" y="413" type="line"/>
      <point x="191" y="413" type="line"/>
      <point x="191" y="588" type="line"/>
      <point x="415" y="588" type="line"/>
      <point x="415" y="698" type="line"/>
      <point x="81" y="698" type="line"/>
    </contour>
    <contour>
      <point x="94" y="767" type="curve" smooth="yes"/>
      <point x="61" y="767"/>
      <point x="34" y="740"/>
      <point x="34" y="708" type="curve" smooth="yes"/>
      <point x="34" y="675"/>
      <point x="61" y="648"/>
      <point x="94" y="648" type="curve" smooth="yes"/>
      <point x="127" y="648"/>
      <point x="153" y="675"/>
      <point x="153" y="708" type="curve" smooth="yes"/>
      <point x="153" y="740"/>
      <point x="127" y="767"/>
    </contour>
    <contour>
      <point x="252" y="767" type="curve" smooth="yes"/>
      <point x="219" y="767"/>
      <point x="192" y="740"/>
      <point x="192" y="708" type="curve" smooth="yes"/>
      <point x="192" y="675"/>
      <point x="219" y="648"/>
      <point x="252" y="648" type="curve" smooth="yes"/>
      <point x="285" y="648"/>
      <point x="312" y="675"/>
      <point x="312" y="708" type="curve" smooth="yes"/>
      <point x="312" y="740"/>
      <point x="285" y="767"/>
    </contour>
  </outline>
</glyph>
<glyph name="Icircumflex" format="1">
  <advance width="322"/>
  <unicode hex="00CE"/>
  <outline>
    <contour>
      <point x="47" y="593" type="line"/>
      <point x="110" y="591" type="line"/>
      <point x="110" y="0" type="line"/>
      <point x="220" y="0" type="line"/>
      <point x="220" y="698" type="line"/>
      <point x="47" y="698" type="line"/>
    </contour>
    <contour>
      <point x="287" y="643" type="line"/>
      <point x="159" y="770" type="line"/>
      <point x="27" y="642" type="line"/>
      <point x="79" y="591" type="line"/>
      <point x="159" y="673" type="line"/>
      <point x="234" y="592" type="line"/>
    </contour>
  </outline>
</glyph>
<glyph name="Ntilde" format="1">
  <advance width="617"/>
  <unicode hex="00D1"/>
  <outline>
    <contour>
      <point x="568" y="698" type="line"/>
      <point x="457" y="698" type="line"/>
      <point x="457" y="230" type="line"/>
      <point x="186" y="698" type="line"/>
      <point x="76" y="698" type="line"/>
      <point x="76" y="0" type="line"/>
      <point x="186" y="0" type="line"/>
      <point x="186" y="472" type="line"/>
      <point x="457" y="0" type="line"/>
      <point x="568" y="0" type="line"/>
    </contour>
    <contour>
      <point x="231" y="708" type="line"/>
      <point x="231" y="700" type="line" smooth="yes"/>
      <point x="231" y="688"/>
      <point x="231" y="672"/>
      <point x="217" y="672" type="curve" smooth="yes"/>
      <point x="209" y="672"/>
      <point x="196" y="680"/>
      <point x="189" y="684" type="curve" smooth="yes"/>
      <point x="175" y="692"/>
      <point x="170" y="696"/>
      <point x="158" y="702" type="curve" smooth="yes"/>
      <point x="137" y="712"/>
      <point x="114" y="715"/>
      <point x="91" y="708" type="curve" smooth="yes"/>
      <point x="51" y="696"/>
      <point x="37" y="658"/>
      <point x="37" y="619" type="curve" smooth="yes"/>
      <point x="37" y="611" type="line"/>
      <point x="104" y="611" type="line"/>
      <point x="104" y="619" type="line" smooth="yes"/>
      <point x="104" y="632"/>
      <point x="103" y="645"/>
      <point x="119" y="645" type="curve" smooth="yes"/>
      <point x="126" y="645"/>
      <point x="136" y="641"/>
      <point x="145" y="635" type="curve" smooth="yes"/>
      <point x="151" y="631"/>
      <point x="172" y="618"/>
      <point x="178" y="615" type="curve"/>
      <point x="190" y="610"/>
      <point x="203" y="605"/>
      <point x="216" y="605" type="curve" smooth="yes"/>
      <point x="271" y="605"/>
      <point x="298" y="649"/>
      <point x="298" y="700" type="curve" smooth="yes"/>
      <point x="298" y="708" type="line"/>
    </contour>
  </outline>
</glyph>
<glyph name="Ocircumflex" format="1">
  <advance width="534"/>
  <unicode hex="00D4"/>
  <outline>
    <contour>
      <point x="70" y="506" type="curve" smooth="yes"/>
      <point x="70" y="185" type="line" smooth="yes"/>
      <point x="70" y="56"/>
      <point x="162" y="-11"/>
      <point x="281" y="-11" type="curve" smooth="yes"/>
      <point x="406" y="-11"/>
      <point x="490" y="63"/>
      <point x="490" y="185" type="curve" smooth="yes"/>
      <point x="490" y="505" type="line" smooth="yes"/>
      <point x="490" y="636"/>
      <point x="414" y="715"/>
      <point x="282" y="715" type="curve" smooth="yes"/>
      <point x="150" y="715"/>
      <point x="70" y="642"/>
    </contour>
    <contour>
      <point x="180" y="204" type="curve" smooth="yes"/>
      <point x="180" y="470" type="line" smooth="yes"/>
      <point x="180" y="557"/>
      <point x="210" y="598"/>
      <point x="280" y="598" type="curve" smooth="yes"/>
      <point x="357" y="598"/>
      <point x="380" y="554"/>
      <point x="380" y="469" type="curve" smooth="yes"/>
      <point x="380" y="206" type="line" smooth="yes"/>
      <point x="380" y="143"/>
      <point x="343" y="101"/>
      <point x="280" y="101" type="curve" smooth="yes"/>
      <point x="213" y="101"/>
      <point x="180" y="140"/>
    </contour>
    <contour>
      <point x="297" y="643" type="line"/>
      <point x="169" y="770" type="line"/>
      <point x="37" y="642" type="line"/>
      <point x="89" y="591" type="line"/>
      <point x="169" y="673" type="line"/>
      <point x="244" y="592" type="line"/>
    </contour>
  </outline>
</glyph>
<glyph name="multiply" format="1">
  <advance width="391"/>
  <unicode hex="00D7"/>
  <outline>
    <contour>
      <point x="195" y="404" type="line"/>
      <point x="109" y="507" type="line"/>
      <point x="38" y="447" type="line"/>
      <point x="136" y="332" type="line"/>
      <point x="41" y="218" type="line"/>
      <point x="109" y="156" type="line"/>
      <point x="195" y="260" type="line"/>
      <point x="282" y="157" type="line"/>
      <point x="352" y="218" type="line"/>
      <point x="255" y="332" type="line"/>
      <point x="353" y="450" type="line"/>
      <point x="281" y="508" type="line"/>
    </contour>
  </outline>
</glyph>
<glyph name="Uacute" format="1">
  <advance width="516"/>
  <unicode hex="00DA"/>
  <outline>
    <contour>
      <point x="468" y="185" type="curve" smooth="yes"/>
      <point x="468" y="698" type="line"/>
      <point x="358" y="698" type="line"/>
      <point x="358" y="206" type="line" smooth="yes"/>
      <point x="358" y="172"/>
      <point x="347" y="144"/>
      <point x="328" y="127" type="curve"/>
      <point x="311" y="110"/>
      <point x="287" y="101"/>
      <point x="258" y="101" type="curve" smooth="yes"/>
      <point x="228" y="101"/>
      <point x="205" y="108"/>
      <point x="190" y="122" type="curve" smooth="yes"/>
      <point x="169" y="140"/>
      <point x="158" y="168"/>
      <point x="158" y="204" type="curve" smooth="yes"/>
      <point x="158" y="698" type="line"/>
      <point x="48" y="698" type="line"/>
      <point x="48" y="185" type="line" smooth="yes"/>
      <point x="48" y="118"/>
      <point x="70" y="68"/>
      <point x="110" y="36" type="curve" smooth="yes"/>
      <point x="152" y="5"/>
      <point x="202" y="-11"/>
      <point x="259" y="-11" type="curve" smooth="yes"/>
      <point x="316" y="-11"/>
      <point x="366" y="5"/>
      <point x="406" y="36" type="curve" smooth="yes"/>
      <point x="447" y="68"/>
      <point x="468" y="118"/>
    </contour>
    <contour>
      <point x="216" y="671" type="line" smooth="yes"/>
      <point x="234" y="693"/>
      <point x="234" y="727"/>
      <point x="209" y="741" type="curve" smooth="yes"/>
      <point x="183" y="757"/>
      <point x="151" y="738"/>
      <point x="144" y="712" type="curve" smooth="yes"/>
      <point x="114" y="596" type="line"/>
      <point x="158" y="596" type="line"/>
    </contour>
  </outline>
</glyph>
<glyph name="Ucircumflex" format="1">
  <advance width="540"/>
  <unicode hex="00DB"/>
  <outline>
    <contour>
      <point x="492" y="185" type="curve" smooth="yes"/>
      <point x="492" y="698" type="line"/>
      <point x="382" y="698" type="line"/>
      <point x="382" y="206" type="line" smooth="yes"/>
      <point x="382" y="172"/>
      <point x="371" y="144"/>
      <point x="352" y="127" type="curve"/>
      <point x="335" y="110"/>
      <point x="311" y="101"/>
      <point x="282" y="101" type="curve" smooth="yes"/>
      <point x="252" y="101"/>
      <point x="229" y="108"/>
      <point x="214" y="122" type="curve" smooth="yes"/>
      <point x="193" y="140"/>
      <point x="182" y="168"/>
      <point x="182" y="204" type="curve" smooth="yes"/>
      <point x="182" y="698" type="line"/>
      <point x="72" y="698" type="line"/>
      <point x="72" y="185" type="line" smooth="yes"/>
      <point x="72" y="118"/>
      <point x="94" y="68"/>
      <point x="134" y="36" type="curve" smooth="yes"/>
      <point x="176" y="5"/>
      <point x="226" y="-11"/>
      <point x="283" y="-11" type="curve" smooth="yes"/>
      <point x="340" y="-11"/>
      <point x="390" y="5"/>
      <point x="430" y="36" type="curve" smooth="yes"/>
      <point x="471" y="68"/>
      <point x="492" y="118"/>
    </contour>
    <contour>
      <point x="296" y="643" type="line"/>
      <point x="168" y="770" type="line"/>
      <point x="36" y="642" type="line"/>
      <point x="88" y="591" type="line"/>
      <point x="168" y="673" type="line"/>
      <point x="243" y="592" type="line"/>
    </contour>
  </outline>
</glyph>
<glyph name="germandbls" format="1">
  <advance width="532"/>
  <unicode hex="00DF"/>
  <outline>
    <contour>
      <point x="158" y="0" type="curve"/>
      <point x="158" y="505" type="line" smooth="yes"/>
      <point x="158" y="565"/>
      <point x="178" y="595"/>
      <point x="218" y="595" type="curve" smooth="yes"/>
      <point x="247" y="595"/>
      <point x="261" y="576"/>
      <point x="261" y="555" type="curve" smooth="yes"/>
      <point x="261" y="532"/>
      <point x="243" y="506"/>
      <point x="210" y="506" type="curve"/>
      <point x="195" y="482"/>
      <point x="189" y="460"/>
      <point x="189" y="439" type="curve" smooth="yes"/>
      <point x="189" y="358"/>
      <point x="279" y="298"/>
      <point x="333" y="243" type="curve" smooth="yes"/>
      <point x="365" y="209"/>
      <point x="379" y="178"/>
      <point x="379" y="152" type="curve" smooth="yes"/>
      <point x="379" y="116"/>
      <point x="350" y="94"/>
      <point x="318" y="94" type="curve" smooth="yes"/>
      <point x="292" y="94"/>
      <point x="260" y="107"/>
      <point x="227" y="137" type="curve"/>
      <point x="211" y="103"/>
      <point x="195" y="71"/>
      <point x="179" y="37" type="curve"/>
      <point x="216" y="7"/>
      <point x="266" y="-12"/>
      <point x="321" y="-12" type="curve" smooth="yes"/>
      <point x="418" y="-12"/>
      <point x="495" y="53"/>
      <point x="495" y="148" type="curve" smooth="yes"/>
      <point x="495" y="205"/>
      <point x="471" y="251"/>
      <point x="437" y="288" type="curve" smooth="yes"/>
      <point x="387" y="345"/>
      <point x="302" y="393"/>
      <point x="302" y="444" type="curve" smooth="yes"/>
      <point x="302" y="455"/>
      <point x="306" y="465"/>
      <point x="313" y="476" type="curve"/>
      <point x="314" y="476"/>
      <point x="333" y="476"/>
      <point x="333" y="476" type="curve"/>
      <point x="370" y="515"/>
      <point x="376" y="568"/>
      <point x="362" y="610" type="curve" smooth="yes"/>
      <point x="343" y="667"/>
      <point x="277" y="700"/>
      <point x="209" y="700" type="curve" smooth="yes"/>
      <point x="128" y="698"/>
      <point x="48" y="651"/>
      <point x="48" y="536" type="curve" smooth="yes"/>
      <point x="48" y="358"/>
      <point x="48" y="178"/>
      <point x="48" y="0" type="curve"/>
      <point x="84" y="0"/>
      <point x="122" y="0"/>
    </contour>
  </outline>
</glyph>
<glyph name="agrave" format="1">
  <advance width="470"/>
  <unicode hex="00E0"/>
  <outline>
    <contour>
      <point x="318" y="334" type="curve"/>
      <point x="287" y="378"/>
      <point x="224" y="400"/>
      <point x="178" y="400" type="curve" smooth="yes"/>
      <point x="105" y="400"/>
      <point x="43" y="354"/>
      <point x="43" y="252" type="curve"/>
      <point x="43" y="252"/>
      <point x="43" y="155"/>
      <point x="43" y="155" type="curve"/>
      <point x="47" y="28"/>
      <point x="134" y="-11"/>
      <point x="248" y="-11" type="curve" smooth="yes"/>
      <point x="315" y="-11"/>
      <point x="373" y="-8"/>
      <point x="428" y="0" type="curve"/>
      <point x="428" y="0"/>
      <point x="428" y="194"/>
      <point x="428" y="306" type="curve" smooth="yes"/>
      <point x="428" y="398"/>
      <point x="405" y="442"/>
      <point x="381" y="464" type="curve" smooth="yes"/>
      <point x="337" y="504"/>
      <point x="273" y="508"/>
      <point x="220" y="508" type="curve"/>
      <point x="211" y="433" type="line"/>
      <point x="253" y="433"/>
      <point x="282" y="422"/>
      <point x="299" y="406" type="curve" smooth="yes"/>
      <point x="311" y="395"/>
      <point x="318" y="377"/>
    </contour>
    <contour>
      <point x="318" y="252" type="curve"/>
      <point x="318" y="252"/>
      <point x="318" y="94"/>
      <point x="318" y="94" type="curve"/>
      <point x="318" y="94"/>
      <point x="274" y="90"/>
      <point x="257" y="90" type="curve" smooth="yes"/>
      <point x="167" y="90"/>
      <point x="154" y="123"/>
      <point x="154" y="173" type="curve" smooth="yes"/>
      <point x="154" y="190"/>
      <point x="154" y="218"/>
      <point x="154" y="238" type="curve" smooth="yes"/>
      <point x="154" y="275"/>
      <point x="178" y="287"/>
      <point x="209" y="287" type="curve" smooth="yes"/>
      <point x="255" y="287"/>
      <point x="306" y="260"/>
    </contour>
    <contour>
      <point x="145" y="704" type="line"/>
      <point x="134" y="730"/>
      <point x="106" y="749"/>
      <point x="79" y="734" type="curve" smooth="yes"/>
      <point x="50" y="718"/>
      <point x="55" y="682"/>
      <point x="73" y="663" type="curve"/>
      <point x="131" y="587" type="line"/>
      <point x="175" y="587" type="line"/>
    </contour>
  </outline>
</glyph>
<glyph name="aacute" format="1">
  <advance width="467"/>
  <unicode hex="00E1"/>
  <outline>
    <contour>
      <point x="315" y="334" type="curve"/>
      <point x="284" y="378"/>
      <point x="221" y="400"/>
      <point x="175" y="400" type="curve" smooth="yes"/>
      <point x="102" y="400"/>
      <point x="40" y="354"/>
      <point x="40" y="252" type="curve"/>
      <point x="40" y="252"/>
      <point x="40" y="155"/>
      <point x="40" y="155" type="curve"/>
      <point x="44" y="28"/>
      <point x="131" y="-11"/>
      <point x="245" y="-11" type="curve" smooth="yes"/>
      <point x="312" y="-11"/>
      <point x="370" y="-8"/>
      <point x="425" y="0" type="curve"/>
      <point x="425" y="0"/>
      <point x="425" y="194"/>
      <point x="425" y="306" type="curve" smooth="yes"/>
      <point x="425" y="398"/>
      <point x="402" y="442"/>
      <point x="378" y="464" type="curve" smooth="yes"/>
      <point x="334" y="504"/>
      <point x="270" y="508"/>
      <point x="217" y="508" type="curve"/>
      <point x="208" y="433" type="line"/>
      <point x="250" y="433"/>
      <point x="279" y="422"/>
      <point x="296" y="406" type="curve" smooth="yes"/>
      <point x="308" y="395"/>
      <point x="315" y="377"/>
    </contour>
    <contour>
      <point x="315" y="252" type="curve"/>
      <point x="315" y="252"/>
      <point x="315" y="94"/>
      <point x="315" y="94" type="curve"/>
      <point x="315" y="94"/>
      <point x="271" y="90"/>
      <point x="254" y="90" type="curve" smooth="yes"/>
      <point x="164" y="90"/>
      <point x="151" y="123"/>
      <point x="151" y="173" type="curve" smooth="yes"/>
      <point x="151" y="190"/>
      <point x="151" y="218"/>
      <point x="151" y="238" type="curve" smooth="yes"/>
      <point x="151" y="275"/>
      <point x="175" y="287"/>
      <point x="206" y="287" type="curve" smooth="yes"/>
      <point x="252" y="287"/>
      <point x="303" y="260"/>
    </contour>
    <contour>
      <point x="218" y="671" type="line" smooth="yes"/>
      <point x="236" y="693"/>
      <point x="236" y="727"/>
      <point x="211" y="741" type="curve" smooth="yes"/>
      <point x="185" y="757"/>
      <point x="153" y="738"/>
      <point x="146" y="712" type="curve" smooth="yes"/>
      <point x="116" y="596" type="line"/>
      <point x="160" y="596" type="line"/>
    </contour>
  </outline>
</glyph>
<glyph name="atilde" format="1">
  <advance width="491"/>
  <unicode hex="00E3"/>
  <outline>
    <contour>
      <point x="339" y="334" type="curve"/>
      <point x="308" y="378"/>
      <point x="245" y="400"/>
      <point x="199" y="400" type="curve" smooth="yes"/>
      <point x="126" y="400"/>
      <point x="64" y="354"/>
      <point x="64" y="252" type="curve"/>
      <point x="64" y="252"/>
      <point x="64" y="155"/>
      <point x="64" y="155" type="curve"/>
      <point x="68" y="28"/>
      <point x="155" y="-11"/>
      <point x="269" y="-11" type="curve" smooth="yes"/>
      <point x="336" y="-11"/>
      <point x="394" y="-8"/>
      <point x="449" y="0" type="curve"/>
      <point x="449" y="0"/>
      <point x="449" y="194"/>
      <point x="449" y="306" type="curve" smooth="yes"/>
      <point x="449" y="398"/>
      <point x="426" y="442"/>
      <point x="402" y="464" type="curve" smooth="yes"/>
      <point x="358" y="504"/>
      <point x="294" y="508"/>
      <point x="241" y="508" type="curve"/>
      <point x="232" y="433" type="line"/>
      <point x="274" y="433"/>
      <point x="303" y="422"/>
      <point x="320" y="406" type="curve" smooth="yes"/>
      <point x="332" y="395"/>
      <point x="339" y="377"/>
    </contour>
    <contour>
      <point x="339" y="252" type="curve"/>
      <point x="339" y="252"/>
      <point x="339" y="94"/>
      <point x="339" y="94" type="curve"/>
      <point x="339" y="94"/>
      <point x="295" y="90"/>
      <point x="278" y="90" type="curve" smooth="yes"/>
      <point x="188" y="90"/>
      <point x="175" y="123"/>
      <point x="175" y="173" type="curve" smooth="yes"/>
      <point x="175" y="190"/>
      <point x="175" y="218"/>
      <point x="175" y="238" type="curve" smooth="yes"/>
      <point x="175" y="275"/>
      <point x="199" y="287"/>
      <point x="230" y="287" type="curve" smooth="yes"/>
      <point x="276" y="287"/>
      <point x="327" y="260"/>
    </contour>
    <contour>
      <point x="231" y="708" type="line"/>
      <point x="231" y="700" type="line" smooth="yes"/>
      <point x="231" y="688"/>
      <point x="231" y="672"/>
      <point x="217" y="672" type="curve" smooth="yes"/>
      <point x="209" y="672"/>
      <point x="196" y="680"/>
      <point x="189" y="684" type="curve" smooth="yes"/>
      <point x="175" y="692"/>
      <point x="170" y="696"/>
      <point x="158" y="702" type="curve" smooth="yes"/>
      <point x="137" y="712"/>
      <point x="114" y="715"/>
      <point x="91" y="708" type="curve" smooth="yes"/>
      <point x="51" y="696"/>
      <point x="37" y="658"/>
      <point x="37" y="619" type="curve" smooth="yes"/>
      <point x="37" y="611" type="line"/>
      <point x="104" y="611" type="line"/>
      <point x="104" y="619" type="line" smooth="yes"/>
      <point x="104" y="632"/>
      <point x="103" y="645"/>
      <point x="119" y="645" type="curve" smooth="yes"/>
      <point x="126" y="645"/>
      <point x="136" y="641"/>
      <point x="145" y="635" type="curve" smooth="yes"/>
      <point x="151" y="631"/>
      <point x="172" y="618"/>
      <point x="178" y="615" type="curve"/>
      <point x="190" y="610"/>
      <point x="203" y="605"/>
      <point x="216" y="605" type="curve" smooth="yes"/>
      <point x="271" y="605"/>
      <point x="298" y="649"/>
      <point x="298" y="700" type="curve" smooth="yes"/>
      <point x="298" y="708" type="line"/>
    </contour>
  </outline>
</glyph>
<glyph name="aring" format="1">
  <advance width="479"/>
  <unicode hex="00E5"/>
  <outline>
    <contour>
      <point x="327" y="334" type="curve"/>
      <point x="296" y="378"/>
      <point x="233" y="400"/>
      <point x="187" y="400" type="curve" smooth="yes"/>
      <point x="114" y="400"/>
      <point x="52" y="354"/>
      <point x="52" y="252" type="curve"/>
      <point x="52" y="252"/>
      <point x="52" y="155"/>
      <point x="52" y="155" type="curve"/>
      <point x="56" y="28"/>
      <point x="143" y="-11"/>
      <point x="257" y="-11" type="curve" smooth="yes"/>
      <point x="324" y="-11"/>
      <point x="382" y="-8"/>
      <point x="437" y="0" type="curve"/>
      <point x="437" y="0"/>
      <point x="437" y="194"/>
      <point x="437" y="306" type="curve" smooth="yes"/>
      <point x="437" y="398"/>
      <point x="414" y="442"/>
      <point x="390" y="464" type="curve" smooth="yes"/>
      <point x="346" y="504"/>
      <point x="282" y="508"/>
      <point x="229" y="508" type="curve"/>
      <point x="220" y="433" type="line"/>
      <point x="262" y="433"/>
      <point x="291" y="422"/>
      <point x="308" y="406" type="curve" smooth="yes"/>
      <point x="320" y="395"/>
      <point x="327" y="377"/>
    </contour>
    <contour>
      <point x="327" y="252" type="curve"/>
      <point x="327" y="252"/>
      <point x="327" y="94"/>
      <point x="327" y="94" type="curve"/>
      <point x="327" y="94"/>
      <point x="283" y="90"/>
      <point x="266" y="90" type="curve" smooth="yes"/>
      <point x="176" y="90"/>
      <point x="163" y="123"/>
      <point x="163" y="173" type="curve" smooth="yes"/>
      <point x="163" y="190"/>
      <point x="163" y="218"/>
      <point x="163" y="238" type="curve" smooth="yes"/>
      <point x="163" y="275"/>
      <point x="187" y="287"/>
      <point x="218" y="287" type="curve" smooth="yes"/>
      <point x="264" y="287"/>
      <point x="315" y="260"/>
    </contour>
    <contour>
      <point x="156" y="774" type="curve" smooth="yes"/>
      <point x="93" y="774"/>
      <point x="42" y="724"/>
      <point x="42" y="661" type="curve" smooth="yes"/>
      <point x="42" y="598"/>
      <point x="93" y="547"/>
      <point x="156" y="547" type="curve" smooth="yes"/>
      <point x="219" y="547"/>
      <point x="270" y="598"/>
      <point x="270" y="661" type="curve" smooth="yes"/>
      <point x="270" y="724"/>
      <point x="219" y="774"/>
    </contour>
    <contour>
      <point x="156" y="692" type="curve" smooth="yes"/>
      <point x="173" y="692"/>
      <point x="187" y="678"/>
      <point x="187" y="661" type="curve" smooth="yes"/>
      <point x="187" y="642"/>
      <point x="173" y="629"/>
      <point x="156" y="629" type="curve" smooth="yes"/>
      <point x="140" y="629"/>
      <point x="125" y="642"/>
      <point x="125" y="661" type="curve" smooth="yes"/>
      <point x="125" y="678"/>
      <point x="140" y="692"/>
    </contour>
  </outline>
</glyph>
<glyph name="ae" format="1">
  <advance width="716"/>
  <unicode hex="00E6"/>
  <outline>
    <contour>
      <point x="429" y="150" type="curve" smooth="yes"/>
      <point x="429" y="174" type="line"/>
      <point x="677" y="187" type="line"/>
      <point x="677" y="343" type="line" smooth="yes"/>
      <point x="677" y="450"/>
      <point x="599" y="510"/>
      <point x="501" y="510" type="curve" smooth="yes"/>
      <point x="452" y="510"/>
      <point x="409" y="497"/>
      <point x="371" y="469" type="curve"/>
      <point x="327" y="504"/>
      <point x="267" y="508"/>
      <point x="216" y="508" type="curve"/>
      <point x="213" y="483"/>
      <point x="211" y="459"/>
      <point x="207" y="433" type="curve"/>
      <point x="284" y="431"/>
      <point x="314" y="408"/>
      <point x="314" y="334" type="curve"/>
      <point x="283" y="378"/>
      <point x="221" y="400"/>
      <point x="174" y="400" type="curve" smooth="yes"/>
      <point x="101" y="400"/>
      <point x="39" y="354"/>
      <point x="39" y="252" type="curve" smooth="yes"/>
      <point x="39" y="155" type="line" smooth="yes"/>
      <point x="45" y="28"/>
      <point x="132" y="-11"/>
      <point x="245" y="-11" type="curve" smooth="yes"/>
      <point x="306" y="-11"/>
      <point x="360" y="-9"/>
      <point x="412" y="-2" type="curve"/>
      <point x="412" y="13" type="line"/>
      <point x="427" y="0"/>
      <point x="464" y="-12"/>
      <point x="498" y="-12" type="curve" smooth="yes"/>
      <point x="558" y="-12"/>
      <point x="606" y="7"/>
      <point x="652" y="36" type="curve"/>
      <point x="612" y="131" type="line"/>
      <point x="569" y="109"/>
      <point x="521" y="91"/>
      <point x="486" y="91" type="curve" smooth="yes"/>
      <point x="447" y="91"/>
      <point x="429" y="117"/>
    </contour>
    <contour>
      <point x="314" y="252" type="curve"/>
      <point x="314" y="94" type="line"/>
      <point x="314" y="94"/>
      <point x="270" y="90"/>
      <point x="254" y="90" type="curve" smooth="yes"/>
      <point x="163" y="90"/>
      <point x="150" y="123"/>
      <point x="150" y="173" type="curve" smooth="yes"/>
      <point x="150" y="238" type="line" smooth="yes"/>
      <point x="150" y="275"/>
      <point x="174" y="287"/>
      <point x="205" y="287" type="curve" smooth="yes"/>
      <point x="253" y="287"/>
      <point x="302" y="260"/>
    </contour>
    <contour>
      <point x="567" y="323" type="curve" smooth="yes"/>
      <point x="567" y="284" type="line"/>
      <point x="429" y="275" type="line"/>
      <point x="429" y="326" type="line" smooth="yes"/>
      <point x="429" y="380"/>
      <point x="451" y="403"/>
      <point x="500" y="405" type="curve" smooth="yes"/>
      <point x="555" y="405"/>
      <point x="567" y="367"/>
    </contour>
  </outline>
</glyph>
<glyph name="ccedilla" format="1">
  <advance width="402"/>
  <unicode hex="00E7"/>
  <outline>
    <contour>
      <point x="336" y="392" type="curve"/>
      <point x="361" y="477" type="line"/>
      <point x="303" y="503"/>
      <point x="239" y="518"/>
      <point x="179" y="505" type="curve" smooth="yes"/>
      <point x="134" y="495"/>
      <point x="95" y="471"/>
      <point x="69" y="427" type="curve" smooth="yes"/>
      <point x="50" y="395"/>
      <point x="43" y="363"/>
      <point x="41" y="319" type="curve"/>
      <point x="41" y="173" type="line" smooth="yes"/>
      <point x="41" y="75"/>
      <point x="85" y="23"/>
      <point x="153" y="1" type="curve" smooth="yes"/>
      <point x="223" y="-20"/>
      <point x="297" y="-12"/>
      <point x="363" y="5" type="curve"/>
      <point x="343" y="94" type="line"/>
      <point x="343" y="94"/>
      <point x="297" y="84"/>
      <point x="254" y="84" type="curve" smooth="yes"/>
      <point x="192" y="84"/>
      <point x="150" y="113"/>
      <point x="150" y="174" type="curve" smooth="yes"/>
      <point x="150" y="331" type="line" smooth="yes"/>
      <point x="150" y="351"/>
      <point x="156" y="367"/>
      <point x="163" y="380" type="curve"/>
      <point x="175" y="398"/>
      <point x="196" y="409"/>
      <point x="219" y="413" type="curve" smooth="yes"/>
      <point x="258" y="420"/>
      <point x="301" y="408"/>
    </contour>
    <contour>
      <point x="182" y="0" type="line"/>
      <point x="116" y="0" type="line"/>
      <point x="70" y="-75" type="line"/>
      <point x="88" y="-114" type="line"/>
      <point x="129" y="-111"/>
      <point x="158" y="-107"/>
      <point x="178" y="-107" type="curve" smooth="yes"/>
      <point x="203" y="-107"/>
      <point x="213" y="-120"/>
      <point x="213" y="-138" type="curve" smooth="yes"/>
      <point x="213" y="-155"/>
      <point x="202" y="-168"/>
      <point x="174" y="-168" type="curve" smooth="yes"/>
      <point x="131" y="-168"/>
      <point x="75" y="-158"/>
      <point x="74" y="-158" type="curve"/>
      <point x="69" y="-187"/>
      <point x="66" y="-196"/>
      <point x="61" y="-223" type="curve"/>
      <point x="63" y="-224"/>
      <point x="115" y="-235"/>
      <point x="163" y="-235" type="curve" smooth="yes"/>
      <point x="245" y="-235"/>
      <point x="280" y="-193"/>
      <point x="280" y="-133" type="curve" smooth="yes"/>
      <point x="280" y="-86"/>
      <point x="246" y="-40"/>
      <point x="185" y="-40" type="curve" smooth="yes"/>
      <point x="181" y="-40"/>
      <point x="176" y="-41"/>
      <point x="158" y="-42" type="curve"/>
    </contour>
  </outline>
</glyph>
<glyph name="egrave" format="1">
  <advance width="445"/>
  <unicode hex="00E8"/>
  <outline>
    <contour>
      <point x="157" y="148" type="curve" smooth="yes"/>
      <point x="157" y="173" type="line"/>
      <point x="406" y="186" type="line"/>
      <point x="406" y="342" type="line" smooth="yes"/>
      <point x="406" y="402"/>
      <point x="384" y="449"/>
      <point x="345" y="477" type="curve" smooth="yes"/>
      <point x="316" y="498"/>
      <point x="277" y="509"/>
      <point x="230" y="509" type="curve" smooth="yes"/>
      <point x="179" y="509"/>
      <point x="137" y="496"/>
      <point x="106" y="472" type="curve" smooth="yes"/>
      <point x="68" y="442"/>
      <point x="46" y="397"/>
      <point x="46" y="339" type="curve" smooth="yes"/>
      <point x="46" y="134" type="line" smooth="yes"/>
      <point x="46" y="80"/>
      <point x="66" y="43"/>
      <point x="96" y="20" type="curve" smooth="yes"/>
      <point x="127" y="-3"/>
      <point x="167" y="-13"/>
      <point x="211" y="-13" type="curve" smooth="yes"/>
      <point x="271" y="-13"/>
      <point x="334" y="5"/>
      <point x="381" y="35" type="curve"/>
      <point x="341" y="130" type="line"/>
      <point x="298" y="108"/>
      <point x="250" y="90"/>
      <point x="214" y="90" type="curve" smooth="yes"/>
      <point x="195" y="90"/>
      <point x="182" y="95"/>
      <point x="172" y="106" type="curve" smooth="yes"/>
      <point x="162" y="116"/>
      <point x="157" y="129"/>
    </contour>
    <contour>
      <point x="295" y="312" type="curve" smooth="yes"/>
      <point x="295" y="305"/>
      <point x="295" y="289"/>
      <point x="295" y="283" type="curve"/>
      <point x="157" y="274" type="line"/>
      <point x="157" y="284"/>
      <point x="157" y="304"/>
      <point x="157" y="313" type="curve" smooth="yes"/>
      <point x="157" y="345"/>
      <point x="159" y="367"/>
      <point x="176" y="385" type="curve"/>
      <point x="187" y="395"/>
      <point x="205" y="403"/>
      <point x="229" y="404" type="curve" smooth="yes"/>
      <point x="250" y="404"/>
      <point x="264" y="397"/>
      <point x="274" y="388" type="curve" smooth="yes"/>
      <point x="293" y="371"/>
      <point x="295" y="348"/>
    </contour>
    <contour>
      <point x="144" y="704" type="line"/>
      <point x="133" y="730"/>
      <point x="105" y="749"/>
      <point x="78" y="734" type="curve" smooth="yes"/>
      <point x="49" y="718"/>
      <point x="54" y="682"/>
      <point x="72" y="663" type="curve"/>
      <point x="130" y="587" type="line"/>
      <point x="174" y="587" type="line"/>
    </contour>
  </outline>
</glyph>
<glyph name="ograve" format="1">
  <advance width="452"/>
  <unicode hex="00F2"/>
  <outline>
    <contour>
      <point x="413" y="184" type="curve" smooth="yes"/>
      <point x="413" y="316" type="line" smooth="yes"/>
      <point x="413" y="437"/>
      <point x="347" y="510"/>
      <point x="231" y="510" type="curve" smooth="yes"/>
      <point x="110" y="510"/>
      <point x="44" y="443"/>
      <point x="44" y="316" type="curve" smooth="yes"/>
      <point x="44" y="184" type="line" smooth="yes"/>
      <point x="44" y="82"/>
      <point x="99" y="-10"/>
      <point x="231" y="-10" type="curve" smooth="yes"/>
      <point x="355" y="-10"/>
      <point x="413" y="71"/>
    </contour>
    <contour>
      <point x="300" y="322" type="curve" smooth="yes"/>
      <point x="300" y="176" type="line" smooth="yes"/>
      <point x="300" y="131"/>
      <point x="280" y="98"/>
      <point x="230" y="98" type="curve" smooth="yes"/>
      <point x="177" y="98"/>
      <point x="155" y="135"/>
      <point x="155" y="176" type="curve" smooth="yes"/>
      <point x="155" y="322" type="line" smooth="yes"/>
      <point x="155" y="373"/>
      <point x="182" y="400"/>
      <point x="230" y="400" type="curve" smooth="yes"/>
      <point x="277" y="400"/>
      <point x="300" y="370"/>
    </contour>
    <contour>
      <point x="144" y="704" type="line"/>
      <point x="133" y="730"/>
      <point x="105" y="749"/>
      <point x="78" y="734" type="curve" smooth="yes"/>
      <point x="49" y="718"/>
      <point x="54" y="682"/>
      <point x="72" y="663" type="curve"/>
      <point x="130" y="587" type="line"/>
      <point x="174" y="587" type="line"/>
    </contour>
  </outline>
</glyph>
<glyph name="ugrave" format="1">
  <advance width="461"/>
  <unicode hex="00F9"/>
  <outline>
    <contour>
      <point x="307" y="26" type="curve"/>
      <point x="307" y="0" type="line"/>
      <point x="417" y="0" type="line"/>
      <point x="417" y="501" type="line"/>
      <point x="307" y="501" type="line"/>
      <point x="307" y="175" type="line" smooth="yes"/>
      <point x="307" y="129"/>
      <point x="272" y="94"/>
      <point x="227" y="94" type="curve" smooth="yes"/>
      <point x="187" y="94"/>
      <point x="159" y="124"/>
      <point x="159" y="159" type="curve" smooth="yes"/>
      <point x="159" y="501" type="line"/>
      <point x="48" y="501" type="line"/>
      <point x="48" y="157" type="line" smooth="yes"/>
      <point x="48" y="29"/>
      <point x="130" y="-7"/>
      <point x="208" y="-7" type="curve" smooth="yes"/>
      <point x="250" y="-7"/>
      <point x="294" y="12"/>
    </contour>
    <contour>
      <point x="142" y="704" type="line"/>
      <point x="131" y="730"/>
      <point x="103" y="749"/>
      <point x="76" y="734" type="curve" smooth="yes"/>
      <point x="47" y="718"/>
      <point x="52" y="682"/>
      <point x="70" y="663" type="curve"/>
      <point x="128" y="587" type="line"/>
      <point x="172" y="587" type="line"/>
    </contour>
  </outline>
</glyph>
<glyph name="uacute" format="1">
  <advance width="457"/>
  <unicode hex="00FA"/>
  <outline>
    <contour>
      <point x="303" y="26" type="curve"/>
      <point x="303" y="0" type="line"/>
      <point x="413" y="0" type="line"/>
      <point x="413" y="501" type="line"/>
      <point x="303" y="501" type="line"/>
      <point x="303" y="175" type="line" smooth="yes"/>
      <point x="303" y="129"/>
      <point x="268" y="94"/>
      <point x="223" y="94" type="curve" smooth="yes"/>
      <point x="183" y="94"/>
      <point x="155" y="124"/>
      <point x="155" y="159" type="curve" smooth="yes"/>
      <point x="155" y="501" type="line"/>
      <point x="44" y="501" type="line"/>
      <point x="44" y="157" type="line" smooth="yes"/>
      <point x="44" y="29"/>
      <point x="126" y="-7"/>
      <point x="204" y="-7" type="curve" smooth="yes"/>
      <point x="246" y="-7"/>
      <point x="290" y="12"/>
    </contour>
    <contour>
      <point x="214" y="671" type="line" smooth="yes"/>
      <point x="232" y="693"/>
      <point x="232" y="727"/>
      <point x="207" y="741" type="curve" smooth="yes"/>
      <point x="181" y="757"/>
      <point x="149" y="738"/>
      <point x="142" y="712" type="curve" smooth="yes"/>
      <point x="112" y="596" type="line"/>
      <point x="156" y="596" type="line"/>
    </contour>
  </outline>
</glyph>
<glyph name="thorn" format="1">
  <advance width="463"/>
  <unicode hex="00FE"/>
  <outline>
    <contour>
      <point x="159" y="491" type="curve"/>
      <point x="159" y="700" type="line"/>
      <point x="49" y="700" type="line"/>
      <point x="49" y="0" type="line"/>
      <point x="159" y="0" type="line"/>
      <point x="159" y="139" type="line"/>
      <point x="179" y="124"/>
      <point x="209" y="116"/>
      <point x="242" y="116" type="curve" smooth="yes"/>
      <point x="353" y="116"/>
      <point x="427" y="190"/>
      <point x="427" y="315" type="curve" smooth="yes"/>
      <point x="427" y="430"/>
      <point x="361" y="508"/>
      <point x="237" y="508" type="curve" smooth="yes"/>
      <point x="211" y="508"/>
      <point x="182" y="502"/>
    </contour>
    <contour>
      <point x="242" y="404" type="curve" smooth="yes"/>
      <point x="294" y="404"/>
      <point x="318" y="360"/>
      <point x="318" y="316" type="curve" smooth="yes"/>
      <point x="318" y="248"/>
      <point x="281" y="220"/>
      <point x="242" y="220" type="curve" smooth="yes"/>
      <point x="196" y="220"/>
      <point x="158" y="249"/>
      <point x="158" y="318" type="curve" smooth="yes"/>
      <point x="158" y="369"/>
      <point x="200" y="404"/>
    </contour>
  </outline>
</glyph>
<glyph name="Amacron" format="1">
  <advance width="572"/>
  <unicode hex="0100"/>
  <outline>
    <contour>
      <point x="540" y="0" type="line"/>
      <point x="368" y="698" type="line"/>
      <point x="213" y="698" type="line"/>
      <point x="44" y="0" type="line"/>
      <point x="168" y="0" type="line"/>
      <point x="208" y="183" type="line"/>
      <point x="369" y="183" type="line"/>
      <point x="409" y="0" type="line"/>
    </contour>
    <contour>
      <point x="235" y="300" type="line"/>
      <point x="289" y="515" type="line"/>
      <point x="344" y="300" type="line"/>
    </contour>
    <contour>
      <point x="263" y="708" type="line"/>
      <point x="42" y="708" type="line"/>
      <point x="42" y="618" type="line"/>
      <point x="263" y="618" type="line"/>
    </contour>
  </outline>
</glyph>
<glyph name="amacron" format="1">
  <advance width="477"/>
  <unicode hex="0101"/>
  <outline>
    <contour>
      <point x="325" y="334" type="curve"/>
      <point x="294" y="378"/>
      <point x="231" y="400"/>
      <point x="185" y="400" type="curve" smooth="yes"/>
      <point x="112" y="400"/>
      <point x="50" y="354"/>
      <point x="50" y="252" type="curve"/>
      <point x="50" y="252"/>
      <point x="50" y="155"/>
      <point x="50" y="155" type="curve"/>
      <point x="54" y="28"/>
      <point x="141" y="-11"/>
      <point x="255" y="-11" type="curve" smooth="yes"/>
      <point x="322" y="-11"/>
      <point x="380" y="-8"/>
      <point x="435" y="0" type="curve"/>
      <point x="435" y="0"/>
      <point x="435" y="194"/>
      <point x="435" y="306" type="curve" smooth="yes"/>
      <point x="435" y="398"/>
      <point x="412" y="442"/>
      <point x="388" y="464" type="curve" smooth="yes"/>
      <point x="344" y="504"/>
      <point x="280" y="508"/>
      <point x="227" y="508" type="curve"/>
      <point x="218" y="433" type="line"/>
      <point x="260" y="433"/>
      <point x="289" y="422"/>
      <point x="306" y="406" type="curve" smooth="yes"/>
      <point x="318" y="395"/>
      <point x="325" y="377"/>
    </contour>
    <contour>
      <point x="325" y="252" type="curve"/>
      <point x="325" y="252"/>
      <point x="325" y="94"/>
      <point x="325" y="94" type="curve"/>
      <point x="325" y="94"/>
      <point x="281" y="90"/>
      <point x="264" y="90" type="curve" smooth="yes"/>
      <point x="174" y="90"/>
      <point x="161" y="123"/>
      <point x="161" y="173" type="curve" smooth="yes"/>
      <point x="161" y="190"/>
      <point x="161" y="218"/>
      <point x="161" y="238" type="curve" smooth="yes"/>
      <point x="161" y="275"/>
      <point x="185" y="287"/>
      <point x="216" y="287" type="curve" smooth="yes"/>
      <point x="262" y="287"/>
      <point x="313" y="260"/>
    </contour>
    <contour>
      <point x="264" y="708" type="line"/>
      <point x="43" y="708" type="line"/>
      <point x="43" y="618" type="line"/>
      <point x="264" y="618" type="line"/>
    </contour>
  </outline>
</glyph>
<glyph name="Abreve" format="1">
  <advance width="573"/>
  <unicode hex="0102"/>
  <outline>
    <contour>
      <point x="541" y="0" type="line"/>
      <point x="369" y="698" type="line"/>
      <point x="214" y="698" type="line"/>
      <point x="45" y="0" type="line"/>
      <point x="169" y="0" type="line"/>
      <point x="209" y="183" type="line"/>
      <point x="370" y="183" type="line"/>
      <point x="410" y="0" type="line"/>
    </contour>
    <contour>
      <point x="236" y="300" type="line"/>
      <point x="290" y="515" type="line"/>
      <point x="345" y="300" type="line"/>
    </contour>
    <contour>
      <point x="267" y="705" type="line"/>
      <point x="188" y="705" type="line"/>
      <point x="188" y="698" type="line" smooth="yes"/>
      <point x="188" y="680"/>
      <point x="173" y="664"/>
      <point x="154" y="664" type="curve" smooth="yes"/>
      <point x="135" y="664"/>
      <point x="120" y="680"/>
      <point x="120" y="698" type="curve" smooth="yes"/>
      <point x="120" y="705" type="line"/>
      <point x="40" y="705" type="line"/>
      <point x="40" y="698" type="line" smooth="yes"/>
      <point x="40" y="636"/>
      <point x="91" y="585"/>
      <point x="154" y="585" type="curve" smooth="yes"/>
      <point x="215" y="585"/>
      <point x="267" y="636"/>
      <point x="267" y="698" type="curve" smooth="yes"/>
    </contour>
  </outline>
</glyph>
<glyph name="aogonek" format="1">
  <advance width="488"/>
  <unicode hex="0105"/>
  <outline>
    <contour>
      <point x="336" y="334" type="curve"/>
      <point x="305" y="378"/>
      <point x="242" y="400"/>
      <point x="196" y="400" type="curve" smooth="yes"/>
      <point x="123" y="400"/>
      <point x="61" y="354"/>
      <point x="61" y="252" type="curve"/>
      <point x="61" y="252"/>
      <point x="61" y="155"/>
      <point x="61" y="155" type="curve"/>
      <point x="65" y="28"/>
      <point x="152" y="-11"/>
      <point x="266" y="-11" type="curve" smooth="yes"/>
      <point x="333" y="-11"/>
      <point x="391" y="-8"/>
      <point x="446" y="0" type="curve"/>
      <point x="446" y="0"/>
      <point x="446" y="194"/>
      <point x="446" y="306" type="curve" smooth="yes"/>
      <point x="446" y="398"/>
      <point x="423" y="442"/>
      <point x="399" y="464" type="curve" smooth="yes"/>
      <point x="355" y="504"/>
      <point x="291" y="508"/>
      <point x="238" y="508" type="curve"/>
      <point x="229" y="433" type="line"/>
      <point x="271" y="433"/>
      <point x="300" y="422"/>
      <point x="317" y="406" type="curve" smooth="yes"/>
      <point x="329" y="395"/>
      <point x="336" y="377"/>
    </contour>
    <contour>
      <point x="336" y="252" type="curve"/>
      <point x="336" y="252"/>
      <point x="336" y="94"/>
      <point x="336" y="94" type="curve"/>
      <point x="336" y="94"/>
      <point x="292" y="90"/>
      <point x="275" y="90" type="curve" smooth="yes"/>
      <point x="185" y="90"/>
      <point x="172" y="123"/>
      <point x="172" y="173" type="curve" smooth="yes"/>
      <point x="172" y="190"/>
      <point x="172" y="218"/>
      <point x="172" y="238" type="curve" smooth="yes"/>
      <point x="172" y="275"/>
      <point x="196" y="287"/>
      <point x="227" y="287" type="curve" smooth="yes"/>
      <point x="273" y="287"/>
      <point x="324" y="260"/>
    </contour>
    <contour>
      <point x="215" y="16" type="line"/>
      <point x="125" y="7" type="line"/>
      <point x="125" y="3" type="line"/>
      <point x="70" y="-87" type="line" smooth="yes"/>
      <point x="20" y="-175"/>
      <point x="88" y="-251"/>
      <point x="180" y="-224" type="curve" smooth="yes"/>
      <point x="202" y="-218"/>
      <point x="284" y="-190"/>
      <point x="285" y="-190" type="curve"/>
      <point x="260" y="-118" type="line"/>
      <point x="260" y="-118"/>
      <point x="185" y="-144"/>
      <point x="157" y="-154" type="curve"/>
      <point x="133" y="-164"/>
      <point x="122" y="-142"/>
      <point x="133" y="-123" type="curve"/>
      <point x="215" y="2" type="line"/>
    </contour>
  </outline>
</glyph>
<glyph name="Cacute" format="1">
  <advance width="444"/>
  <unicode hex="0106"/>
  <outline>
    <contour>
      <point x="351" y="582" type="curve"/>
      <point x="381" y="675" type="line"/>
      <point x="334" y="698"/>
      <point x="285" y="710"/>
      <point x="237" y="710" type="curve" smooth="yes"/>
      <point x="126" y="710"/>
      <point x="45" y="640"/>
      <point x="45" y="509" type="curve" smooth="yes"/>
      <point x="45" y="183" type="line" smooth="yes"/>
      <point x="45" y="113"/>
      <point x="68" y="64"/>
      <point x="104" y="32" type="curve" smooth="yes"/>
      <point x="139" y="2"/>
      <point x="188" y="-12"/>
      <point x="242" y="-12" type="curve" smooth="yes"/>
      <point x="293" y="-11"/>
      <point x="348" y="1"/>
      <point x="405" y="23" type="curve"/>
      <point x="389" y="127" type="line"/>
      <point x="377" y="127"/>
      <point x="309" y="100"/>
      <point x="248" y="100" type="curve" smooth="yes"/>
      <point x="188" y="100"/>
      <point x="155" y="123"/>
      <point x="155" y="185" type="curve" smooth="yes"/>
      <point x="155" y="512" type="line" smooth="yes"/>
      <point x="155" y="575"/>
      <point x="191" y="599"/>
      <point x="257" y="599" type="curve" smooth="yes"/>
      <point x="287" y="599"/>
      <point x="324" y="592"/>
    </contour>
    <contour>
      <point x="216" y="671" type="line" smooth="yes"/>
      <point x="234" y="693"/>
      <point x="234" y="727"/>
      <point x="209" y="741" type="curve" smooth="yes"/>
      <point x="183" y="757"/>
      <point x="151" y="738"/>
      <point x="144" y="712" type="curve" smooth="yes"/>
      <point x="114" y="596" type="line"/>
      <point x="158" y="596" type="line"/>
    </contour>
  </outline>
</glyph>
<glyph name="dcaron" format="1">
  <advance width="499"/>
  <unicode hex="010F"/>
  <outline>
    <contour>
      <point x="450" y="0" type="curve"/>
      <point x="450" y="698" type="line"/>
      <point x="340" y="698" type="line"/>
      <point x="340" y="482" type="line"/>
      <point x="297" y="501"/>
      <point x="260" y="508"/>
      <point x="214" y="508" type="curve" smooth="yes"/>
      <point x="140" y="508"/>
      <point x="65" y="461"/>
      <point x="65" y="359" type="curve"/>
      <point x="65" y="359"/>
      <point x="65" y="156"/>
      <point x="65" y="155" type="curve" smooth="yes"/>
      <point x="71" y="25"/>
      <point x="160" y="-11"/>
      <point x="273" y="-11" type="curve" smooth="yes"/>
      <point x="338" y="-11"/>
      <point x="396" y="-8"/>
    </contour>
    <contour>
      <point x="340" y="370" type="curve"/>
      <point x="340" y="370"/>
      <point x="340" y="94"/>
      <point x="340" y="94" type="curve"/>
      <point x="340" y="94"/>
      <point x="296" y="91"/>
      <point x="280" y="91" type="curve" smooth="yes"/>
      <point x="190" y="91"/>
      <point x="176" y="123"/>
      <point x="176" y="174" type="curve" smooth="yes"/>
      <point x="176" y="193"/>
      <point x="176" y="324"/>
      <point x="176" y="345" type="curve" smooth="yes"/>
      <point x="176" y="382"/>
      <point x="215" y="394"/>
      <point x="246" y="394" type="curve" smooth="yes"/>
      <point x="292" y="394"/>
      <point x="328" y="377"/>
    </contour>
    <contour>
      <point x="297" y="716" type="line"/>
      <point x="245" y="768" type="line"/>
      <point x="165" y="686" type="line"/>
      <point x="90" y="767" type="line"/>
      <point x="37" y="715" type="line"/>
      <point x="165" y="588" type="line"/>
    </contour>
  </outline>
</glyph>
<glyph name="Dcroat" format="1">
  <advance width="525"/>
  <unicode hex="0110"/>
  <outline>
    <contour>
      <point x="250" y="700" type="curve" smooth="yes"/>
      <point x="62" y="700" type="line"/>
      <point x="62" y="0" type="line"/>
      <point x="270" y="0" type="line" smooth="yes"/>
      <point x="411" y="0"/>
      <point x="482" y="74"/>
      <point x="482" y="206" type="curve" smooth="yes"/>
      <point x="482" y="473" type="line" smooth="yes"/>
      <point x="482" y="609"/>
      <point x="401" y="700"/>
    </contour>
    <contour>
      <point x="255" y="101" type="curve" smooth="yes"/>
      <point x="172" y="101" type="line"/>
      <point x="172" y="588" type="line"/>
      <point x="260" y="588" type="line" smooth="yes"/>
      <point x="336" y="588"/>
      <point x="372" y="555"/>
      <point x="372" y="483" type="curve" smooth="yes"/>
      <point x="372" y="196" type="line" smooth="yes"/>
      <point x="372" y="156"/>
      <point x="366" y="101"/>
    </contour>
    <contour>
      <point x="264" y="708" type="line"/>
      <point x="43" y="708" type="line"/>
      <point x="43" y="618" type="line"/>
      <point x="264" y="618" type="line"/>
    </contour>
  </outline>
</glyph>
<glyph name="dslash" format="1">
  <advance width="515"/>
  <unicode hex="0111"/>
  <outline>
    <contour>
      <point x="426" y="0" type="curve"/>
      <point x="426" y="536" type="line"/>
      <point x="474" y="536" type="line"/>
      <point x="474" y="639" type="line"/>
      <point x="426" y="639" type="line"/>
      <point x="426" y="698" type="line"/>
      <point x="316" y="698" type="line"/>
      <point x="316" y="639" type="line"/>
      <point x="236" y="639" type="line"/>
      <point x="236" y="536" type="line"/>
      <point x="316" y="536" type="line"/>
      <point x="316" y="482" type="line"/>
      <point x="273" y="501"/>
      <point x="235" y="508"/>
      <point x="190" y="508" type="curve" smooth="yes"/>
      <point x="116" y="508"/>
      <point x="41" y="461"/>
      <point x="41" y="359" type="curve" smooth="yes"/>
      <point x="41" y="155" type="line" smooth="yes"/>
      <point x="47" y="25"/>
      <point x="136" y="-11"/>
      <point x="249" y="-11" type="curve" smooth="yes"/>
      <point x="314" y="-11"/>
      <point x="372" y="-8"/>
    </contour>
    <contour>
      <point x="316" y="370" type="curve"/>
      <point x="316" y="94" type="line"/>
      <point x="316" y="94"/>
      <point x="272" y="91"/>
      <point x="256" y="91" type="curve" smooth="yes"/>
      <point x="166" y="91"/>
      <point x="152" y="123"/>
      <point x="152" y="174" type="curve" smooth="yes"/>
      <point x="152" y="345" type="line" smooth="yes"/>
      <point x="152" y="382"/>
      <point x="191" y="394"/>
      <point x="222" y="394" type="curve" smooth="yes"/>
      <point x="267" y="394"/>
      <point x="304" y="377"/>
    </contour>
  </outline>
</glyph>
<glyph name="Emacron" format="1">
  <advance width="442"/>
  <unicode hex="0112"/>
  <outline>
    <contour>
      <point x="62" y="0" type="line"/>
      <point x="394" y="0" type="line"/>
      <point x="394" y="100" type="line"/>
      <point x="172" y="100" type="line"/>
      <point x="172" y="308" type="line"/>
      <point x="278" y="308" type="line"/>
      <point x="309" y="413" type="line"/>
      <point x="172" y="413" type="line"/>
      <point x="172" y="588" type="line"/>
      <point x="396" y="588" type="line"/>
      <point x="396" y="698" type="line"/>
      <point x="62" y="698" type="line"/>
    </contour>
    <contour>
      <point x="264" y="708" type="line"/>
      <point x="43" y="708" type="line"/>
      <point x="43" y="618" type="line"/>
      <point x="264" y="618" type="line"/>
    </contour>
  </outline>
</glyph>
<glyph name="Edotaccent" format="1">
  <advance width="429"/>
  <unicode hex="0116"/>
  <outline>
    <contour>
      <point x="49" y="0" type="line"/>
      <point x="381" y="0" type="line"/>
      <point x="381" y="100" type="line"/>
      <point x="159" y="100" type="line"/>
      <point x="159" y="308" type="line"/>
      <point x="265" y="308" type="line"/>
      <point x="296" y="413" type="line"/>
      <point x="159" y="413" type="line"/>
      <point x="159" y="588" type="line"/>
      <point x="383" y="588" type="line"/>
      <point x="383" y="698" type="line"/>
      <point x="49" y="698" type="line"/>
    </contour>
    <contour>
      <point x="141" y="774" type="curve" smooth="yes"/>
      <point x="108" y="774"/>
      <point x="81" y="749"/>
      <point x="81" y="716" type="curve" smooth="yes"/>
      <point x="81" y="683"/>
      <point x="108" y="656"/>
      <point x="141" y="656" type="curve" smooth="yes"/>
      <point x="174" y="656"/>
      <point x="200" y="683"/>
      <point x="200" y="716" type="curve" smooth="yes"/>
      <point x="200" y="749"/>
      <point x="174" y="774"/>
    </contour>
  </outline>
</glyph>
<glyph name="Eogonek" format="1">
  <advance width="457"/>
  <unicode hex="0118"/>
  <outline>
    <contour>
      <point x="77" y="0" type="line"/>
      <point x="409" y="0" type="line"/>
      <point x="409" y="100" type="line"/>
      <point x="187" y="100" type="line"/>
      <point x="187" y="308" type="line"/>
      <point x="293" y="308" type="line"/>
      <point x="324" y="413" type="line"/>
      <point x="187" y="413" type="line"/>
      <point x="187" y="588" type="line"/>
      <point x="411" y="588" type="line"/>
      <point x="411" y="698" type="line"/>
      <point x="77" y="698" type="line"/>
    </contour>
    <contour>
      <point x="219" y="16" type="line"/>
      <point x="129" y="7" type="line"/>
      <point x="129" y="3" type="line"/>
      <point x="74" y="-87" type="line" smooth="yes"/>
      <point x="24" y="-175"/>
      <point x="92" y="-251"/>
      <point x="184" y="-224" type="curve" smooth="yes"/>
      <point x="206" y="-218"/>
      <point x="288" y="-190"/>
      <point x="289" y="-190" type="curve"/>
      <point x="264" y="-118" type="line"/>
      <point x="264" y="-118"/>
      <point x="189" y="-144"/>
      <point x="161" y="-154" type="curve"/>
      <point x="137" y="-164"/>
      <point x="126" y="-142"/>
      <point x="137" y="-123" type="curve"/>
      <point x="219" y="2" type="line"/>
    </contour>
  </outline>
</glyph>
<glyph name="Gcircumflex" format="1">
  <advance width="522"/>
  <unicode hex="011C"/>
  <outline>
    <contour>
      <point x="373" y="576" type="curve"/>
      <point x="406" y="675" type="line"/>
      <point x="367" y="695"/>
      <point x="324" y="706"/>
      <point x="276" y="708" type="curve" smooth="yes"/>
      <point x="222" y="708"/>
      <point x="187" y="700"/>
      <point x="157" y="683" type="curve" smooth="yes"/>
      <point x="99" y="648"/>
      <point x="70" y="587"/>
      <point x="70" y="502" type="curve" smooth="yes"/>
      <point x="70" y="189" type="line" smooth="yes"/>
      <point x="70" y="123"/>
      <point x="89" y="73"/>
      <point x="131" y="40" type="curve" smooth="yes"/>
      <point x="172" y="7"/>
      <point x="221" y="-10"/>
      <point x="281" y="-10" type="curve" smooth="yes"/>
      <point x="306" y="-10"/>
      <point x="336" y="-4"/>
      <point x="371" y="8" type="curve"/>
      <point x="376" y="0" type="line"/>
      <point x="481" y="0" type="line"/>
      <point x="481" y="300" type="line"/>
      <point x="279" y="300" type="line"/>
      <point x="314" y="195" type="line"/>
      <point x="371" y="195" type="line"/>
      <point x="371" y="186" type="line" smooth="yes"/>
      <point x="371" y="159"/>
      <point x="363" y="139"/>
      <point x="351" y="125" type="curve" smooth="yes"/>
      <point x="336" y="109"/>
      <point x="312" y="101"/>
      <point x="280" y="101" type="curve" smooth="yes"/>
      <point x="215" y="101"/>
      <point x="180" y="123"/>
      <point x="180" y="187" type="curve" smooth="yes"/>
      <point x="180" y="510" type="line" smooth="yes"/>
      <point x="180" y="549"/>
      <point x="193" y="571"/>
      <point x="217" y="583" type="curve" smooth="yes"/>
      <point x="234" y="591"/>
      <point x="256" y="594"/>
      <point x="282" y="594" type="curve" smooth="yes"/>
      <point x="310" y="594"/>
      <point x="341" y="587"/>
    </contour>
    <contour>
      <point x="297" y="643" type="line"/>
      <point x="169" y="770" type="line"/>
      <point x="37" y="642" type="line"/>
      <point x="89" y="591" type="line"/>
      <point x="169" y="673" type="line"/>
      <point x="244" y="592" type="line"/>
    </contour>
  </outline>
</glyph>
<glyph name="gbreve" format="1">
  <advance width="469"/>
  <unicode hex="011F"/>
  <outline>
    <contour>
      <point x="425" y="-64" type="curve" smooth="yes"/>
      <point x="425" y="499" type="line"/>
      <point x="315" y="499" type="line"/>
      <point x="315" y="477" type="line"/>
      <point x="284" y="498"/>
      <point x="250" y="509"/>
      <point x="213" y="509" type="curve" smooth="yes"/>
      <point x="110" y="509"/>
      <point x="55" y="446"/>
      <point x="55" y="345" type="curve" smooth="yes"/>
      <point x="55" y="176" type="line" smooth="yes"/>
      <point x="55" y="53"/>
      <point x="114" y="-12"/>
      <point x="225" y="-12" type="curve" smooth="yes"/>
      <point x="258" y="-12"/>
      <point x="292" y="-3"/>
      <point x="315" y="12" type="curve"/>
      <point x="315" y="-53" type="line" smooth="yes"/>
      <point x="315" y="-106"/>
      <point x="275" y="-124"/>
      <point x="242" y="-124" type="curve"/>
      <point x="269" y="-210" type="line"/>
      <point x="364" y="-210"/>
      <point x="425" y="-169"/>
    </contour>
    <contour>
      <point x="315" y="386" type="curve"/>
      <point x="315" y="139" type="line" smooth="yes"/>
      <point x="315" y="116"/>
      <point x="289" y="92"/>
      <point x="234" y="88" type="curve"/>
      <point x="187" y="88"/>
      <point x="165" y="120"/>
      <point x="165" y="159" type="curve" smooth="yes"/>
      <point x="165" y="337" type="line" smooth="yes"/>
      <point x="165" y="393"/>
      <point x="200" y="410"/>
      <point x="239" y="410" type="curve" smooth="yes"/>
      <point x="273" y="410"/>
      <point x="315" y="386"/>
    </contour>
    <contour>
      <point x="269" y="705" type="line"/>
      <point x="190" y="705" type="line"/>
      <point x="190" y="698" type="line" smooth="yes"/>
      <point x="190" y="680"/>
      <point x="175" y="664"/>
      <point x="156" y="664" type="curve" smooth="yes"/>
      <point x="137" y="664"/>
      <point x="122" y="680"/>
      <point x="122" y="698" type="curve" smooth="yes"/>
      <point x="122" y="705" type="line"/>
      <point x="42" y="705" type="line"/>
      <point x="42" y="698" type="line" smooth="yes"/>
      <point x="42" y="636"/>
      <point x="93" y="585"/>
      <point x="156" y="585" type="curve" smooth="yes"/>
      <point x="217" y="585"/>
      <point x="269" y="636"/>
      <point x="269" y="698" type="curve" smooth="yes"/>
    </contour>
  </outline>
</glyph>
<glyph name="Gdotaccent" format="1">
  <advance width="497"/>
  <unicode hex="0120"/>
  <outline>
    <contour>
      <point x="348" y="576" type="curve"/>
      <point x="381" y="675" type="line"/>
      <point x="342" y="695"/>
      <point x="299" y="706"/>
      <point x="251" y="708" type="curve" smooth="yes"/>
      <point x="197" y="708"/>
      <point x="162" y="700"/>
      <point x="132" y="683" type="curve" smooth="yes"/>
      <point x="74" y="648"/>
      <point x="45" y="587"/>
      <point x="45" y="502" type="curve" smooth="yes"/>
      <point x="45" y="189" type="line" smooth="yes"/>
      <point x="45" y="123"/>
      <point x="64" y="73"/>
      <point x="106" y="40" type="curve" smooth="yes"/>
      <point x="147" y="7"/>
      <point x="196" y="-10"/>
      <point x="256" y="-10" type="curve" smooth="yes"/>
      <point x="281" y="-10"/>
      <point x="311" y="-4"/>
      <point x="346" y="8" type="curve"/>
      <point x="351" y="0" type="line"/>
      <point x="456" y="0" type="line"/>
      <point x="456" y="300" type="line"/>
      <point x="254" y="300" type="line"/>
      <point x="289" y="195" type="line"/>
      <point x="346" y="195" type="line"/>
      <point x="346" y="186" type="line" smooth="yes"/>
      <point x="346" y="159"/>
      <point x="338" y="139"/>
      <point x="326" y="125" type="curve" smooth="yes"/>
      <point x="311" y="109"/>
      <point x="287" y="101"/>
      <point x="255" y="101" type="curve" smooth="yes"/>
      <point x="190" y="101"/>
      <point x="155" y="123"/>
      <point x="155" y="187" type="curve" smooth="yes"/>
      <point x="155" y="510" type="line" smooth="yes"/>
      <point x="155" y="549"/>
      <point x="168" y="571"/>
      <point x="192" y="583" type="curve" smooth="yes"/>
      <point x="209" y="591"/>
      <point x="231" y="594"/>
      <point x="257" y="594" type="curve" smooth="yes"/>
      <point x="285" y="594"/>
      <point x="316" y="587"/>
    </contour>
    <contour>
      <point x="142" y="774" type="curve" smooth="yes"/>
      <point x="109" y="774"/>
      <point x="82" y="749"/>
      <point x="82" y="716" type="curve" smooth="yes"/>
      <point x="82" y="683"/>
      <point x="109" y="656"/>
      <point x="142" y="656" type="curve" smooth="yes"/>
      <point x="175" y="656"/>
      <point x="201" y="683"/>
      <point x="201" y="716" type="curve" smooth="yes"/>
      <point x="201" y="749"/>
      <point x="175" y="774"/>
    </contour>
  </outline>
</glyph>
<glyph name="Hbar" format="1">
  <advance width="607"/>
  <unicode hex="0126"/>
  <outline>
    <contour>
      <point x="200" y="308" type="line"/>
      <point x="411" y="308" type="line"/>
      <point x="411" y="0" type="line"/>
      <point x="520" y="0" type="line"/>
      <point x="520" y="499" type="line"/>
      <point x="566" y="499" type="line"/>
      <point x="566" y="603" type="line"/>
      <point x="520" y="603" type="line"/>
      <point x="520" y="698" type="line"/>
      <point x="411" y="698" type="line"/>
      <point x="411" y="603" type="line"/>
      <point x="200" y="603" type="line"/>
      <point x="200" y="698" type="line"/>
      <point x="90" y="698" type="line"/>
      <point x="90" y="603" type="line"/>
      <point x="39" y="603" type="line"/>
      <point x="39" y="499" type="line"/>
      <point x="90" y="499" type="line"/>
      <point x="90" y="0" type="line"/>
      <point x="200" y="0" type="line"/>
    </contour>
    <contour>
      <point x="411" y="499" type="line"/>
      <point x="411" y="413" type="line"/>
      <point x="200" y="413" type="line"/>
      <point x="200" y="499" type="line"/>
    </contour>
  </outline>
</glyph>
<glyph name="hbar" format="1">
  <advance width="494"/>
  <unicode hex="0127"/>
  <outline>
    <contour>
      <point x="192" y="476" type="curve"/>
      <point x="192" y="536" type="line"/>
      <point x="274" y="536" type="line"/>
      <point x="274" y="639" type="line"/>
      <point x="192" y="639" type="line"/>
      <point x="192" y="698" type="line"/>
      <point x="83" y="698" type="line"/>
      <point x="83" y="639" type="line"/>
      <point x="39" y="639" type="line"/>
      <point x="39" y="536" type="line"/>
      <point x="83" y="536" type="line"/>
      <point x="83" y="0" type="line"/>
      <point x="192" y="0" type="line"/>
      <point x="192" y="386" type="line"/>
      <point x="223" y="402"/>
      <point x="249" y="409"/>
      <point x="272" y="409" type="curve" smooth="yes"/>
      <point x="318" y="408"/>
      <point x="343" y="380"/>
      <point x="343" y="343" type="curve" smooth="yes"/>
      <point x="343" y="0" type="line"/>
      <point x="452" y="0" type="line"/>
      <point x="452" y="345" type="line" smooth="yes"/>
      <point x="452" y="473"/>
      <point x="371" y="509"/>
      <point x="292" y="509" type="curve" smooth="yes"/>
      <point x="251" y="509"/>
      <point x="210" y="488"/>
    </contour>
  </outline>
</glyph>
<glyph name="Iogonek" format="1">
  <advance width="306"/>
  <unicode hex="012E"/>
  <outline>
    <contour>
      <point x="53" y="593" type="line"/>
      <point x="116" y="591" type="line"/>
      <point x="116" y="0" type="line"/>
      <point x="226" y="0" type="line"/>
      <point x="226" y="698" type="line"/>
      <point x="53" y="698" type="line"/>
    </contour>
    <contour>
      <point x="213" y="16" type="line"/>
      <point x="123" y="7" type="line"/>
      <point x="123" y="3" type="line"/>
      <point x="68" y="-87" type="line" smooth="yes"/>
      <point x="18" y="-175"/>
      <point x="86" y="-251"/>
      <point x="178" y="-224" type="curve" smooth="yes"/>
      <point x="200" y="-218"/>
      <point x="282" y="-190"/>
      <point x="283" y="-190" type="curve"/>
      <point x="258" y="-118" type="line"/>
      <point x="258" y="-118"/>
      <point x="183" y="-144"/>
      <point x="155" y="-154" type="curve"/>
      <point x="131" y="-164"/>
      <point x="120" y="-142"/>
      <point x="131" y="-123" type="curve"/>
      <point x="213" y="2" type="line"/>
    </contour>
  </outline>
</glyph>
<glyph name="Idotaccent" format="1">
  <advance width="255"/>
  <unicode hex="0130"/>
  <outline>
    <contour>
      <point x="33" y="593" type="line"/>
      <point x="96" y="591" type="line"/>
      <point x="96" y="0" type="line"/>
      <point x="206" y="0" type="line"/>
      <point x="206" y="698" type="line"/>
      <point x="33" y="698" type="line"/>
    </contour>
    <contour>
      <point x="143" y="774" type="curve" smooth="yes"/>
      <point x="110" y="774"/>
      <point x="83" y="749"/>
      <point x="83" y="716" type="curve" smooth="yes"/>
      <point x="83" y="683"/>
      <point x="110" y="656"/>
      <point x="143" y="656" type="curve" smooth="yes"/>
      <point x="176" y="656"/>
      <point x="202" y="683"/>
      <point x="202" y="716" type="curve" smooth="yes"/>
      <point x="202" y="749"/>
      <point x="176" y="774"/>
    </contour>
  </outline>
</glyph>
<glyph name="Jcircumflex" format="1">
  <advance width="337"/>
  <unicode hex="0134"/>
  <outline>
    <contour>
      <point x="272" y="139" type="curve" smooth="yes"/>
      <point x="272" y="698" type="line"/>
      <point x="104" y="698" type="line"/>
      <point x="104" y="593" type="line"/>
      <point x="165" y="591" type="line"/>
      <point x="165" y="156" type="line" smooth="yes"/>
      <point x="165" y="90"/>
      <point x="129" y="57"/>
      <point x="59" y="57" type="curve"/>
      <point x="95" y="-37" type="line"/>
      <point x="132" y="-36"/>
      <point x="179" y="-28"/>
      <point x="216" y="3" type="curve" smooth="yes"/>
      <point x="248" y="29"/>
      <point x="272" y="71"/>
    </contour>
    <contour>
      <point x="295" y="643" type="line"/>
      <point x="167" y="770" type="line"/>
      <point x="35" y="642" type="line"/>
      <point x="87" y="591" type="line"/>
      <point x="167" y="673" type="line"/>
      <point x="242" y="592" type="line"/>
    </contour>
  </outline>
</glyph>
<glyph name="Ldot" format="1">
  <advance width="446"/>
  <unicode hex="013F"/>
  <outline>
    <contour>
      <point x="49" y="0" type="line"/>
      <point x="410" y="0" type="line"/>
      <point x="410" y="101" type="line"/>
      <point x="159" y="101" type="line"/>
      <point x="159" y="698" type="line"/>
      <point x="49" y="698" type="line"/>
    </contour>
    <contour>
      <point x="141" y="774" type="curve" smooth="yes"/>
      <point x="108" y="774"/>
      <point x="81" y="749"/>
      <point x="81" y="716" type="curve" smooth="yes"/>
      <point x="81" y="683"/>
      <point x="108" y="656"/>
      <point x="141" y="656" type="curve" smooth="yes"/>
      <point x="174" y="656"/>
      <point x="200" y="683"/>
      <point x="200" y="716" type="curve" smooth="yes"/>
      <point x="200" y="749"/>
      <point x="174" y="774"/>
    </contour>
  </outline>
</glyph>
<glyph name="Lslash" format="1">
  <advance width="536"/>
  <unicode hex="0141"/>
  <outline>
    <contour>
      <point x="140" y="0" type="line"/>
      <point x="500" y="0" type="line"/>
      <point x="500" y="101" type="line"/>
      <point x="249" y="101" type="line"/>
      <point x="249" y="359" type="line"/>
      <point x="359" y="409" type="line"/>
      <point x="322" y="488" type="line"/>
      <point x="249" y="455" type="line"/>
      <point x="249" y="698" type="line"/>
      <point x="140" y="698" type="line"/>
      <point x="140" y="407" type="line"/>
      <point x="32" y="359" type="line"/>
      <point x="68" y="277" type="line"/>
      <point x="140" y="309" type="line"/>
    </contour>
  </outline>
</glyph>
<glyph name="lslash" format="1">
  <advance width="395"/>
  <unicode hex="0142"/>
  <outline>
    <contour>
      <point x="134" y="403" type="line"/>
      <point x="32" y="358" type="line"/>
      <point x="69" y="277" type="line"/>
      <point x="134" y="306" type="line"/>
      <point x="134" y="0" type="line"/>
      <point x="244" y="0" type="line"/>
      <point x="244" y="356" type="line"/>
      <point x="360" y="409" type="line"/>
      <point x="324" y="488" type="line"/>
      <point x="244" y="453" type="line"/>
      <point x="244" y="698" type="line"/>
      <point x="134" y="698" type="line"/>
    </contour>
  </outline>
</glyph>
<glyph name="Nacute" format="1">
  <advance width="590"/>
  <unicode hex="0143"/>
  <outline>
    <contour>
      <point x="541" y="698" type="line"/>
      <point x="430" y="698" type="line"/>
      <point x="430" y="230" type="line"/>
      <point x="159" y="698" type="line"/>
      <point x="49" y="698" type="line"/>
      <point x="49" y="0" type="line"/>
      <point x="159" y="0" type="line"/>
      <point x="159" y="472" type="line"/>
      <point x="430" y="0" type="line"/>
      <point x="541" y="0" type="line"/>
    </contour>
    <contour>
      <point x="215" y="671" type="line" smooth="yes"/>
      <point x="233" y="693"/>
      <point x="233" y="727"/>
      <point x="208" y="741" type="curve" smooth="yes"/>
      <point x="182" y="757"/>
      <point x="150" y="738"/>
      <point x="143" y="712" type="curve" smooth="yes"/>
      <point x="113" y="596" type="line"/>
      <point x="157" y="596" type="line"/>
    </contour>
  </outline>
</glyph>
<glyph name="nacute" format="1">
  <advance width="457"/>
  <unicode hex="0144"/>
  <outline>
    <contour>
      <point x="306" y="342" type="curve" smooth="yes"/>
      <point x="306" y="-1" type="line"/>
      <point x="415" y="-1" type="line"/>
      <point x="415" y="345" type="line" smooth="yes"/>
      <point x="415" y="473"/>
      <point x="334" y="508"/>
      <point x="255" y="508" type="curve" smooth="yes"/>
      <point x="214" y="508"/>
      <point x="172" y="487"/>
      <point x="155" y="476" type="curve"/>
      <point x="155" y="499" type="line"/>
      <point x="46" y="499" type="line"/>
      <point x="46" y="-1" type="line"/>
      <point x="155" y="-1" type="line"/>
      <point x="155" y="385" type="line"/>
      <point x="187" y="402"/>
      <point x="212" y="409"/>
      <point x="235" y="409" type="curve" smooth="yes"/>
      <point x="277" y="409"/>
      <point x="306" y="380"/>
    </contour>
    <contour>
      <point x="214" y="671" type="line" smooth="yes"/>
      <point x="232" y="693"/>
      <point x="232" y="727"/>
      <point x="207" y="741" type="curve" smooth="yes"/>
      <point x="181" y="757"/>
      <point x="149" y="738"/>
      <point x="142" y="712" type="curve" smooth="yes"/>
      <point x="112" y="596" type="line"/>
      <point x="156" y="596" type="line"/>
    </contour>
  </outline>
</glyph>
<glyph name="Ncommaaccent" format="1">
  <advance width="591"/>
  <unicode hex="0145"/>
  <outline>
    <contour>
      <point x="542" y="698" type="line"/>
      <point x="431" y="698" type="line"/>
      <point x="431" y="230" type="line"/>
      <point x="160" y="698" type="line"/>
      <point x="50" y="698" type="line"/>
      <point x="50" y="0" type="line"/>
      <point x="160" y="0" type="line"/>
      <point x="160" y="472" type="line"/>
      <point x="431" y="0" type="line"/>
      <point x="542" y="0" type="line"/>
    </contour>
    <contour>
      <point x="110" y="-236" type="curve"/>
      <point x="134" y="-253" type="line"/>
      <point x="134" y="-253"/>
      <point x="201" y="-211"/>
      <point x="201" y="-120" type="curve" smooth="yes"/>
      <point x="201" y="-88"/>
      <point x="175" y="-61"/>
      <point x="143" y="-61" type="curve" smooth="yes"/>
      <point x="110" y="-61"/>
      <point x="83" y="-88"/>
      <point x="83" y="-120" type="curve" smooth="yes"/>
      <point x="83" y="-148"/>
      <point x="101" y="-171"/>
      <point x="128" y="-178" type="curve"/>
      <point x="124" y="-198"/>
      <point x="120" y="-218"/>
    </contour>
  </outline>
</glyph>
<glyph name="ncommaaccent" format="1">
  <advance width="457"/>
  <unicode hex="0146"/>
  <outline>
    <contour>
      <point x="306" y="342" type="curve" smooth="yes"/>
      <point x="306" y="-1" type="line"/>
      <point x="415" y="-1" type="line"/>
      <point x="415" y="345" type="line" smooth="yes"/>
      <point x="415" y="473"/>
      <point x="334" y="508"/>
      <point x="255" y="508" type="curve" smooth="yes"/>
      <point x="214" y="508"/>
      <point x="172" y="487"/>
      <point x="155" y="476" type="curve"/>
      <point x="155" y="499" type="line"/>
      <point x="46" y="499" type="line"/>
      <point x="46" y="-1" type="line"/>
      <point x="155" y="-1" type="line"/>
      <point x="155" y="385" type="line"/>
      <point x="187" y="402"/>
      <point x="212" y="409"/>
      <point x="235" y="409" type="curve" smooth="yes"/>
      <point x="277" y="409"/>
      <point x="306" y="380"/>
    </contour>
    <contour>
      <point x="108" y="-236" type="curve"/>
      <point x="132" y="-253" type="line"/>
      <point x="132" y="-253"/>
      <point x="199" y="-211"/>
      <point x="199" y="-120" type="curve" smooth="yes"/>
      <point x="199" y="-88"/>
      <point x="173" y="-61"/>
      <point x="141" y="-61" type="curve" smooth="yes"/>
      <point x="108" y="-61"/>
      <point x="81" y="-88"/>
      <point x="81" y="-120" type="curve" smooth="yes"/>
      <point x="81" y="-148"/>
      <point x="99" y="-171"/>
      <point x="126" y="-178" type="curve"/>
      <point x="122" y="-198"/>
      <point x="118" y="-218"/>
    </contour>
  </outline>
</glyph>
<glyph name="Ncaron" format="1">
  <advance width="615"/>
  <unicode hex="0147"/>
  <outline>
    <contour>
      <point x="566" y="698" type="line"/>
      <point x="455" y="698" type="line"/>
      <point x="455" y="230" type="line"/>
      <point x="184" y="698" type="line"/>
      <point x="74" y="698" type="line"/>
      <point x="74" y="0" type="line"/>
      <point x="184" y="0" type="line"/>
      <point x="184" y="472" type="line"/>
      <point x="455" y="0" type="line"/>
      <point x="566" y="0" type="line"/>
    </contour>
    <contour>
      <point x="296" y="716" type="line"/>
      <point x="244" y="768" type="line"/>
      <point x="164" y="686" type="line"/>
      <point x="89" y="767" type="line"/>
      <point x="36" y="715" type="line"/>
      <point x="164" y="588" type="line"/>
    </contour>
  </outline>
</glyph>
<glyph name="Omacron" format="1">
  <advance width="521"/>
  <unicode hex="014C"/>
  <outline>
    <contour>
      <point x="57" y="506" type="curve" smooth="yes"/>
      <point x="57" y="185" type="line" smooth="yes"/>
      <point x="57" y="56"/>
      <point x="149" y="-11"/>
      <point x="268" y="-11" type="curve" smooth="yes"/>
      <point x="393" y="-11"/>
      <point x="477" y="63"/>
      <point x="477" y="185" type="curve" smooth="yes"/>
      <point x="477" y="505" type="line" smooth="yes"/>
      <point x="477" y="636"/>
      <point x="401" y="715"/>
      <point x="269" y="715" type="curve" smooth="yes"/>
      <point x="137" y="715"/>
      <point x="57" y="642"/>
    </contour>
    <contour>
      <point x="167" y="204" type="curve" smooth="yes"/>
      <point x="167" y="470" type="line" smooth="yes"/>
      <point x="167" y="557"/>
      <point x="197" y="598"/>
      <point x="267" y="598" type="curve" smooth="yes"/>
      <point x="344" y="598"/>
      <point x="367" y="554"/>
      <point x="367" y="469" type="curve" smooth="yes"/>
      <point x="367" y="206" type="line" smooth="yes"/>
      <point x="367" y="143"/>
      <point x="330" y="101"/>
      <point x="267" y="101" type="curve" smooth="yes"/>
      <point x="200" y="101"/>
      <point x="167" y="140"/>
    </contour>
    <contour>
      <point x="264" y="708" type="line"/>
      <point x="43" y="708" type="line"/>
      <point x="43" y="618" type="line"/>
      <point x="264" y="618" type="line"/>
    </contour>
  </outline>
</glyph>
<glyph name="omacron" format="1">
  <advance width="460"/>
  <unicode hex="014D"/>
  <outline>
    <contour>
      <point x="421" y="184" type="curve" smooth="yes"/>
      <point x="421" y="316" type="line" smooth="yes"/>
      <point x="421" y="437"/>
      <point x="355" y="510"/>
      <point x="239" y="510" type="curve" smooth="yes"/>
      <point x="118" y="510"/>
      <point x="52" y="443"/>
      <point x="52" y="316" type="curve" smooth="yes"/>
      <point x="52" y="184" type="line" smooth="yes"/>
      <point x="52" y="82"/>
      <point x="107" y="-10"/>
      <point x="239" y="-10" type="curve" smooth="yes"/>
      <point x="363" y="-10"/>
      <point x="421" y="71"/>
    </contour>
    <contour>
      <point x="308" y="322" type="curve" smooth="yes"/>
      <point x="308" y="176" type="line" smooth="yes"/>
      <point x="308" y="131"/>
      <point x="288" y="98"/>
      <point x="238" y="98" type="curve" smooth="yes"/>
      <point x="185" y="98"/>
      <point x="163" y="135"/>
      <point x="163" y="176" type="curve" smooth="yes"/>
      <point x="163" y="322" type="line" smooth="yes"/>
      <point x="163" y="373"/>
      <point x="190" y="400"/>
      <point x="238" y="400" type="curve" smooth="yes"/>
      <point x="285" y="400"/>
      <point x="308" y="370"/>
    </contour>
    <contour>
      <point x="264" y="708" type="line"/>
      <point x="43" y="708" type="line"/>
      <point x="43" y="618" type="line"/>
      <point x="264" y="618" type="line"/>
    </contour>
  </outline>
</glyph>
<glyph name="Ohungarumlaut" format="1">
  <advance width="509"/>
  <unicode hex="0150"/>
  <outline>
    <contour>
      <point x="45" y="506" type="curve" smooth="yes"/>
      <point x="45" y="185" type="line" smooth="yes"/>
      <point x="45" y="56"/>
      <point x="137" y="-11"/>
      <point x="256" y="-11" type="curve" smooth="yes"/>
      <point x="381" y="-11"/>
      <point x="465" y="63"/>
      <point x="465" y="185" type="curve" smooth="yes"/>
      <point x="465" y="505" type="line" smooth="yes"/>
      <point x="465" y="636"/>
      <point x="389" y="715"/>
      <point x="257" y="715" type="curve" smooth="yes"/>
      <point x="125" y="715"/>
      <point x="45" y="642"/>
    </contour>
    <contour>
      <point x="155" y="204" type="curve" smooth="yes"/>
      <point x="155" y="470" type="line" smooth="yes"/>
      <point x="155" y="557"/>
      <point x="185" y="598"/>
      <point x="255" y="598" type="curve" smooth="yes"/>
      <point x="332" y="598"/>
      <point x="355" y="554"/>
      <point x="355" y="469" type="curve" smooth="yes"/>
      <point x="355" y="206" type="line" smooth="yes"/>
      <point x="355" y="143"/>
      <point x="318" y="101"/>
      <point x="255" y="101" type="curve" smooth="yes"/>
      <point x="188" y="101"/>
      <point x="155" y="140"/>
    </contour>
    <contour>
      <point x="166" y="645" type="line"/>
      <point x="185" y="667"/>
      <point x="185" y="702"/>
      <point x="159" y="716" type="curve" smooth="yes"/>
      <point x="134" y="730"/>
      <point x="100" y="710"/>
      <point x="94" y="685" type="curve" smooth="yes"/>
      <point x="64" y="569" type="line"/>
      <point x="108" y="569" type="line"/>
    </contour>
    <contour>
      <point x="279" y="645" type="line" smooth="yes"/>
      <point x="297" y="667"/>
      <point x="297" y="702"/>
      <point x="271" y="716" type="curve" smooth="yes"/>
      <point x="243" y="730"/>
      <point x="213" y="711"/>
      <point x="206" y="685" type="curve" smooth="yes"/>
      <point x="176" y="569" type="line"/>
      <point x="220" y="569" type="line"/>
    </contour>
  </outline>
</glyph>
<glyph name="OE" format="1">
  <advance width="735"/>
  <unicode hex="0152"/>
  <outline>
    <contour>
      <point x="355" y="0" type="line"/>
      <point x="687" y="0" type="line"/>
      <point x="687" y="100" type="line"/>
      <point x="465" y="100" type="line"/>
      <point x="465" y="308" type="line"/>
      <point x="570" y="308" type="line"/>
      <point x="602" y="413" type="line"/>
      <point x="465" y="413" type="line"/>
      <point x="465" y="588" type="line"/>
      <point x="689" y="588" type="line"/>
      <point x="689" y="698" type="line"/>
      <point x="355" y="698" type="line"/>
      <point x="355" y="675" type="line"/>
      <point x="339" y="698"/>
      <point x="291" y="714"/>
      <point x="254" y="714" type="curve" smooth="yes"/>
      <point x="122" y="714"/>
      <point x="45" y="642"/>
      <point x="45" y="505" type="curve" smooth="yes"/>
      <point x="45" y="184" type="line" smooth="yes"/>
      <point x="45" y="55"/>
      <point x="134" y="-12"/>
      <point x="253" y="-12" type="curve" smooth="yes"/>
      <point x="289" y="-12"/>
      <point x="342" y="0"/>
      <point x="355" y="28" type="curve"/>
    </contour>
    <contour>
      <point x="155" y="204" type="curve" smooth="yes"/>
      <point x="155" y="469" type="line" smooth="yes"/>
      <point x="155" y="555"/>
      <point x="181" y="595"/>
      <point x="255" y="595" type="curve" smooth="yes"/>
      <point x="332" y="595"/>
      <point x="355" y="553"/>
      <point x="355" y="468" type="curve" smooth="yes"/>
      <point x="355" y="205" type="line" smooth="yes"/>
      <point x="355" y="142"/>
      <point x="317" y="100"/>
      <point x="255" y="100" type="curve" smooth="yes"/>
      <point x="186" y="100"/>
      <point x="155" y="139"/>
    </contour>
  </outline>
</glyph>
<glyph name="Racute" format="1">
  <advance width="527"/>
  <unicode hex="0154"/>
  <outline>
    <contour>
      <point x="266" y="698" type="curve" smooth="yes"/>
      <point x="49" y="698" type="line"/>
      <point x="49" y="0" type="line"/>
      <point x="159" y="0" type="line"/>
      <point x="159" y="195" type="line"/>
      <point x="266" y="195" type="line" smooth="yes"/>
      <point x="278" y="195"/>
      <point x="290" y="195"/>
      <point x="302" y="196" type="curve"/>
      <point x="372" y="0" type="line"/>
      <point x="484" y="0" type="line"/>
      <point x="403" y="232" type="line"/>
      <point x="451" y="267"/>
      <point x="484" y="333"/>
      <point x="484" y="451" type="curve" smooth="yes"/>
      <point x="484" y="648"/>
      <point x="371" y="698"/>
    </contour>
    <contour>
      <point x="225" y="300" type="curve" smooth="yes"/>
      <point x="159" y="300" type="line"/>
      <point x="159" y="588" type="line"/>
      <point x="225" y="588" type="line" smooth="yes"/>
      <point x="327" y="588"/>
      <point x="373" y="576"/>
      <point x="373" y="451" type="curve" smooth="yes"/>
      <point x="373" y="317"/>
      <point x="328" y="300"/>
    </contour>
    <contour>
      <point x="215" y="671" type="line" smooth="yes"/>
      <point x="233" y="693"/>
      <point x="233" y="727"/>
      <point x="208" y="741" type="curve" smooth="yes"/>
      <point x="182" y="757"/>
      <point x="150" y="738"/>
      <point x="143" y="712" type="curve" smooth="yes"/>
      <point x="113" y="596" type="line"/>
      <point x="157" y="596" type="line"/>
    </contour>
  </outline>
</glyph>
<glyph name="racute" format="1">
  <advance width="389"/>
  <unicode hex="0155"/>
  <outline>
    <contour>
      <point x="338" y="409" type="curve"/>
      <point x="354" y="499" type="line"/>
      <point x="333" y="507"/>
      <point x="305" y="514"/>
      <point x="275" y="514" type="curve" smooth="yes"/>
      <point x="232" y="514"/>
      <point x="189" y="501"/>
      <point x="156" y="479" type="curve"/>
      <point x="156" y="499" type="line"/>
      <point x="46" y="499" type="line"/>
      <point x="46" y="0" type="line"/>
      <point x="156" y="0" type="line"/>
      <point x="156" y="388" type="line"/>
      <point x="198" y="407"/>
      <point x="241" y="416"/>
      <point x="286" y="416" type="curve" smooth="yes"/>
      <point x="322" y="416"/>
      <point x="338" y="409"/>
    </contour>
    <contour>
      <point x="214" y="671" type="line" smooth="yes"/>
      <point x="232" y="693"/>
      <point x="232" y="727"/>
      <point x="207" y="741" type="curve" smooth="yes"/>
      <point x="181" y="757"/>
      <point x="149" y="738"/>
      <point x="142" y="712" type="curve" smooth="yes"/>
      <point x="112" y="596" type="line"/>
      <point x="156" y="596" type="line"/>
    </contour>
  </outline>
</glyph>
<glyph name="rcaron" format="1">
  <advance width="416"/>
  <unicode hex="0159"/>
  <outline>
    <contour>
      <point x="365" y="409" type="curve"/>
      <point x="381" y="499" type="line"/>
      <point x="360" y="507"/>
      <point x="332" y="514"/>
      <point x="302" y="514" type="curve" smooth="yes"/>
      <point x="259" y="514"/>
      <point x="216" y="501"/>
      <point x="183" y="479" type="curve"/>
      <point x="183" y="499" type="line"/>
      <point x="73" y="499" type="line"/>
      <point x="73" y="0" type="line"/>
      <point x="183" y="0" type="line"/>
      <point x="183" y="388" type="line"/>
      <point x="225" y="407"/>
      <point x="268" y="416"/>
      <point x="313" y="416" type="curve" smooth="yes"/>
      <point x="349" y="416"/>
      <point x="365" y="409"/>
    </contour>
    <contour>
      <point x="297" y="716" type="line"/>
      <point x="245" y="768" type="line"/>
      <point x="165" y="686" type="line"/>
      <point x="90" y="767" type="line"/>
      <point x="37" y="715" type="line"/>
      <point x="165" y="588" type="line"/>
    </contour>
  </outline>
</glyph>
<glyph name="Sacute" format="1">
  <advance width="564"/>
  <unicode hex="015A"/>
  <outline>
    <contour>
      <point x="428" y="574" type="curve"/>
      <point x="461" y="671" type="line"/>
      <point x="415" y="695"/>
      <point x="357" y="708"/>
      <point x="301" y="708" type="curve" smooth="yes"/>
      <point x="243" y="708"/>
      <point x="186" y="697"/>
      <point x="141" y="667" type="curve" smooth="yes"/>
      <point x="93" y="635"/>
      <point x="73" y="586"/>
      <point x="73" y="537" type="curve" smooth="yes"/>
      <point x="73" y="428"/>
      <point x="161" y="387"/>
      <point x="246" y="346" type="curve"/>
      <point x="269" y="337"/>
      <point x="292" y="326"/>
      <point x="313" y="313" type="curve"/>
      <point x="363" y="286"/>
      <point x="403" y="252"/>
      <point x="403" y="198" type="curve" smooth="yes"/>
      <point x="403" y="167"/>
      <point x="389" y="137"/>
      <point x="366" y="121" type="curve" smooth="yes"/>
      <point x="341" y="102"/>
      <point x="306" y="96"/>
      <point x="277" y="96" type="curve" smooth="yes"/>
      <point x="257" y="96"/>
      <point x="221" y="99"/>
      <point x="183" y="122" type="curve" smooth="yes"/>
      <point x="162" y="135"/>
      <point x="142" y="155"/>
      <point x="125" y="183" type="curve"/>
      <point x="40" y="127" type="line"/>
      <point x="70" y="81"/>
      <point x="94" y="55"/>
      <point x="128" y="31" type="curve" smooth="yes"/>
      <point x="174" y="-2"/>
      <point x="228" y="-12"/>
      <point x="274" y="-12" type="curve" smooth="yes"/>
      <point x="333" y="-12"/>
      <point x="393" y="-1"/>
      <point x="439" y="29" type="curve" smooth="yes"/>
      <point x="501" y="69"/>
      <point x="526" y="136"/>
      <point x="526" y="199" type="curve" smooth="yes"/>
      <point x="526" y="297"/>
      <point x="459" y="360"/>
      <point x="384" y="404" type="curve" smooth="yes"/>
      <point x="355" y="422"/>
      <point x="324" y="437"/>
      <point x="296" y="449" type="curve" smooth="yes"/>
      <point x="238" y="475"/>
      <point x="196" y="496"/>
      <point x="195" y="537" type="curve" smooth="yes"/>
      <point x="195" y="559"/>
      <point x="205" y="575"/>
      <point x="221" y="586" type="curve" smooth="yes"/>
      <point x="237" y="598"/>
      <point x="265" y="606"/>
      <point x="299" y="606" type="curve" smooth="yes"/>
      <point x="335" y="606"/>
      <point x="380" y="597"/>
    </contour>
    <contour>
      <point x="218" y="671" type="line" smooth="yes"/>
      <point x="236" y="693"/>
      <point x="236" y="727"/>
      <point x="211" y="741" type="curve" smooth="yes"/>
      <point x="185" y="757"/>
      <point x="153" y="738"/>
      <point x="146" y="712" type="curve" smooth="yes"/>
      <point x="116" y="596" type="line"/>
      <point x="160" y="596" type="line"/>
    </contour>
  </outline>
</glyph>
<glyph name="sacute" format="1">
  <advance width="447"/>
  <unicode hex="015B"/>
  <outline>
    <contour>
      <point x="326" y="385" type="curve"/>
      <point x="360" y="476" type="line"/>
      <point x="326" y="499"/>
      <point x="282" y="512"/>
      <point x="241" y="512" type="curve" smooth="yes"/>
      <point x="201" y="512"/>
      <point x="162" y="502"/>
      <point x="130" y="484" type="curve" smooth="yes"/>
      <point x="90" y="460"/>
      <point x="63" y="422"/>
      <point x="63" y="370" type="curve" smooth="yes"/>
      <point x="63" y="312"/>
      <point x="94" y="278"/>
      <point x="130" y="254" type="curve"/>
      <point x="159" y="237"/>
      <point x="189" y="226"/>
      <point x="215" y="215" type="curve" smooth="yes"/>
      <point x="235" y="206"/>
      <point x="256" y="197"/>
      <point x="271" y="183" type="curve" smooth="yes"/>
      <point x="282" y="172"/>
      <point x="292" y="158"/>
      <point x="292" y="139" type="curve"/>
      <point x="291" y="124"/>
      <point x="283" y="111"/>
      <point x="271" y="102" type="curve"/>
      <point x="259" y="94"/>
      <point x="240" y="88"/>
      <point x="219" y="88" type="curve" smooth="yes"/>
      <point x="196" y="88"/>
      <point x="174" y="94"/>
      <point x="157" y="102" type="curve" smooth="yes"/>
      <point x="133" y="113"/>
      <point x="114" y="128"/>
      <point x="103" y="137" type="curve"/>
      <point x="39" y="70" type="line"/>
      <point x="53" y="54"/>
      <point x="83" y="28"/>
      <point x="124" y="8" type="curve" smooth="yes"/>
      <point x="151" y="-6"/>
      <point x="186" y="-15"/>
      <point x="226" y="-15" type="curve" smooth="yes"/>
      <point x="272" y="-15"/>
      <point x="315" y="-2"/>
      <point x="347" y="21" type="curve" smooth="yes"/>
      <point x="384" y="50"/>
      <point x="409" y="91"/>
      <point x="409" y="145" type="curve" smooth="yes"/>
      <point x="409" y="197"/>
      <point x="384" y="237"/>
      <point x="352" y="263" type="curve" smooth="yes"/>
      <point x="327" y="285"/>
      <point x="296" y="299"/>
      <point x="270" y="309" type="curve" smooth="yes"/>
      <point x="251" y="316"/>
      <point x="233" y="323"/>
      <point x="217" y="331" type="curve" smooth="yes"/>
      <point x="194" y="342"/>
      <point x="176" y="355"/>
      <point x="176" y="370" type="curve" smooth="yes"/>
      <point x="176" y="378"/>
      <point x="180" y="389"/>
      <point x="196" y="398" type="curve"/>
      <point x="206" y="402"/>
      <point x="219" y="405"/>
      <point x="239" y="405" type="curve" smooth="yes"/>
      <point x="273" y="405"/>
      <point x="303" y="397"/>
    </contour>
    <contour>
      <point x="219" y="671" type="line" smooth="yes"/>
      <point x="237" y="693"/>
      <point x="237" y="727"/>
      <point x="212" y="741" type="curve" smooth="yes"/>
      <point x="186" y="757"/>
      <point x="154" y="738"/>
      <point x="147" y="712" type="curve" smooth="yes"/>
      <point x="117" y="596" type="line"/>
      <point x="161" y="596" type="line"/>
    </contour>
  </outline>
</glyph>
<glyph name="scircumflex" format="1">
  <advance width="468"/>
  <unicode hex="015D"/>
  <outline>
    <contour>
      <point x="347" y="385" type="curve"/>
      <point x="381" y="476" type="line"/>
      <point x="347" y="499"/>
      <point x="303" y="512"/>
      <point x="262" y="512" type="curve" smooth="yes"/>
      <point x="222" y="512"/>
      <point x="183" y="502"/>
      <point x="151" y="484" type="curve" smooth="yes"/>
      <point x="111" y="460"/>
      <point x="84" y="422"/>
      <point x="84" y="370" type="curve" smooth="yes"/>
      <point x="84" y="312"/>
      <point x="115" y="278"/>
      <point x="151" y="254" type="curve"/>
      <point x="180" y="237"/>
      <point x="210" y="226"/>
      <point x="236" y="215" type="curve" smooth="yes"/>
      <point x="256" y="206"/>
      <point x="277" y="197"/>
      <point x="292" y="183" type="curve" smooth="yes"/>
      <point x="303" y="172"/>
      <point x="313" y="158"/>
      <point x="313" y="139" type="curve"/>
      <point x="312" y="124"/>
      <point x="304" y="111"/>
      <point x="292" y="102" type="curve"/>
      <point x="280" y="94"/>
      <point x="261" y="88"/>
      <point x="240" y="88" type="curve" smooth="yes"/>
      <point x="217" y="88"/>
      <point x="195" y="94"/>
      <point x="178" y="102" type="curve" smooth="yes"/>
      <point x="154" y="113"/>
      <point x="135" y="128"/>
      <point x="124" y="137" type="curve"/>
      <point x="60" y="70" type="line"/>
      <point x="74" y="54"/>
      <point x="104" y="28"/>
      <point x="145" y="8" type="curve" smooth="yes"/>
      <point x="172" y="-6"/>
      <point x="207" y="-15"/>
      <point x="247" y="-15" type="curve" smooth="yes"/>
      <point x="293" y="-15"/>
      <point x="336" y="-2"/>
      <point x="368" y="21" type="curve" smooth="yes"/>
      <point x="405" y="50"/>
      <point x="430" y="91"/>
      <point x="430" y="145" type="curve" smooth="yes"/>
      <point x="430" y="197"/>
      <point x="405" y="237"/>
      <point x="373" y="263" type="curve" smooth="yes"/>
      <point x="348" y="285"/>
      <point x="317" y="299"/>
      <point x="291" y="309" type="curve" smooth="yes"/>
      <point x="272" y="316"/>
      <point x="254" y="323"/>
      <point x="238" y="331" type="curve" smooth="yes"/>
      <point x="215" y="342"/>
      <point x="197" y="355"/>
      <point x="197" y="370" type="curve" smooth="yes"/>
      <point x="197" y="378"/>
      <point x="201" y="389"/>
      <point x="217" y="398" type="curve"/>
      <point x="227" y="402"/>
      <point x="240" y="405"/>
      <point x="260" y="405" type="curve" smooth="yes"/>
      <point x="294" y="405"/>
      <point x="324" y="397"/>
    </contour>
    <contour>
      <point x="296" y="643" type="line"/>
      <point x="168" y="770" type="line"/>
      <point x="36" y="642" type="line"/>
      <point x="88" y="591" type="line"/>
      <point x="168" y="673" type="line"/>
      <point x="243" y="592" type="line"/>
    </contour>
  </outline>
</glyph>
<glyph name="scedilla" format="1">
  <advance width="447"/>
  <unicode hex="015F"/>
  <outline>
    <contour>
      <point x="326" y="385" type="curve"/>
      <point x="360" y="476" type="line"/>
      <point x="326" y="499"/>
      <point x="282" y="512"/>
      <point x="241" y="512" type="curve" smooth="yes"/>
      <point x="201" y="512"/>
      <point x="162" y="502"/>
      <point x="130" y="484" type="curve" smooth="yes"/>
      <point x="90" y="460"/>
      <point x="63" y="422"/>
      <point x="63" y="370" type="curve" smooth="yes"/>
      <point x="63" y="312"/>
      <point x="94" y="278"/>
      <point x="130" y="254" type="curve"/>
      <point x="159" y="237"/>
      <point x="189" y="226"/>
      <point x="215" y="215" type="curve" smooth="yes"/>
      <point x="235" y="206"/>
      <point x="256" y="197"/>
      <point x="271" y="183" type="curve" smooth="yes"/>
      <point x="282" y="172"/>
      <point x="292" y="158"/>
      <point x="292" y="139" type="curve"/>
      <point x="291" y="124"/>
      <point x="283" y="111"/>
      <point x="271" y="102" type="curve"/>
      <point x="259" y="94"/>
      <point x="240" y="88"/>
      <point x="219" y="88" type="curve" smooth="yes"/>
      <point x="196" y="88"/>
      <point x="174" y="94"/>
      <point x="157" y="102" type="curve" smooth="yes"/>
      <point x="133" y="113"/>
      <point x="114" y="128"/>
      <point x="103" y="137" type="curve"/>
      <point x="39" y="70" type="line"/>
      <point x="53" y="54"/>
      <point x="83" y="28"/>
      <point x="124" y="8" type="curve" smooth="yes"/>
      <point x="151" y="-6"/>
      <point x="186" y="-15"/>
      <point x="226" y="-15" type="curve" smooth="yes"/>
      <point x="272" y="-15"/>
      <point x="315" y="-2"/>
      <point x="347" y="21" type="curve" smooth="yes"/>
      <point x="384" y="50"/>
      <point x="409" y="91"/>
      <point x="409" y="145" type="curve" smooth="yes"/>
      <point x="409" y="197"/>
      <point x="384" y="237"/>
      <point x="352" y="263" type="curve" smooth="yes"/>
      <point x="327" y="285"/>
      <point x="296" y="299"/>
      <point x="270" y="309" type="curve" smooth="yes"/>
      <point x="251" y="316"/>
      <point x="233" y="323"/>
      <point x="217" y="331" type="curve" smooth="yes"/>
      <point x="194" y="342"/>
      <point x="176" y="355"/>
      <point x="176" y="370" type="curve" smooth="yes"/>
      <point x="176" y="378"/>
      <point x="180" y="389"/>
      <point x="196" y="398" type="curve"/>
      <point x="206" y="402"/>
      <point x="219" y="405"/>
      <point x="239" y="405" type="curve" smooth="yes"/>
      <point x="273" y="405"/>
      <point x="303" y="397"/>
    </contour>
    <contour>
      <point x="184" y="0" type="line"/>
      <point x="118" y="0" type="line"/>
      <point x="72" y="-75" type="line"/>
      <point x="90" y="-114" type="line"/>
      <point x="131" y="-111"/>
      <point x="160" y="-107"/>
      <point x="180" y="-107" type="curve" smooth="yes"/>
      <point x="205" y="-107"/>
      <point x="215" y="-120"/>
      <point x="215" y="-138" type="curve" smooth="yes"/>
      <point x="215" y="-155"/>
      <point x="204" y="-168"/>
      <point x="176" y="-168" type="curve" smooth="yes"/>
      <point x="133" y="-168"/>
      <point x="77" y="-158"/>
      <point x="76" y="-158" type="curve"/>
      <point x="71" y="-187"/>
      <point x="68" y="-196"/>
      <point x="63" y="-223" type="curve"/>
      <point x="65" y="-224"/>
      <point x="117" y="-235"/>
      <point x="165" y="-235" type="curve" smooth="yes"/>
      <point x="247" y="-235"/>
      <point x="282" y="-193"/>
      <point x="282" y="-133" type="curve" smooth="yes"/>
      <point x="282" y="-86"/>
      <point x="248" y="-40"/>
      <point x="187" y="-40" type="curve" smooth="yes"/>
      <point x="183" y="-40"/>
      <point x="178" y="-41"/>
      <point x="160" y="-42" type="curve"/>
    </contour>
  </outline>
</glyph>
<glyph name="Scaron" format="1">
  <advance width="585"/>
  <unicode hex="0160"/>
  <outline>
    <contour>
      <point x="449" y="574" type="curve"/>
      <point x="482" y="671" type="line"/>
      <point x="436" y="695"/>
      <point x="378" y="708"/>
      <point x="322" y="708" type="curve" smooth="yes"/>
      <point x="264" y="708"/>
      <point x="207" y="697"/>
      <point x="162" y="667" type="curve" smooth="yes"/>
      <point x="114" y="635"/>
      <point x="94" y="586"/>
      <point x="94" y="537" type="curve" smooth="yes"/>
      <point x="94" y="428"/>
      <point x="182" y="387"/>
      <point x="267" y="346" type="curve"/>
      <point x="290" y="337"/>
      <point x="313" y="326"/>
      <point x="334" y="313" type="curve"/>
      <point x="384" y="286"/>
      <point x="424" y="252"/>
      <point x="424" y="198" type="curve" smooth="yes"/>
      <point x="424" y="167"/>
      <point x="410" y="137"/>
      <point x="387" y="121" type="curve" smooth="yes"/>
      <point x="362" y="102"/>
      <point x="327" y="96"/>
      <point x="298" y="96" type="curve" smooth="yes"/>
      <point x="278" y="96"/>
      <point x="242" y="99"/>
      <point x="204" y="122" type="curve" smooth="yes"/>
      <point x="183" y="135"/>
      <point x="163" y="155"/>
      <point x="146" y="183" type="curve"/>
      <point x="61" y="127" type="line"/>
      <point x="91" y="81"/>
      <point x="115" y="55"/>
      <point x="149" y="31" type="curve" smooth="yes"/>
      <point x="195" y="-2"/>
      <point x="249" y="-12"/>
      <point x="295" y="-12" type="curve" smooth="yes"/>
      <point x="354" y="-12"/>
      <point x="414" y="-1"/>
      <point x="460" y="29" type="curve" smooth="yes"/>
      <point x="522" y="69"/>
      <point x="547" y="136"/>
      <point x="547" y="199" type="curve" smooth="yes"/>
      <point x="547" y="297"/>
      <point x="480" y="360"/>
      <point x="405" y="404" type="curve" smooth="yes"/>
      <point x="376" y="422"/>
      <point x="345" y="437"/>
      <point x="317" y="449" type="curve" smooth="yes"/>
      <point x="259" y="475"/>
      <point x="217" y="496"/>
      <point x="216" y="537" type="curve" smooth="yes"/>
      <point x="216" y="559"/>
      <point x="226" y="575"/>
      <point x="242" y="586" type="curve" smooth="yes"/>
      <point x="258" y="598"/>
      <point x="286" y="606"/>
      <point x="320" y="606" type="curve" smooth="yes"/>
      <point x="356" y="606"/>
      <point x="401" y="597"/>
    </contour>
    <contour>
      <point x="295" y="716" type="line"/>
      <point x="243" y="768" type="line"/>
      <point x="163" y="686" type="line"/>
      <point x="88" y="767" type="line"/>
      <point x="35" y="715" type="line"/>
      <point x="163" y="588" type="line"/>
    </contour>
  </outline>
</glyph>
<glyph name="tcaron" format="1">
  <advance width="336"/>
  <unicode hex="0165"/>
  <outline>
    <contour>
      <point x="185" y="132" type="curve" smooth="yes"/>
      <point x="185" y="398" type="line"/>
      <point x="257" y="398" type="line"/>
      <point x="280" y="499" type="line"/>
      <point x="185" y="499" type="line"/>
      <point x="185" y="698" type="line"/>
      <point x="73" y="698" type="line"/>
      <point x="73" y="132" type="line" smooth="yes"/>
      <point x="73" y="37"/>
      <point x="124" y="-11"/>
      <point x="225" y="-13" type="curve"/>
      <point x="258" y="75" type="line"/>
      <point x="211" y="75"/>
      <point x="185" y="87"/>
    </contour>
    <contour>
      <point x="296" y="716" type="line"/>
      <point x="244" y="768" type="line"/>
      <point x="164" y="686" type="line"/>
      <point x="89" y="767" type="line"/>
      <point x="36" y="715" type="line"/>
      <point x="164" y="588" type="line"/>
    </contour>
  </outline>
</glyph>
<glyph name="Tbar" format="1">
  <advance width="492"/>
  <unicode hex="0166"/>
  <outline>
    <contour>
      <point x="43" y="587" type="line"/>
      <point x="187" y="587" type="line"/>
      <point x="187" y="413" type="line"/>
      <point x="43" y="413" type="line"/>
      <point x="43" y="323" type="line"/>
      <point x="187" y="323" type="line"/>
      <point x="187" y="0" type="line"/>
      <point x="297" y="0" type="line"/>
      <point x="297" y="323" type="line"/>
      <point x="444" y="323" type="line"/>
      <point x="444" y="413" type="line"/>
      <point x="297" y="413" type="line"/>
      <point x="297" y="587" type="line"/>
      <point x="446" y="587" type="line"/>
      <point x="446" y="698" type="line"/>
      <point x="43" y="698" type="line"/>
    </contour>
  </outline>
</glyph>
<glyph name="Utilde" format="1">
  <advance width="541"/>
  <unicode hex="0168"/>
  <outline>
    <contour>
      <point x="493" y="185" type="curve" smooth="yes"/>
      <point x="493" y="698" type="line"/>
      <point x="383" y="698" type="line"/>
      <point x="383" y="206" type="line" smooth="yes"/>
      <point x="383" y="172"/>
      <point x="372" y="144"/>
      <point x="353" y="127" type="curve"/>
      <point x="336" y="110"/>
      <point x="312" y="101"/>
      <point x="283" y="101" type="curve" smooth="yes"/>
      <point x="253" y="101"/>
      <point x="230" y="108"/>
      <point x="215" y="122" type="curve" smooth="yes"/>
      <point x="194" y="140"/>
      <point x="183" y="168"/>
      <point x="183" y="204" type="curve" smooth="yes"/>
      <point x="183" y="698" type="line"/>
      <point x="73" y="698" type="line"/>
      <point x="73" y="185" type="line" smooth="yes"/>
      <point x="73" y="118"/>
      <point x="95" y="68"/>
      <point x="135" y="36" type="curve" smooth="yes"/>
      <point x="177" y="5"/>
      <point x="227" y="-11"/>
      <point x="284" y="-11" type="curve" smooth="yes"/>
      <point x="341" y="-11"/>
      <point x="391" y="5"/>
      <point x="431" y="36" type="curve" smooth="yes"/>
      <point x="472" y="68"/>
      <point x="493" y="118"/>
    </contour>
    <contour>
      <point x="230" y="708" type="line"/>
      <point x="230" y="700" type="line" smooth="yes"/>
      <point x="230" y="688"/>
      <point x="230" y="672"/>
      <point x="216" y="672" type="curve" smooth="yes"/>
      <point x="208" y="672"/>
      <point x="195" y="680"/>
      <point x="188" y="684" type="curve" smooth="yes"/>
      <point x="174" y="692"/>
      <point x="169" y="696"/>
      <point x="157" y="702" type="curve" smooth="yes"/>
      <point x="136" y="712"/>
      <point x="113" y="715"/>
      <point x="90" y="708" type="curve" smooth="yes"/>
      <point x="50" y="696"/>
      <point x="36" y="658"/>
      <point x="36" y="619" type="curve" smooth="yes"/>
      <point x="36" y="611" type="line"/>
      <point x="103" y="611" type="line"/>
      <point x="103" y="619" type="line" smooth="yes"/>
      <point x="103" y="632"/>
      <point x="102" y="645"/>
      <point x="118" y="645" type="curve" smooth="yes"/>
      <point x="125" y="645"/>
      <point x="135" y="641"/>
      <point x="144" y="635" type="curve" smooth="yes"/>
      <point x="150" y="631"/>
      <point x="171" y="618"/>
      <point x="177" y="615" type="curve"/>
      <point x="189" y="610"/>
      <point x="202" y="605"/>
      <point x="215" y="605" type="curve" smooth="yes"/>
      <point x="270" y="605"/>
      <point x="297" y="649"/>
      <point x="297" y="700" type="curve" smooth="yes"/>
      <point x="297" y="708" type="line"/>
    </contour>
  </outline>
</glyph>
<glyph name="Umacron" format="1">
  <advance width="527"/>
  <unicode hex="016A"/>
  <outline>
    <contour>
      <point x="479" y="185" type="curve" smooth="yes"/>
      <point x="479" y="698" type="line"/>
      <point x="369" y="698" type="line"/>
      <point x="369" y="206" type="line" smooth="yes"/>
      <point x="369" y="172"/>
      <point x="358" y="144"/>
      <point x="339" y="127" type="curve"/>
      <point x="322" y="110"/>
      <point x="298" y="101"/>
      <point x="269" y="101" type="curve" smooth="yes"/>
      <point x="239" y="101"/>
      <point x="216" y="108"/>
      <point x="201" y="122" type="curve" smooth="yes"/>
      <point x="180" y="140"/>
      <point x="169" y="168"/>
      <point x="169" y="204" type="curve" smooth="yes"/>
      <point x="169" y="698" type="line"/>
      <point x="59" y="698" type="line"/>
      <point x="59" y="185" type="line" smooth="yes"/>
      <point x="59" y="118"/>
      <point x="81" y="68"/>
      <point x="121" y="36" type="curve" smooth="yes"/>
      <point x="163" y="5"/>
      <point x="213" y="-11"/>
      <point x="270" y="-11" type="curve" smooth="yes"/>
      <point x="327" y="-11"/>
      <point x="377" y="5"/>
      <point x="417" y="36" type="curve" smooth="yes"/>
      <point x="458" y="68"/>
      <point x="479" y="118"/>
    </contour>
    <contour>
      <point x="263" y="708" type="line"/>
      <point x="42" y="708" type="line"/>
      <point x="42" y="618" type="line"/>
      <point x="263" y="618" type="line"/>
    </contour>
  </outline>
</glyph>
<glyph name="umacron" format="1">
  <advance width="471"/>
  <unicode hex="016B"/>
  <outline>
    <contour>
      <point x="317" y="26" type="curve"/>
      <point x="317" y="0" type="line"/>
      <point x="427" y="0" type="line"/>
      <point x="427" y="501" type="line"/>
      <point x="317" y="501" type="line"/>
      <point x="317" y="175" type="line" smooth="yes"/>
      <point x="317" y="129"/>
      <point x="282" y="94"/>
      <point x="237" y="94" type="curve" smooth="yes"/>
      <point x="197" y="94"/>
      <point x="169" y="124"/>
      <point x="169" y="159" type="curve" smooth="yes"/>
      <point x="169" y="501" type="line"/>
      <point x="58" y="501" type="line"/>
      <point x="58" y="157" type="line" smooth="yes"/>
      <point x="58" y="29"/>
      <point x="140" y="-7"/>
      <point x="218" y="-7" type="curve" smooth="yes"/>
      <point x="260" y="-7"/>
      <point x="304" y="12"/>
    </contour>
    <contour>
      <point x="264" y="708" type="line"/>
      <point x="43" y="708" type="line"/>
      <point x="43" y="618" type="line"/>
      <point x="264" y="618" type="line"/>
    </contour>
  </outline>
</glyph>
<glyph name="Ubreve" format="1">
  <advance width="529"/>
  <unicode hex="016C"/>
  <outline>
    <contour>
      <point x="481" y="185" type="curve" smooth="yes"/>
      <point x="481" y="698" type="line"/>
      <point x="371" y="698" type="line"/>
      <point x="371" y="206" type="line" smooth="yes"/>
      <point x="371" y="172"/>
      <point x="360" y="144"/>
      <point x="341" y="127" type="curve"/>
      <point x="324" y="110"/>
      <point x="300" y="101"/>
      <point x="271" y="101" type="curve" smooth="yes"/>
      <point x="241" y="101"/>
      <point x="218" y="108"/>
      <point x="203" y="122" type="curve" smooth="yes"/>
      <point x="182" y="140"/>
      <point x="171" y="168"/>
      <point x="171" y="204" type="curve" smooth="yes"/>
      <point x="171" y="698" type="line"/>
      <point x="61" y="698" type="line"/>
      <point x="61" y="185" type="line" smooth="yes"/>
      <point x="61" y="118"/>
      <point x="83" y="68"/>
      <point x="123" y="36" type="curve" smooth="yes"/>
      <point x="165" y="5"/>
      <point x="215" y="-11"/>
      <point x="272" y="-11" type="curve" smooth="yes"/>
      <point x="329" y="-11"/>
      <point x="379" y="5"/>
      <point x="419" y="36" type="curve" smooth="yes"/>
      <point x="460" y="68"/>
      <point x="481" y="118"/>
    </contour>
    <contour>
      <point x="268" y="705" type="line"/>
      <point x="189" y="705" type="line"/>
      <point x="189" y="698" type="line" smooth="yes"/>
      <point x="189" y="680"/>
      <point x="174" y="664"/>
      <point x="155" y="664" type="curve" smooth="yes"/>
      <point x="136" y="664"/>
      <point x="121" y="680"/>
      <point x="121" y="698" type="curve" smooth="yes"/>
      <point x="121" y="705" type="line"/>
      <point x="41" y="705" type="line"/>
      <point x="41" y="698" type="line" smooth="yes"/>
      <point x="41" y="636"/>
      <point x="92" y="585"/>
      <point x="155" y="585" type="curve" smooth="yes"/>
      <point x="216" y="585"/>
      <point x="268" y="636"/>
      <point x="268" y="698" type="curve" smooth="yes"/>
    </contour>
  </outline>
</glyph>
<glyph name="ubreve" format="1">
  <advance width="473"/>
  <unicode hex="016D"/>
  <outline>
    <contour>
      <point x="319" y="26" type="curve"/>
      <point x="319" y="0" type="line"/>
      <point x="429" y="0" type="line"/>
      <point x="429" y="501" type="line"/>
      <point x="319" y="501" type="line"/>
      <point x="319" y="175" type="line" smooth="yes"/>
      <point x="319" y="129"/>
      <point x="284" y="94"/>
      <point x="239" y="94" type="curve" smooth="yes"/>
      <point x="199" y="94"/>
      <point x="171" y="124"/>
      <point x="171" y="159" type="curve" smooth="yes"/>
      <point x="171" y="501" type="line"/>
      <point x="60" y="501" type="line"/>
      <point x="60" y="157" type="line" smooth="yes"/>
      <point x="60" y="29"/>
      <point x="142" y="-7"/>
      <point x="220" y="-7" type="curve" smooth="yes"/>
      <point x="262" y="-7"/>
      <point x="306" y="12"/>
    </contour>
    <contour>
      <point x="269" y="705" type="line"/>
      <point x="190" y="705" type="line"/>
      <point x="190" y="698" type="line" smooth="yes"/>
      <point x="190" y="680"/>
      <point x="175" y="664"/>
      <point x="156" y="664" type="curve" smooth="yes"/>
      <point x="137" y="664"/>
      <point x="122" y="680"/>
      <point x="122" y="698" type="curve" smooth="yes"/>
      <point x="122" y="705" type="line"/>
      <point x="42" y="705" type="line"/>
      <point x="42" y="698" type="line" smooth="yes"/>
      <point x="42" y="636"/>
      <point x="93" y="585"/>
      <point x="156" y="585" type="curve" smooth="yes"/>
      <point x="217" y="585"/>
      <point x="269" y="636"/>
      <point x="269" y="698" type="curve" smooth="yes"/>
    </contour>
  </outline>
</glyph>
<glyph name="uring" format="1">
  <advance width="473"/>
  <unicode hex="016F"/>
  <outline>
    <contour>
      <point x="319" y="26" type="curve"/>
      <point x="319" y="0" type="line"/>
      <point x="429" y="0" type="line"/>
      <point x="429" y="501" type="line"/>
      <point x="319" y="501" type="line"/>
      <point x="319" y="175" type="line" smooth="yes"/>
      <point x="319" y="129"/>
      <point x="284" y="94"/>
      <point x="239" y="94" type="curve" smooth="yes"/>
      <point x="199" y="94"/>
      <point x="171" y="124"/>
      <point x="171" y="159" type="curve" smooth="yes"/>
      <point x="171" y="501" type="line"/>
      <point x="60" y="501" type="line"/>
      <point x="60" y="157" type="line" smooth="yes"/>
      <point x="60" y="29"/>
      <point x="142" y="-7"/>
      <point x="220" y="-7" type="curve" smooth="yes"/>
      <point x="262" y="-7"/>
      <point x="306" y="12"/>
    </contour>
    <contour>
      <point x="156" y="774" type="curve" smooth="yes"/>
      <point x="93" y="774"/>
      <point x="42" y="724"/>
      <point x="42" y="661" type="curve" smooth="yes"/>
      <point x="42" y="598"/>
      <point x="93" y="547"/>
      <point x="156" y="547" type="curve" smooth="yes"/>
      <point x="219" y="547"/>
      <point x="270" y="598"/>
      <point x="270" y="661" type="curve" smooth="yes"/>
      <point x="270" y="724"/>
      <point x="219" y="774"/>
    </contour>
    <contour>
      <point x="156" y="692" type="curve" smooth="yes"/>
      <point x="173" y="692"/>
      <point x="187" y="678"/>
      <point x="187" y="661" type="curve" smooth="yes"/>
      <point x="187" y="642"/>
      <point x="173" y="629"/>
      <point x="156" y="629" type="curve" smooth="yes"/>
      <point x="140" y="629"/>
      <point x="125" y="642"/>
      <point x="125" y="661" type="curve" smooth="yes"/>
      <point x="125" y="678"/>
      <point x="140" y="692"/>
    </contour>
  </outline>
</glyph>
<glyph name="uhungarumlaut" format="1">
  <advance width="458"/>
  <unicode hex="0171"/>
  <outline>
    <contour>
      <point x="304" y="26" type="curve"/>
      <point x="304" y="0" type="line"/>
      <point x="414" y="0" type="line"/>
      <point x="414" y="501" type="line"/>
      <point x="304" y="501" type="line"/>
      <point x="304" y="175" type="line" smooth="yes"/>
      <point x="304" y="129"/>
      <point x="269" y="94"/>
      <point x="224" y="94" type="curve" smooth="yes"/>
      <point x="184" y="94"/>
      <point x="156" y="124"/>
      <point x="156" y="159" type="curve" smooth="yes"/>
      <point x="156" y="501" type="line"/>
      <point x="45" y="501" type="line"/>
      <point x="45" y="157" type="line" smooth="yes"/>
      <point x="45" y="29"/>
      <point x="127" y="-7"/>
      <point x="205" y="-7" type="curve" smooth="yes"/>
      <point x="247" y="-7"/>
      <point x="291" y="12"/>
    </contour>
    <contour>
      <point x="165" y="645" type="line"/>
      <point x="184" y="667"/>
      <point x="184" y="702"/>
      <point x="158" y="716" type="curve" smooth="yes"/>
      <point x="133" y="730"/>
      <point x="99" y="710"/>
      <point x="93" y="685" type="curve" smooth="yes"/>
      <point x="63" y="569" type="line"/>
      <point x="107" y="569" type="line"/>
    </contour>
    <contour>
      <point x="278" y="645" type="line" smooth="yes"/>
      <point x="296" y="667"/>
      <point x="296" y="702"/>
      <point x="270" y="716" type="curve" smooth="yes"/>
      <point x="242" y="730"/>
      <point x="212" y="711"/>
      <point x="205" y="685" type="curve" smooth="yes"/>
      <point x="175" y="569" type="line"/>
      <point x="219" y="569" type="line"/>
    </contour>
  </outline>
</glyph>
<glyph name="Uogonek" format="1">
  <advance width="542"/>
  <unicode hex="0172"/>
  <outline>
    <contour>
      <point x="494" y="185" type="curve" smooth="yes"/>
      <point x="494" y="698" type="line"/>
      <point x="384" y="698" type="line"/>
      <point x="384" y="206" type="line" smooth="yes"/>
      <point x="384" y="172"/>
      <point x="373" y="144"/>
      <point x="354" y="127" type="curve"/>
      <point x="337" y="110"/>
      <point x="313" y="101"/>
      <point x="284" y="101" type="curve" smooth="yes"/>
      <point x="254" y="101"/>
      <point x="231" y="108"/>
      <point x="216" y="122" type="curve" smooth="yes"/>
      <point x="195" y="140"/>
      <point x="184" y="168"/>
      <point x="184" y="204" type="curve" smooth="yes"/>
      <point x="184" y="698" type="line"/>
      <point x="74" y="698" type="line"/>
      <point x="74" y="185" type="line" smooth="yes"/>
      <point x="74" y="118"/>
      <point x="96" y="68"/>
      <point x="136" y="36" type="curve" smooth="yes"/>
      <point x="178" y="5"/>
      <point x="228" y="-11"/>
      <point x="285" y="-11" type="curve" smooth="yes"/>
      <point x="342" y="-11"/>
      <point x="392" y="5"/>
      <point x="432" y="36" type="curve" smooth="yes"/>
      <point x="473" y="68"/>
      <point x="494" y="118"/>
    </contour>
    <contour>
      <point x="218" y="16" type="line"/>
      <point x="128" y="7" type="line"/>
      <point x="128" y="3" type="line"/>
      <point x="73" y="-87" type="line" smooth="yes"/>
      <point x="23" y="-175"/>
      <point x="91" y="-251"/>
      <point x="183" y="-224" type="curve" smooth="yes"/>
      <point x="205" y="-218"/>
      <point x="287" y="-190"/>
      <point x="288" y="-190" type="curve"/>
      <point x="263" y="-118" type="line"/>
      <point x="263" y="-118"/>
      <point x="188" y="-144"/>
      <point x="160" y="-154" type="curve"/>
      <point x="136" y="-164"/>
      <point x="125" y="-142"/>
      <point x="136" y="-123" type="curve"/>
      <point x="218" y="2" type="line"/>
    </contour>
  </outline>
</glyph>
<glyph name="uogonek" format="1">
  <advance width="483"/>
  <unicode hex="0173"/>
  <outline>
    <contour>
      <point x="329" y="26" type="curve"/>
      <point x="329" y="0" type="line"/>
      <point x="439" y="0" type="line"/>
      <point x="439" y="501" type="line"/>
      <point x="329" y="501" type="line"/>
      <point x="329" y="175" type="line" smooth="yes"/>
      <point x="329" y="129"/>
      <point x="294" y="94"/>
      <point x="249" y="94" type="curve" smooth="yes"/>
      <point x="209" y="94"/>
      <point x="181" y="124"/>
      <point x="181" y="159" type="curve" smooth="yes"/>
      <point x="181" y="501" type="line"/>
      <point x="70" y="501" type="line"/>
      <point x="70" y="157" type="line" smooth="yes"/>
      <point x="70" y="29"/>
      <point x="152" y="-7"/>
      <point x="230" y="-7" type="curve" smooth="yes"/>
      <point x="272" y="-7"/>
      <point x="316" y="12"/>
    </contour>
    <contour>
      <point x="216" y="16" type="line"/>
      <point x="126" y="7" type="line"/>
      <point x="126" y="3" type="line"/>
      <point x="71" y="-87" type="line" smooth="yes"/>
      <point x="21" y="-175"/>
      <point x="89" y="-251"/>
      <point x="181" y="-224" type="curve" smooth="yes"/>
      <point x="203" y="-218"/>
      <point x="285" y="-190"/>
      <point x="286" y="-190" type="curve"/>
      <point x="261" y="-118" type="line"/>
      <point x="261" y="-118"/>
      <point x="186" y="-144"/>
      <point x="158" y="-154" type="curve"/>
      <point x="134" y="-164"/>
      <point x="123" y="-142"/>
      <point x="134" y="-123" type="curve"/>
      <point x="216" y="2" type="line"/>
    </contour>
  </outline>
</glyph>
<glyph name="Wcircumflex" format="1">
  <advance width="779"/>
  <unicode hex="0174"/>
  <outline>
    <contour>
      <point x="434" y="698" type="line"/>
      <point x="355" y="698" type="line"/>
      <point x="249" y="252" type="line"/>
      <point x="166" y="698" type="line"/>
      <point x="45" y="698" type="line"/>
      <point x="179" y="0" type="line"/>
      <point x="307" y="0" type="line"/>
      <point x="394" y="353" type="line"/>
      <point x="483" y="0" type="line"/>
      <point x="607" y="0" type="line"/>
      <point x="742" y="698" type="line"/>
      <point x="615" y="698" type="line"/>
      <point x="540" y="252" type="line"/>
    </contour>
    <contour>
      <point x="288" y="643" type="line"/>
      <point x="160" y="770" type="line"/>
      <point x="28" y="642" type="line"/>
      <point x="80" y="591" type="line"/>
      <point x="160" y="673" type="line"/>
      <point x="235" y="592" type="line"/>
    </contour>
  </outline>
</glyph>
<glyph name="ycircumflex" format="1">
  <advance width="524"/>
  <unicode hex="0177"/>
  <outline>
    <contour>
      <point x="487" y="433" type="curve"/>
      <point x="453" y="510" type="line"/>
      <point x="363" y="510"/>
      <point x="330" y="448"/>
      <point x="330" y="392" type="curve" smooth="yes"/>
      <point x="330" y="176" type="line" smooth="yes"/>
      <point x="330" y="130"/>
      <point x="295" y="94"/>
      <point x="250" y="94" type="curve" smooth="yes"/>
      <point x="209" y="94"/>
      <point x="181" y="123"/>
      <point x="181" y="161" type="curve" smooth="yes"/>
      <point x="181" y="501" type="line"/>
      <point x="70" y="501" type="line"/>
      <point x="70" y="158" type="line" smooth="yes"/>
      <point x="70" y="30"/>
      <point x="151" y="-6"/>
      <point x="230" y="-6" type="curve" smooth="yes"/>
      <point x="272" y="-6"/>
      <point x="317" y="13"/>
      <point x="330" y="28" type="curve"/>
      <point x="330" y="-48" type="line" smooth="yes"/>
      <point x="330" y="-72"/>
      <point x="323" y="-89"/>
      <point x="310" y="-101" type="curve" smooth="yes"/>
      <point x="296" y="-114"/>
      <point x="277" y="-124"/>
      <point x="260" y="-124" type="curve"/>
      <point x="289" y="-213" type="line"/>
      <point x="322" y="-213"/>
      <point x="365" y="-199"/>
      <point x="392" y="-179" type="curve" smooth="yes"/>
      <point x="425" y="-157"/>
      <point x="440" y="-116"/>
      <point x="440" y="-59" type="curve" smooth="yes"/>
      <point x="440" y="362" type="line" smooth="yes"/>
      <point x="440" y="395"/>
      <point x="448" y="425"/>
    </contour>
    <contour>
      <point x="297" y="643" type="line"/>
      <point x="169" y="770" type="line"/>
      <point x="37" y="642" type="line"/>
      <point x="89" y="591" type="line"/>
      <point x="169" y="673" type="line"/>
      <point x="244" y="592" type="line"/>
    </contour>
  </outline>
</glyph>
<glyph name="Zacute" format="1">
  <advance width="577"/>
  <unicode hex="0179"/>
  <outline>
    <contour>
      <point x="526" y="698" type="line"/>
      <point x="58" y="698" type="line"/>
      <point x="58" y="588" type="line"/>
      <point x="387" y="588" type="line"/>
      <point x="44" y="101" type="line"/>
      <point x="44" y="0" type="line"/>
      <point x="532" y="0" type="line"/>
      <point x="532" y="105" type="line"/>
      <point x="182" y="105" type="line"/>
      <point x="526" y="588" type="line"/>
    </contour>
    <contour>
      <point x="219" y="671" type="line" smooth="yes"/>
      <point x="237" y="693"/>
      <point x="237" y="727"/>
      <point x="212" y="741" type="curve" smooth="yes"/>
      <point x="186" y="757"/>
      <point x="154" y="738"/>
      <point x="147" y="712" type="curve" smooth="yes"/>
      <point x="117" y="596" type="line"/>
      <point x="161" y="596" type="line"/>
    </contour>
  </outline>
</glyph>
<glyph name="zdotaccent" format="1">
  <advance width="455"/>
  <unicode hex="017C"/>
  <outline>
    <contour>
      <point x="403" y="499" type="line"/>
      <point x="54" y="499" type="line"/>
      <point x="54" y="397" type="line"/>
      <point x="254" y="397" type="line"/>
      <point x="45" y="105" type="line"/>
      <point x="45" y="0" type="line"/>
      <point x="413" y="0" type="line"/>
      <point x="413" y="105" type="line"/>
      <point x="193" y="105" type="line"/>
      <point x="403" y="400" type="line"/>
    </contour>
    <contour>
      <point x="145" y="774" type="curve" smooth="yes"/>
      <point x="112" y="774"/>
      <point x="85" y="749"/>
      <point x="85" y="716" type="curve" smooth="yes"/>
      <point x="85" y="683"/>
      <point x="112" y="656"/>
      <point x="145" y="656" type="curve" smooth="yes"/>
      <point x="178" y="656"/>
      <point x="204" y="683"/>
      <point x="204" y="716" type="curve" smooth="yes"/>
      <point x="204" y="749"/>
      <point x="178" y="774"/>
    </contour>
  </outline>
</glyph>
<glyph name="Zcaron" format="1">
  <advance width="597"/>
  <unicode hex="017D"/>
  <outline>
    <contour>
      <point x="546" y="698" type="line"/>
      <point x="78" y="698" type="line"/>
      <point x="78" y="588" type="line"/>
      <point x="407" y="588" type="line"/>
      <point x="64" y="101" type="line"/>
      <point x="64" y="0" type="line"/>
      <point x="552" y="0" type="line"/>
      <point x="552" y="105" type="line"/>
      <point x="202" y="105" type="line"/>
      <point x="546" y="588" type="line"/>
    </contour>
    <contour>
      <point x="295" y="716" type="line"/>
      <point x="243" y="768" type="line"/>
      <point x="163" y="686" type="line"/>
      <point x="88" y="767" type="line"/>
      <point x="35" y="715" type="line"/>
      <point x="163" y="588" type="line"/>
    </contour>
  </outline>
</glyph>
<glyph name="scommaaccent" format="1">
  <advance width="446"/>
  <unicode hex="0219"/>
  <outline>
    <contour>
      <point x="325" y="385" type="curve"/>
      <point x="359" y="476" type="line"/>
      <point x="325" y="499"/>
      <point x="281" y="512"/>
      <point x="240" y="512" type="curve" smooth="yes"/>
      <point x="200" y="512"/>
      <point x="161" y="502"/>
      <point x="129" y="484" type="curve" smooth="yes"/>
      <point x="89" y="460"/>
      <point x="62" y="422"/>
      <point x="62" y="370" type="curve" smooth="yes"/>
      <point x="62" y="312"/>
      <point x="93" y="278"/>
      <point x="129" y="254" type="curve"/>
      <point x="158" y="237"/>
      <point x="188" y="226"/>
      <point x="214" y="215" type="curve" smooth="yes"/>
      <point x="234" y="206"/>
      <point x="255" y="197"/>
      <point x="270" y="183" type="curve" smooth="yes"/>
      <point x="281" y="172"/>
      <point x="291" y="158"/>
      <point x="291" y="139" type="curve"/>
      <point x="290" y="124"/>
      <point x="282" y="111"/>
      <point x="270" y="102" type="curve"/>
      <point x="258" y="94"/>
      <point x="239" y="88"/>
      <point x="218" y="88" type="curve" smooth="yes"/>
      <point x="195" y="88"/>
      <point x="173" y="94"/>
      <point x="156" y="102" type="curve" smooth="yes"/>
      <point x="132" y="113"/>
      <point x="113" y="128"/>
      <point x="102" y="137" type="curve"/>
      <point x="38" y="70" type="line"/>
      <point x="52" y="54"/>
      <point x="82" y="28"/>
      <point x="123" y="8" type="curve" smooth="yes"/>
      <point x="150" y="-6"/>
      <point x="185" y="-15"/>
      <point x="225" y="-15" type="curve" smooth="yes"/>
      <point x="271" y="-15"/>
      <point x="314" y="-2"/>
      <point x="346" y="21" type="curve" smooth="yes"/>
      <point x="383" y="50"/>
      <point x="408" y="91"/>
      <point x="408" y="145" type="curve" smooth="yes"/>
      <point x="408" y="197"/>
      <point x="383" y="237"/>
      <point x="351" y="263" type="curve" smooth="yes"/>
      <point x="326" y="285"/>
      <point x="295" y="299"/>
      <point x="269" y="309" type="curve" smooth="yes"/>
      <point x="250" y="316"/>
      <point x="232" y="323"/>
      <point x="216" y="331" type="curve" smooth="yes"/>
      <point x="193" y="342"/>
      <point x="175" y="355"/>
      <point x="175" y="370" type="curve" smooth="yes"/>
      <point x="175" y="378"/>
      <point x="179" y="389"/>
      <point x="195" y="398" type="curve"/>
      <point x="205" y="402"/>
      <point x="218" y="405"/>
      <point x="238" y="405" type="curve" smooth="yes"/>
      <point x="272" y="405"/>
      <point x="302" y="397"/>
    </contour>
    <contour>
      <point x="112" y="-236" type="curve"/>
      <point x="136" y="-253" type="line"/>
      <point x="136" y="-253"/>
      <point x="203" y="-211"/>
      <point x="203" y="-120" type="curve" smooth="yes"/>
      <point x="203" y="-88"/>
      <point x="177" y="-61"/>
      <point x="145" y="-61" type="curve" smooth="yes"/>
      <point x="112" y="-61"/>
      <point x="85" y="-88"/>
      <point x="85" y="-120" type="curve" smooth="yes"/>
      <point x="85" y="-148"/>
      <point x="103" y="-171"/>
      <point x="130" y="-178" type="curve"/>
      <point x="126" y="-198"/>
      <point x="122" y="-218"/>
    </contour>
  </outline>
</glyph>
<glyph name="Omicrontonos" format="1">
  <advance width="509"/>
  <unicode hex="038C"/>
  <outline>
    <contour>
      <point x="45" y="506" type="curve" smooth="yes"/>
      <point x="45" y="185" type="line" smooth="yes"/>
      <point x="45" y="56"/>
      <point x="137" y="-11"/>
      <point x="256" y="-11" type="curve" smooth="yes"/>
      <point x="381" y="-11"/>
      <point x="465" y="63"/>
      <point x="465" y="185" type="curve" smooth="yes"/>
      <point x="465" y="505" type="line" smooth="yes"/>
      <point x="465" y="636"/>
      <point x="389" y="715"/>
      <point x="257" y="715" type="curve" smooth="yes"/>
      <point x="125" y="715"/>
      <point x="45" y="642"/>
    </contour>
    <contour>
      <point x="155" y="204" type="curve" smooth="yes"/>
      <point x="155" y="470" type="line" smooth="yes"/>
      <point x="155" y="557"/>
      <point x="185" y="598"/>
      <point x="255" y="598" type="curve" smooth="yes"/>
      <point x="332" y="598"/>
      <point x="355" y="554"/>
      <point x="355" y="469" type="curve" smooth="yes"/>
      <point x="355" y="206" type="line" smooth="yes"/>
      <point x="355" y="143"/>
      <point x="318" y="101"/>
      <point x="255" y="101" type="curve" smooth="yes"/>
      <point x="188" y="101"/>
      <point x="155" y="140"/>
    </contour>
    <contour>
      <point x="216" y="671" type="line" smooth="yes"/>
      <point x="234" y="693"/>
      <point x="234" y="727"/>
      <point x="209" y="741" type="curve" smooth="yes"/>
      <point x="183" y="757"/>
      <point x="151" y="738"/>
      <point x="144" y="712" type="curve" smooth="yes"/>
      <point x="114" y="596" type="line"/>
      <point x="158" y="596" type="line"/>
    </contour>
  </outline>
</glyph>
<glyph name="iotadieresistonos" format="1">
  <advance width="344"/>
  <unicode hex="0390"/>
  <outline>
    <contour>
      <point x="80" y="0" type="line"/>
      <point x="190" y="0" type="line"/>
      <point x="190" y="499" type="line"/>
      <point x="80" y="499" type="line"/>
    </contour>
    <contour>
      <point x="154" y="693" type="curve" smooth="yes"/>
      <point x="154" y="726"/>
      <point x="128" y="752"/>
      <point x="95" y="752" type="curve" smooth="yes"/>
      <point x="62" y="752"/>
      <point x="35" y="726"/>
      <point x="35" y="693" type="curve" smooth="yes"/>
      <point x="35" y="660"/>
      <point x="62" y="634"/>
      <point x="95" y="634" type="curve" smooth="yes"/>
      <point x="128" y="634"/>
      <point x="154" y="660"/>
    </contour>
    <contour>
      <point x="313" y="693" type="curve" smooth="yes"/>
      <point x="313" y="726"/>
      <point x="286" y="752"/>
      <point x="253" y="752" type="curve" smooth="yes"/>
      <point x="220" y="752"/>
      <point x="193" y="726"/>
      <point x="193" y="693" type="curve" smooth="yes"/>
      <point x="193" y="660"/>
      <point x="220" y="634"/>
      <point x="253" y="634" type="curve" smooth="yes"/>
      <point x="286" y="634"/>
      <point x="313" y="660"/>
    </contour>
    <contour>
      <point x="252" y="807" type="line" smooth="yes"/>
      <point x="270" y="829"/>
      <point x="272" y="865"/>
      <point x="245" y="880" type="curve"/>
      <point x="217" y="892"/>
      <point x="189" y="877"/>
      <point x="180" y="849" type="curve" smooth="yes"/>
      <point x="149" y="733" type="line"/>
      <point x="193" y="733" type="line"/>
    </contour>
  </outline>
</glyph>
<glyph name="Gamma" format="1">
  <advance width="420"/>
  <unicode hex="0393"/>
  <outline>
    <contour>
      <point x="49" y="0" type="line"/>
      <point x="160" y="0" type="line"/>
      <point x="160" y="588" type="line"/>
      <point x="383" y="588" type="line"/>
      <point x="383" y="698" type="line"/>
      <point x="49" y="698" type="line"/>
    </contour>
  </outline>
</glyph>
<glyph name="Epsilon" format="1">
  <advance width="429"/>
  <unicode hex="0395"/>
  <outline>
    <contour>
      <point x="49" y="0" type="line"/>
      <point x="381" y="0" type="line"/>
      <point x="381" y="100" type="line"/>
      <point x="159" y="100" type="line"/>
      <point x="159" y="308" type="line"/>
      <point x="265" y="308" type="line"/>
      <point x="296" y="413" type="line"/>
      <point x="159" y="413" type="line"/>
      <point x="159" y="588" type="line"/>
      <point x="383" y="588" type="line"/>
      <point x="383" y="698" type="line"/>
      <point x="49" y="698" type="line"/>
    </contour>
  </outline>
</glyph>
<glyph name="Theta" format="1">
  <advance width="509"/>
  <unicode hex="0398"/>
  <outline>
    <contour>
      <point x="45" y="506" type="curve" smooth="yes"/>
      <point x="45" y="185" type="line" smooth="yes"/>
      <point x="45" y="56"/>
      <point x="137" y="-11"/>
      <point x="256" y="-11" type="curve" smooth="yes"/>
      <point x="381" y="-11"/>
      <point x="465" y="63"/>
      <point x="465" y="185" type="curve" smooth="yes"/>
      <point x="465" y="505" type="line" smooth="yes"/>
      <point x="465" y="636"/>
      <point x="389" y="715"/>
      <point x="257" y="715" type="curve" smooth="yes"/>
      <point x="125" y="715"/>
      <point x="45" y="642"/>
    </contour>
    <contour>
      <point x="355" y="469" type="curve" smooth="yes"/>
      <point x="355" y="410" type="line"/>
      <point x="155" y="410" type="line"/>
      <point x="155" y="470" type="line" smooth="yes"/>
      <point x="155" y="557"/>
      <point x="173" y="596"/>
      <point x="255" y="596" type="curve" smooth="yes"/>
      <point x="336" y="596"/>
      <point x="355" y="554"/>
    </contour>
    <contour>
      <point x="255" y="101" type="curve" smooth="yes"/>
      <point x="186" y="101"/>
      <point x="155" y="140"/>
      <point x="155" y="204" type="curve" smooth="yes"/>
      <point x="155" y="302" type="line"/>
      <point x="355" y="302" type="line"/>
      <point x="355" y="206" type="line" smooth="yes"/>
      <point x="355" y="143"/>
      <point x="317" y="101"/>
    </contour>
  </outline>
</glyph>
<glyph name="Kappa" format="1">
  <advance width="533"/>
  <unicode hex="039A"/>
  <outline>
    <contour>
      <point x="167" y="459" type="line"/>
      <point x="167" y="700" type="line"/>
      <point x="49" y="700" type="line"/>
      <point x="49" y="0" type="line"/>
      <point x="167" y="0" type="line"/>
      <point x="167" y="268" type="line"/>
      <point x="174" y="278" type="line"/>
      <point x="362" y="0" type="line"/>
      <point x="500" y="0" type="line"/>
      <point x="239" y="376" type="line"/>
      <point x="460" y="700" type="line"/>
      <point x="328" y="700" type="line"/>
    </contour>
  </outline>
</glyph>
<glyph name="Lambda" format="1">
  <advance width="570"/>
  <unicode hex="039B"/>
  <outline>
    <contour>
      <point x="283" y="453" type="line"/>
      <point x="412" y="0" type="line"/>
      <point x="539" y="0" type="line"/>
      <point x="335" y="698" type="line"/>
      <point x="234" y="698" type="line"/>
      <point x="34" y="0" type="line"/>
      <point x="158" y="0" type="line"/>
    </contour>
  </outline>
</glyph>
